<?xml version="1.0" encoding="UTF-8"?>
<svg width="30px" height="30px" viewBox="0 0 30 30" version="1.1" xmlns="http://www.w3.org/2000/svg" xmlns:xlink="http://www.w3.org/1999/xlink">
    <!-- Generator: Sketch 60.1 (88133) - https://sketch.com -->
    <title>Group 3</title>
    <desc>Created with Sketch.</desc>
    <defs>
        <polygon id="path-1" points="5.27240773e-06 0 29.9490685 0 29.9490685 29.9490685 5.27240773e-06 29.9490685"></polygon>
    </defs>
    <g id="Symbols" stroke="none" stroke-width="1" fill="none" fill-rule="evenodd">
        <g id="footer" transform="translate(-786.000000, -568.000000)">
            <g id="Group-4" transform="translate(746.000000, 568.000000)">
                <g id="Group-3" transform="translate(40.000000, 0.000000)">
                    <mask id="mask-2" fill="white">
                        <use xlink:href="#path-1"></use>
                    </mask>
                    <g id="Clip-2"></g>
                    <path d="M29.1693374,0 L28.2674394,0 L2.60873989,0 L0.780005272,0 L5.27240773e-06,0 L5.27240773e-06,0.773462214 L5.27240773e-06,1.76420035 L5.27240773e-06,27.0920562 L5.27240773e-06,29.1756063 L5.27240773e-06,29.9490685 L3.31397715,29.9490685 L10.2175097,29.9490685 L10.2175097,29.9422671 C10.6434148,29.9373638 10.9697768,29.700949 10.9848032,29.300826 C11.0235026,28.2608436 10.9961388,27.2186467 10.9961388,26.2131986 C10.2360685,26.2483656 9.51037434,26.3435325 8.7929051,26.3025659 C7.21049736,26.2121968 5.99452197,25.5426538 5.36383656,24.0060633 C4.99028647,23.0958348 4.42740422,22.3172583 3.55070826,21.7977153 C3.387,21.7005975 3.24385413,21.5576098 3.11858172,21.4124077 C2.95487346,21.2230228 2.98550615,21.028471 3.2442232,20.9764851 C3.50515466,20.9238137 3.79028647,20.8871178 4.04757996,20.9347803 C5.05830053,21.1229525 5.7572109,21.751529 6.29220211,22.5875747 C7.350058,24.2415817 8.9783884,24.747891 10.8103392,23.9840246 C10.9125185,23.9414763 11.0423251,23.8382425 11.0615694,23.7440246 C11.2092496,23.0118453 11.4852074,22.3442531 12.0413409,21.7589631 C11.4230984,21.6453954 10.8503568,21.5618278 10.2887399,21.4327065 C8.67148155,21.0616344 7.21861687,20.3940422 6.15622671,19.0681371 C5.28939016,17.9865554 4.89301054,16.7204394 4.71079613,15.3729174 C4.4254007,13.2623199 4.68084886,11.2866432 6.14251845,9.6 C6.21638489,9.51479789 6.25640246,9.34022847 6.22355536,9.2340949 C5.85749209,8.04796134 5.91343234,6.87179262 6.27622671,5.69889279 C6.46666608,5.0829174 6.51965378,5.05223199 7.15355536,5.13806678 C7.19230756,5.14323374 7.23000527,5.15288225 7.26844112,5.15936731 C8.53909139,5.36783831 9.63279965,5.97796134 10.7101634,6.63300527 C10.8549965,6.72110721 11.075594,6.77594025 11.2347153,6.73755712 C13.8079666,6.11836555 16.3763146,6.12094903 18.9492496,6.73982425 C19.0986169,6.7756239 19.2981248,6.72463972 19.4409016,6.65045694 C20.0266661,6.34681898 20.5873339,5.99383128 21.1805325,5.70595782 C21.8706907,5.37137083 22.5975975,5.11966608 23.3802337,5.13353251 C23.5172109,5.13611599 23.7290562,5.26581722 23.7749262,5.38586995 C24.2457522,6.6229877 24.3450316,7.88367311 23.9698471,9.17114236 C23.9297768,9.30859402 23.989355,9.50446397 24.0638541,9.63996485 C24.434188,10.3137258 24.9512004,10.9355009 25.1855062,11.6501757 C25.899812,13.8285237 25.6395132,15.9855712 24.6671757,18.0328998 C23.7762443,19.9096134 22.1238717,20.8605448 20.1679139,21.3510369 C19.5073339,21.5165905 18.8305149,21.6172408 18.117949,21.7560105 C19.0517979,22.7233392 19.1982127,23.9039895 19.1816046,25.1404745 C19.1644165,26.4159227 19.1689508,27.6918453 19.1682654,28.9676626 C19.1680018,29.5855888 19.4400053,29.9269772 19.9147329,29.9469596 C19.9145747,29.9481195 23.2625009,29.9485413 26.0907258,29.9487522 L26.0907258,29.9490685 L29.9490738,29.9490685 L29.9490738,29.9490685 L29.9490738,27.5708963 L29.9490738,2.28659051 L29.9490738,0.773462214 L29.9490738,0 L29.1693374,0 Z" id="Fill-1" fill="#2C2C2C" mask="url(#mask-2)"></path>
                </g>
            </g>
        </g>
    </g>
</svg>