<?xml version="1.0" encoding="UTF-8"?>
<svg width="30px" height="30px" viewBox="0 0 30 30" version="1.1" xmlns="http://www.w3.org/2000/svg" xmlns:xlink="http://www.w3.org/1999/xlink">
    <!-- Generator: Sketch 60.1 (88133) - https://sketch.com -->
    <title>Group 3</title>
    <desc>Created with Sketch.</desc>
    <defs>
        <polygon id="path-1" points="0 0 30 0 30 30 0 30"></polygon>
    </defs>
    <g id="Symbols" stroke="none" stroke-width="1" fill="none" fill-rule="evenodd">
        <g id="footer" transform="translate(-746.000000, -568.000000)">
            <g id="Group-4" transform="translate(746.000000, 568.000000)">
                <g id="Group-3">
                    <mask id="mask-2" fill="white">
                        <use xlink:href="#path-1"></use>
                    </mask>
                    <g id="path-1"></g>
                    <path d="M30,30 L30,0 L0,0 L0,30 L16.0186995,30 C16.0186995,29.8919552 16.0188174,29.7839105 16.0188174,29.7839105 C16.0188174,29.7839105 16.0189354,22.3821357 16.0189354,18.6811303 L16.0189354,18.3836533 L15.8387035,18.3836533 C14.6502109,18.3836533 13.4618364,18.3816481 12.2734618,18.3862483 C12.1368724,18.3867201 12.0859168,18.3590012 12.0866245,18.2079036 C12.0927581,16.8109885 12.092876,15.4139554 12.0866245,14.0170402 C12.0859168,13.8580399 12.1419444,13.8299671 12.2847853,13.8305569 C13.4574721,13.8356288 14.6302769,13.8333877 15.8031997,13.8333877 L16.0085555,13.8333877 C16.0126839,13.7785397 16.0192892,13.7292354 16.0194072,13.6799311 C16.0221201,12.5175062 16.0168122,11.3550812 16.0283716,10.1927742 C16.0381617,9.19984745 16.2411585,8.24490149 16.6943332,7.35742454 C17.4291792,5.91910796 18.6203846,5.07008363 20.176536,4.69664503 C21.1370258,4.46592933 22.1103724,4.49612525 23.083719,4.52962385 C23.6924734,4.5505015 24.3002843,4.60169302 24.9086849,4.63342232 C25.3710599,4.6577206 25.3712958,4.65382816 25.3712958,5.11561341 L25.3712958,8.5558251 L25.3712958,8.75622693 C25.2925033,8.7612989 25.2264497,8.76943764 25.1605141,8.76955559 C24.4464278,8.77049922 23.7321056,8.76295024 23.0182552,8.77356599 C22.7172396,8.77793024 22.4128034,8.7970386 22.1168598,8.84905579 C21.3679774,8.98069112 20.9155104,9.45262032 20.8046348,10.2023284 C20.7667719,10.4591117 20.7457763,10.7204951 20.7436532,10.9799913 C20.7363401,11.8661707 20.7409402,12.7522323 20.7409402,13.6384117 L20.7409402,13.8333877 L20.9478295,13.8333877 C22.3031073,13.8333877 23.6583851,13.8332698 25.0136629,13.8335057 C25.2244445,13.8335057 25.2240907,13.8342134 25.1968436,14.0439335 C25.0160219,15.4380178 24.8337848,16.8318661 24.6576813,18.2265402 C24.6414038,18.3548728 24.5919816,18.3863662 24.4700184,18.3860124 C23.2972136,18.381884 22.1242908,18.3836533 20.951486,18.3836533 L20.7530894,18.3836533 L20.7530894,29.9928049 L30,30 Z" id="Fill-1" fill="#2C2C2C" fill-rule="nonzero" mask="url(#mask-2)"></path>
                </g>
            </g>
        </g>
    </g>
</svg>