<?xml version="1.0" encoding="UTF-8"?>
<svg width="30px" height="30px" viewBox="0 0 30 30" version="1.1" xmlns="http://www.w3.org/2000/svg" xmlns:xlink="http://www.w3.org/1999/xlink">
    <!-- Generator: Sketch 60.1 (88133) - https://sketch.com -->
    <title>YouTube_social_red_square_(2017)</title>
    <desc>Created with Sketch.</desc>
    <g id="Symbols" stroke="none" stroke-width="1" fill="none" fill-rule="evenodd">
        <g id="footer" transform="translate(-826.000000, -568.000000)" fill-rule="nonzero">
            <g id="Group-4" transform="translate(746.000000, 568.000000)">
                <g id="YouTube_social_red_square_(2017)" transform="translate(80.000000, 0.000000)">
                    <rect id="rect4" fill="#FFFFFF" x="0" y="0" width="30" height="30"></rect>
                    <g id="g4167" transform="translate(4.328348, 7.373239)" fill="#2C2C2C">
                        <path d="M10.6654024,0.549028754 C10.6654024,0.549028754 4.34351736,0.549028754 2.75680843,0.961333461 C1.90722972,1.19871366 1.20766761,1.89828348 0.970285002,2.76035719 C0.557980296,4.34706722 0.557980296,7.63301327 0.557980296,7.63301327 C0.557980296,7.63301327 0.557980296,10.9314333 0.970285002,12.4931693 C1.20766761,13.3552314 1.89473562,14.0423074 2.75680843,14.2796934 C4.35601146,14.7044974 10.6654024,14.7044974 10.6654024,14.7044974 C10.6654024,14.7044974 16.9998205,14.7044974 18.5864965,14.2921934 C19.4485755,14.0548124 20.1356295,13.3802274 20.3605195,12.5056693 C20.785397,10.9314373 20.785397,7.64551327 20.785397,7.64551327 C20.785397,7.64551327 20.7978085,4.34706722 20.3605195,2.76035719 C20.1356295,1.89828348 19.4485755,1.21122376 18.5864965,0.986333461 C16.9998205,0.549028754 10.6654024,0.549028754 10.6654024,0.549028754 Z M8.65387933,4.59707522 L13.9138404,7.63301327 L8.65387933,10.6564513 L8.65387933,4.59707522 Z" id="path4156"></path>
                    </g>
                </g>
            </g>
        </g>
    </g>
</svg>