<?xml version="1.0" encoding="UTF-8"?>
<svg width="46px" height="31px" viewBox="0 0 46 31" version="1.1" xmlns="http://www.w3.org/2000/svg" xmlns:xlink="http://www.w3.org/1999/xlink">
    <!-- Generator: Sketch 60.1 (88133) - https://sketch.com -->
    <title>Group 3</title>
    <desc>Created with Sketch.</desc>
    <defs>
        <polygon id="path-1" points="0 0.114285714 46 0.114285714 46 30.1142857 0 30.1142857"></polygon>
    </defs>
    <g id="Symbols" stroke="none" stroke-width="1" fill="none" fill-rule="evenodd">
        <g id="footer" transform="translate(-1019.000000, -114.000000)">
            <g id="Group-3" transform="translate(1019.000000, 114.000000)">
                <mask id="mask-2" fill="white">
                    <use xlink:href="#path-1"></use>
                </mask>
                <g id="Clip-2"></g>
                <path d="M43.5063972,28.5636898 C43.5176318,28.7470532 43.4396506,28.577541 43.5063972,28.5636898 M43.5070581,28.4819018 C43.5070581,28.50037 43.5037538,28.520817 43.5057364,28.5386257 C43.5063972,28.549179 43.5057364,28.5537961 43.5063972,28.5623706 C43.4515461,28.5702856 43.4607981,28.5373066 43.5070581,28.4819018 M37.6597909,28.3658156 C28.0403491,28.7153934 18.3865427,28.7299041 8.76181399,28.7259467 C6.76073747,28.7252871 4.74908723,28.7529895 2.74933243,28.6382224 C6.51093334,25.328446 17.1408263,17.83297 18.7182931,16.7248743 C19.0170007,16.9517701 19.3130649,17.1826234 19.6124333,17.4082 C20.1616059,17.8224167 20.7391954,18.3810817 21.3683317,18.6759143 C22.5089718,19.2075364 24.2992348,17.8382467 25.2105573,17.3151991 C25.6665489,17.0540051 26.1179146,16.7855557 26.5686194,16.5151276 C26.616862,16.5672345 26.6743566,16.6107668 26.7444075,16.6384692 C27.9101602,17.1034737 36.0155774,22.4605888 43.3828169,28.0201952 C41.5707456,28.2780913 39.5366262,28.2985383 37.6597909,28.3658156 M2.19685556,27.8058315 C2.15323896,26.2828594 2.35347878,24.7433979 2.43079911,23.2237238 C2.61980436,19.4937944 2.44005112,15.7559501 2.30325361,12.0266804 C2.20148156,9.25776026 2.08450978,6.4901593 1.96423371,3.72255833 C6.5036639,7.27835833 11.048381,10.8269029 15.6135846,14.3490643 C16.3715881,14.9334529 17.1342177,15.5119052 17.893543,16.0936555 C15.6413406,17.6779685 5.95713475,24.527715 2.19685556,27.8058315 M6.01925535,1.61717647 C6.37876184,1.5888145 6.73959003,1.58089953 7.09975737,1.57232498 C8.76776171,1.53143097 10.4364269,1.52417558 12.1044312,1.51494145 C17.3655178,1.48394115 22.6259436,1.4892178 27.8870301,1.50174983 C32.3927566,1.51164355 36.8984831,1.52153726 41.4035487,1.57298456 C41.8046892,1.57760162 42.2051688,1.58419743 42.6063093,1.59145282 C39.7679263,5.51793722 35.9494917,8.64237139 32.0226764,11.4238236 C29.8808372,12.9408594 27.6841469,14.3840221 25.4365705,15.7414394 C24.6574195,16.2117205 23.8723208,16.6787037 23.0680572,17.1074312 C22.8764085,17.2096662 22.6814556,17.3072841 22.4858418,17.4022638 C22.4375992,17.3719231 22.3880349,17.3415823 22.3450791,17.3112416 C21.955834,17.0315794 21.5725367,16.7420234 21.1885785,16.4537866 C19.9408795,15.5145436 18.7030934,14.5614493 17.466629,13.6083551 C14.243627,11.1243739 11.0325204,8.62390313 7.82537891,6.12013448 C6.02189878,4.71324867 4.22106209,3.30438411 2.42088625,1.8942004 C2.65747324,1.87309382 2.89538194,1.85528513 3.13196892,1.83747645 C4.0948383,1.76822047 5.05704683,1.69236868 6.01925535,1.61717647 M43.5149884,2.93040181 C43.7628099,4.43160767 43.8526866,5.98953748 44.0483004,7.48150921 C44.1480899,8.23804837 44.1447856,9.01173663 44.152055,9.77355244 C44.2009585,15.1240717 43.9300069,20.4891018 43.660377,25.830387 C43.641873,26.201731 43.618743,26.5717558 43.5989173,26.9430998 C36.9943074,21.9843715 29.6587891,17.0645584 27.5334714,15.926122 C28.9397761,15.0574541 30.3249335,14.1551476 31.6889434,13.2257983 C36.0023603,10.2867063 40.247048,7.03299428 43.5149884,2.93040181 M45.8445111,6.72958712 C45.7017659,5.66502374 45.5550555,4.60375826 45.4387446,3.53523739 C45.3468854,2.68899524 45.2973211,1.80713574 45.0752729,0.982000177 C44.9120411,0.374526276 44.629855,0.247886766 44.0635001,0.225461019 C40.3990452,0.0757361812 36.7141038,0.15026881 33.0483272,0.136417613 C27.3946913,0.115311028 21.7397336,0.106076897 16.0867586,0.123225998 C12.6093264,0.133119709 9.12792905,0.0882682161 5.65974887,0.343525979 C4.09153402,0.459612197 2.08847492,0.296695744 0.676883298,1.10402262 C0.468052327,1.22340674 0.125067283,1.49911151 0.0569989597,1.78800789 C-0.0163562232,1.91860489 -0.0242865132,2.05777643 0.0649292497,2.19430966 C0.315394243,7.65102148 0.553963802,13.1110312 0.685474445,18.5730197 C0.738343046,20.7667853 0.694065593,22.9513169 0.557928947,25.1424443 C0.478626047,26.4240097 0.180579313,27.9100452 0.458139464,29.1830361 C0.614762692,29.8953834 1.07405866,29.9593627 1.70649929,30.006193 C2.52464088,30.0662148 3.34873018,30.0701723 4.1695152,30.0820447 C9.86544602,30.1631732 15.5660028,30.072151 21.2625945,30.0174058 C25.4471442,29.977831 29.6310331,29.9468307 33.8142611,29.8379999 C36.4709082,29.7680843 39.1361466,29.704105 41.7848634,29.4791879 C43.0100932,29.3749741 45.1790276,29.3901445 45.3131816,27.7754908 C45.7255567,22.8226986 45.8174159,17.8105443 45.9205097,12.843901 C45.9628046,10.8321796 46.1114975,8.73207438 45.8445111,6.72958712" id="Fill-1" fill="#FFFFFF" mask="url(#mask-2)"></path>
            </g>
        </g>
    </g>
</svg>