<?xml version="1.0" encoding="UTF-8"?>
<svg width="91px" height="13px" viewBox="0 0 91 13" version="1.1" xmlns="http://www.w3.org/2000/svg" xmlns:xlink="http://www.w3.org/1999/xlink">
    <!-- Generator: Sketch 60.1 (88133) - https://sketch.com -->
    <title>Group 5</title>
    <desc>Created with Sketch.</desc>
    <defs>
        <polygon id="path-1" points="0.116922353 0.194133333 0.399275294 0.194133333 0.399275294 0.354872424 0.116922353 0.354872424"></polygon>
        <polygon id="path-3" points="0.0641505882 0.194133333 0.346503529 0.194133333 0.346503529 0.424115152 0.0641505882 0.424115152"></polygon>
        <polygon id="path-5" points="0.181807059 0.194133333 0.46416 0.194133333 0.46416 0.424087576 0.181807059 0.424087576"></polygon>
        <polygon id="path-7" points="0.265157647 0.194133333 9.53395765 0.194133333 9.53395765 7.77338545 0.265157647 7.77338545"></polygon>
        <polygon id="path-9" points="0.0855529412 0.200889394 0.248470588 0.200889394 0.248470588 0.47664697 0.0855529412 0.47664697"></polygon>
        <polygon id="path-11" points="0.0817694118 0.178608182 0.248470588 0.178608182 0.248470588 0.454365758 0.0817694118 0.454365758"></polygon>
        <polygon id="path-13" points="0.0101929412 0.12668303 0.292545882 0.12668303 0.292545882 0.275757576 0.0101929412 0.275757576"></polygon>
    </defs>
    <g id="Page-1-Jakub" stroke="none" stroke-width="1" fill="none" fill-rule="evenodd">
        <g id="Home" transform="translate(-305.000000, -2145.000000)">
            <g id="Group-5" transform="translate(305.000000, 2145.000000)">
                <path d="M22.8823242,10.1269531 C23.6271159,10.1269531 24.2798665,10.0158691 24.8405762,9.79370117 C25.4012858,9.5715332 25.8382161,9.23616536 26.1513672,8.78759766 L26.1513672,8.78759766 L26.1513672,5.39794922 L22.7998047,5.39794922 L22.7998047,6.38818359 L24.9389648,6.38818359 L24.9389648,8.46386719 C24.714681,8.70507812 24.4311523,8.87646484 24.0883789,8.97802734 C23.7456055,9.07958984 23.3457031,9.13037109 22.8886719,9.13037109 C22.0804036,9.13037109 21.4392904,8.82462565 20.965332,8.21313477 C20.4913737,7.60164388 20.2543945,6.77750651 20.2543945,5.74072266 L20.2543945,5.74072266 L20.2543945,4.98535156 C20.2586263,3.89778646 20.4712728,3.06730143 20.892334,2.49389648 C21.3133952,1.92049154 21.9322917,1.63378906 22.7490234,1.63378906 C23.976237,1.63378906 24.7041016,2.24527995 24.9326172,3.46826172 L24.9326172,3.46826172 L26.1513672,3.46826172 C26.0201823,2.56266276 25.6604818,1.86336263 25.0722656,1.37036133 C24.4840495,0.877360026 23.7075195,0.630859375 22.7426758,0.630859375 C21.5662435,0.630859375 20.6532389,1.01383464 20.0036621,1.77978516 C19.3540853,2.54573568 19.0292969,3.62483724 19.0292969,5.01708984 L19.0292969,5.01708984 L19.0292969,5.82324219 C19.0377604,6.68229167 19.2017415,7.43766276 19.5212402,8.08935547 C19.8407389,8.74104818 20.2924805,9.24357096 20.8764648,9.59692383 C21.4604492,9.95027669 22.129069,10.1269531 22.8823242,10.1269531 Z M30.8168945,10.1269531 C31.4347331,10.1269531 31.9816895,9.97884115 32.4577637,9.68261719 C32.9338379,9.38639323 33.2998861,8.97273763 33.5559082,8.44165039 C33.8119303,7.91056315 33.9399414,7.31070964 33.9399414,6.64208984 L33.9399414,6.64208984 L33.9399414,6.55957031 C33.9399414,5.48470052 33.651123,4.62353516 33.0734863,3.97607422 C32.4958496,3.32861328 31.7394206,3.00488281 30.8041992,3.00488281 C30.199056,3.00488281 29.6605632,3.15087891 29.1887207,3.44287109 C28.7168783,3.73486328 28.3487142,4.14957682 28.0842285,4.68701172 C27.8197428,5.22444661 27.6875,5.82958984 27.6875,6.50244141 L27.6875,6.50244141 L27.6875,6.58496094 C27.6875,7.65136719 27.9763184,8.50830078 28.5539551,9.15576172 C29.1315918,9.80322266 29.8859049,10.1269531 30.8168945,10.1269531 Z M30.8168945,9.16845703 C30.2244466,9.16845703 29.7515462,8.93782552 29.3981934,8.4765625 C29.0448405,8.01529948 28.8681641,7.40380859 28.8681641,6.64208984 C28.8681641,5.78304036 29.0458984,5.12288411 29.4013672,4.66162109 C29.7568359,4.20035807 30.2244466,3.96972656 30.8041992,3.96972656 C31.3966471,3.96972656 31.8716634,4.2035319 32.229248,4.67114258 C32.5868327,5.13875326 32.765625,5.7491862 32.765625,6.50244141 C32.765625,7.3445638 32.5900065,7.99943034 32.2387695,8.46704102 C31.8875326,8.93465169 31.4135742,9.16845703 30.8168945,9.16845703 Z M38.230957,10.1269531 C38.8487956,10.1269531 39.395752,9.97884115 39.8718262,9.68261719 C40.3479004,9.38639323 40.7139486,8.97273763 40.9699707,8.44165039 C41.2259928,7.91056315 41.3540039,7.31070964 41.3540039,6.64208984 L41.3540039,6.64208984 L41.3540039,6.55957031 C41.3540039,5.48470052 41.0651855,4.62353516 40.4875488,3.97607422 C39.9099121,3.32861328 39.1534831,3.00488281 38.2182617,3.00488281 C37.6131185,3.00488281 37.0746257,3.15087891 36.6027832,3.44287109 C36.1309408,3.73486328 35.7627767,4.14957682 35.498291,4.68701172 C35.2338053,5.22444661 35.1015625,5.82958984 35.1015625,6.50244141 L35.1015625,6.50244141 L35.1015625,6.58496094 C35.1015625,7.65136719 35.3903809,8.50830078 35.9680176,9.15576172 C36.5456543,9.80322266 37.2999674,10.1269531 38.230957,10.1269531 Z M38.230957,9.16845703 C37.6385091,9.16845703 37.1656087,8.93782552 36.8122559,8.4765625 C36.458903,8.01529948 36.2822266,7.40380859 36.2822266,6.64208984 C36.2822266,5.78304036 36.4599609,5.12288411 36.8154297,4.66162109 C37.1708984,4.20035807 37.6385091,3.96972656 38.2182617,3.96972656 C38.8107096,3.96972656 39.2857259,4.2035319 39.6433105,4.67114258 C40.0008952,5.13875326 40.1796875,5.7491862 40.1796875,6.50244141 C40.1796875,7.3445638 40.004069,7.99943034 39.652832,8.46704102 C39.3015951,8.93465169 38.8276367,9.16845703 38.230957,9.16845703 Z M45.4355469,12.7041016 C46.3242188,12.7041016 47.0319824,12.4480794 47.5588379,11.9360352 C48.0856934,11.4239909 48.3491211,10.7236328 48.3491211,9.83496094 L48.3491211,9.83496094 L48.3491211,3.13183594 L47.2763672,3.13183594 L47.2192383,3.89355469 C46.7495117,3.30110677 46.0957031,3.00488281 45.2578125,3.00488281 C44.4410807,3.00488281 43.7851562,3.32120768 43.2900391,3.95385742 C42.7949219,4.58650716 42.5473633,5.43815104 42.5473633,6.50878906 C42.5473633,7.62597656 42.7959798,8.50830078 43.2932129,9.15576172 C43.790446,9.80322266 44.4410807,10.1269531 45.2451172,10.1269531 C46.0576172,10.1269531 46.6987305,9.85611979 47.168457,9.31445312 L47.168457,9.31445312 L47.168457,9.90478516 C47.168457,10.4887695 47.0087077,10.941569 46.689209,11.2631836 C46.3697103,11.5847982 45.9243164,11.7456055 45.3530273,11.7456055 C44.6251628,11.7456055 44.0094401,11.4345703 43.5058594,10.8125 L43.5058594,10.8125 L42.8964844,11.5170898 C43.1461589,11.8852539 43.5079753,12.1751302 43.9819336,12.3867188 C44.4558919,12.5983073 44.9404297,12.7041016 45.4355469,12.7041016 Z M45.5371094,9.13037109 C44.9658203,9.13037109 44.5214844,8.90926107 44.2041016,8.46704102 C43.8867188,8.02482096 43.7280273,7.41650391 43.7280273,6.64208984 C43.7280273,5.77034505 43.8888346,5.11230469 44.2104492,4.66796875 C44.5320638,4.22363281 44.9785156,4.00146484 45.5498047,4.00146484 C46.2692057,4.00146484 46.8087565,4.32942708 47.168457,4.98535156 L47.168457,4.98535156 L47.168457,8.12109375 C46.8214518,8.79394531 46.2776693,9.13037109 45.5371094,9.13037109 Z M51.3959961,10 L51.3959961,0.25 L50.2216797,0.25 L50.2216797,10 L51.3959961,10 Z M56.125,10.1269531 C57.2760417,10.1269531 58.1393229,9.68473307 58.7148438,8.80029297 L58.7148438,8.80029297 L57.9975586,8.24169922 C57.7817383,8.52099609 57.5299479,8.74527995 57.2421875,8.91455078 C56.9544271,9.08382161 56.6031901,9.16845703 56.1884766,9.16845703 C55.6044922,9.16845703 55.1231283,8.96004232 54.7443848,8.54321289 C54.3656413,8.12638346 54.167806,7.57942708 54.1508789,6.90234375 L54.1508789,6.90234375 L58.8037109,6.90234375 L58.8037109,6.41357422 C58.8037109,5.31754557 58.5561523,4.47542318 58.0610352,3.88720703 C57.565918,3.29899089 56.8719076,3.00488281 55.9790039,3.00488281 C55.4331055,3.00488281 54.9263509,3.15616862 54.4587402,3.45874023 C53.9911296,3.76131185 53.6271973,4.18025716 53.3669434,4.71557617 C53.1066895,5.25089518 52.9765625,5.85921224 52.9765625,6.54052734 L52.9765625,6.54052734 L52.9765625,6.75634766 C52.9765625,7.7804362 53.2685547,8.59822591 53.8525391,9.2097168 C54.4365234,9.82120768 55.1940104,10.1269531 56.125,10.1269531 Z M57.6293945,5.9375 L54.1889648,5.9375 C54.2651367,5.31542969 54.4640299,4.83194987 54.7856445,4.48706055 C55.1072591,4.14217122 55.5050456,3.96972656 55.9790039,3.96972656 C56.4698893,3.96972656 56.8592122,4.13370768 57.1469727,4.46166992 C57.4347331,4.78963216 57.5955404,5.25195312 57.6293945,5.84863281 L57.6293945,5.84863281 L57.6293945,5.9375 Z M65.7924805,10.1269531 C66.6303711,10.1269531 67.2841797,9.83919271 67.7539062,9.26367188 L67.7539062,9.26367188 L67.8110352,10 L68.8901367,10 L68.8901367,0.25 L67.7158203,0.25 L67.7158203,3.83007812 C67.2460938,3.27994792 66.6092122,3.00488281 65.8051758,3.00488281 C64.9969076,3.00488281 64.343099,3.32543945 63.84375,3.96655273 C63.344401,4.60766602 63.0947266,5.45507812 63.0947266,6.50878906 L63.0947266,6.50878906 L63.0947266,6.59765625 C63.0947266,7.64713542 63.345459,8.49772135 63.8469238,9.14941406 C64.3483887,9.80110677 64.9969076,10.1269531 65.7924805,10.1269531 Z M66.0844727,9.13037109 C65.5174154,9.13037109 65.0730794,8.91031901 64.7514648,8.47021484 C64.4298503,8.03011068 64.269043,7.42073568 64.269043,6.64208984 C64.269043,5.77034505 64.4298503,5.11230469 64.7514648,4.66796875 C65.0730794,4.22363281 65.5216471,4.00146484 66.097168,4.00146484 C66.8250326,4.00146484 67.3645833,4.32519531 67.7158203,4.97265625 L67.7158203,4.97265625 L67.7158203,8.12744141 C67.3730469,8.7960612 66.8292643,9.13037109 66.0844727,9.13037109 Z M73.5302734,10.1269531 C74.148112,10.1269531 74.6950684,9.97884115 75.1711426,9.68261719 C75.6472168,9.38639323 76.013265,8.97273763 76.2692871,8.44165039 C76.5253092,7.91056315 76.6533203,7.31070964 76.6533203,6.64208984 L76.6533203,6.64208984 L76.6533203,6.55957031 C76.6533203,5.48470052 76.364502,4.62353516 75.7868652,3.97607422 C75.2092285,3.32861328 74.4527995,3.00488281 73.5175781,3.00488281 C72.9124349,3.00488281 72.3739421,3.15087891 71.9020996,3.44287109 C71.4302572,3.73486328 71.0620931,4.14957682 70.7976074,4.68701172 C70.5331217,5.22444661 70.4008789,5.82958984 70.4008789,6.50244141 L70.4008789,6.50244141 L70.4008789,6.58496094 C70.4008789,7.65136719 70.6896973,8.50830078 71.267334,9.15576172 C71.8449707,9.80322266 72.5992839,10.1269531 73.5302734,10.1269531 Z M73.5302734,9.16845703 C72.9378255,9.16845703 72.4649251,8.93782552 72.1115723,8.4765625 C71.7582194,8.01529948 71.581543,7.40380859 71.581543,6.64208984 C71.581543,5.78304036 71.7592773,5.12288411 72.1147461,4.66162109 C72.4702148,4.20035807 72.9378255,3.96972656 73.5175781,3.96972656 C74.110026,3.96972656 74.5850423,4.2035319 74.942627,4.67114258 C75.3002116,5.13875326 75.4790039,5.7491862 75.4790039,6.50244141 C75.4790039,7.3445638 75.3033854,7.99943034 74.9521484,8.46704102 C74.6009115,8.93465169 74.1269531,9.16845703 73.5302734,9.16845703 Z M80.8808594,10.1269531 C81.3463542,10.1269531 81.7875163,10.0211589 82.2043457,9.80957031 C82.6211751,9.59798177 82.9544271,9.31445312 83.2041016,8.95898438 C83.453776,8.60351562 83.5891927,8.22900391 83.6103516,7.83544922 L83.6103516,7.83544922 L82.4995117,7.83544922 C82.4656576,8.21630859 82.2921549,8.53369141 81.9790039,8.78759766 C81.6658529,9.04150391 81.2998047,9.16845703 80.8808594,9.16845703 C80.2757161,9.16845703 79.8102214,8.9547526 79.484375,8.52734375 C79.1585286,8.0999349 78.9956055,7.4905599 78.9956055,6.69921875 L78.9956055,6.69921875 L78.9956055,6.47705078 C78.9956055,5.66455078 79.1595866,5.04353841 79.4875488,4.61401367 C79.8155111,4.18448893 80.277832,3.96972656 80.8745117,3.96972656 C81.3188477,3.96972656 81.6923014,4.11254883 81.994873,4.39819336 C82.2974447,4.68383789 82.4656576,5.04882812 82.4995117,5.49316406 L82.4995117,5.49316406 L83.6103516,5.49316406 C83.5764974,4.75683594 83.3046061,4.15804036 82.7946777,3.69677734 C82.2847493,3.23551432 81.644694,3.00488281 80.8745117,3.00488281 C80.2482096,3.00488281 79.705485,3.14876302 79.2463379,3.43652344 C78.7871908,3.72428385 78.4348958,4.12841797 78.1894531,4.64892578 C77.9440104,5.16943359 77.8212891,5.7639974 77.8212891,6.43261719 L77.8212891,6.43261719 L77.8212891,6.62939453 C77.8212891,7.71272786 78.0974121,8.56648763 78.6496582,9.19067383 C79.2019043,9.81486003 79.945638,10.1269531 80.8808594,10.1269531 Z M87.4570312,10.1269531 C88.2399089,10.1269531 88.8767904,9.94181315 89.3676758,9.5715332 C89.8585612,9.20125326 90.1040039,8.7093099 90.1040039,8.09570312 C90.1040039,7.72753906 90.0161947,7.41544596 89.8405762,7.15942383 C89.6649577,6.90340169 89.3951823,6.68440755 89.03125,6.50244141 C88.6673177,6.32047526 88.1923014,6.16389974 87.6062012,6.03271484 C87.0201009,5.90152995 86.6149089,5.7639974 86.390625,5.62011719 C86.1663411,5.47623698 86.0541992,5.26253255 86.0541992,4.97900391 C86.0541992,4.67854818 86.1748047,4.43522135 86.4160156,4.24902344 C86.6572266,4.06282552 86.9915365,3.96972656 87.4189453,3.96972656 C87.8336589,3.96972656 88.1774902,4.08610026 88.4504395,4.31884766 C88.7233887,4.55159505 88.8598633,4.82877604 88.8598633,5.15039062 L88.8598633,5.15039062 L90.0405273,5.15039062 C90.0405273,4.52408854 89.7982585,4.00992839 89.3137207,3.60791016 C88.8291829,3.20589193 88.1975911,3.00488281 87.4189453,3.00488281 C86.6783854,3.00488281 86.0700684,3.19954427 85.5939941,3.58886719 C85.1179199,3.9781901 84.8798828,4.45426432 84.8798828,5.01708984 C84.8798828,5.35563151 84.9634603,5.6476237 85.1306152,5.89306641 C85.2977702,6.13850911 85.5559082,6.35009766 85.9050293,6.52783203 C86.2541504,6.70556641 86.7259928,6.85791016 87.3205566,6.98486328 C87.9151204,7.11181641 88.3319499,7.26310221 88.5710449,7.4387207 C88.81014,7.61433919 88.9296875,7.86083984 88.9296875,8.17822266 C88.9296875,8.47867839 88.7953288,8.71883138 88.5266113,8.89868164 C88.2578939,9.0785319 87.9013672,9.16845703 87.4570312,9.16845703 C86.9746094,9.16845703 86.5863444,9.05314128 86.2922363,8.82250977 C85.9981283,8.59187826 85.8404948,8.27978516 85.8193359,7.88623047 L85.8193359,7.88623047 L84.6450195,7.88623047 C84.6450195,8.29248047 84.7645671,8.67016602 85.0036621,9.01928711 C85.2427572,9.3684082 85.5738932,9.64029948 85.9970703,9.83496094 C86.4202474,10.0296224 86.906901,10.1269531 87.4570312,10.1269531 Z" id="Googledocs" fill="#7C7C7C" fill-rule="nonzero"></path>
                <g id="Group-226">
                    <polygon id="Fill-1" fill="#0BA25E" points="4.4805 0.477 4.4735 0.525 4.5265 0.523 4.5225 0.475"></polygon>
                    <g id="Group-225">
                        <path d="M4.44237176,0.283478788 C4.45310118,0.268587879 4.47343059,0.239081818 4.48387765,0.224466667 L4.50279529,0.221433333 C4.51691294,0.388542424 4.56717176,0.549860606 4.60500706,0.712557576 C4.76736,1.4196 4.93168941,2.12609091 5.10251294,2.83092727 C5.21460706,3.3143303 5.33968941,3.79525152 5.44246588,4.28058485 C5.53140706,4.58088485 5.57912471,4.89083636 5.66552471,5.19168788 C5.72086588,5.47213333 5.80811294,5.74596061 5.85498353,6.02833636 C5.83606588,6.05894545 5.81714824,6.09010606 5.79794824,6.12099091 C5.79343059,6.12816061 5.78354824,6.14305152 5.77903059,6.15022121 L5.77197176,6.16207879 C5.77084235,6.16428485 5.76858353,6.16869697 5.76717176,6.17090303 C5.75672471,6.1899303 5.73554824,6.22770909 5.72510118,6.24646061 C5.72312471,6.2497697 5.71888941,6.25666364 5.71691294,6.25997273 L5.69771294,6.29306364 C5.69517176,6.2972 5.69065412,6.30464545 5.68867765,6.30878182 L5.66608941,6.34711212 C5.66524235,6.34931818 5.66270118,6.35317879 5.66128941,6.35538485 L5.63361882,6.40309091 C5.63107765,6.40695152 5.62627765,6.4155 5.62373647,6.41936061 C5.62091294,6.42404848 5.61554824,6.43259697 5.61300706,6.43728485 L5.58561882,6.48306061 C5.58364235,6.48664545 5.57912471,6.49381515 5.57714824,6.4974 L5.56020706,6.52497576 C5.55766588,6.52993939 5.55173647,6.53959091 5.54891294,6.54427879 C5.53818353,6.56247879 5.51672471,6.59887879 5.50599529,6.61735455 C5.50401882,6.62066364 5.50006588,6.62700606 5.49808941,6.63059091 L5.48114824,6.65844242 C5.47832471,6.6631303 5.47239529,6.67250606 5.46957176,6.67774545 C5.45968941,6.69484242 5.43907765,6.72903636 5.42919529,6.74613333 C5.42665412,6.74999394 5.42213647,6.75826667 5.41959529,6.76212727 L5.39926588,6.79797576 C5.39757176,6.80073333 5.39361882,6.80762727 5.39192471,6.81066061 L5.37103059,6.84623333 C5.36877176,6.84981818 5.36453647,6.85726364 5.36227765,6.86112424 C5.35154824,6.87849697 5.33065412,6.91324242 5.31992471,6.93116667 C5.31766588,6.93530303 5.31286588,6.9433 5.31032471,6.94771212 L5.29112471,6.98135455 C5.28914824,6.98438788 5.28576,6.99045455 5.28406588,6.99348788 L5.26204235,7.03099091 C5.26006588,7.03457576 5.25583059,7.04091818 5.25413647,7.04422727 C5.24284235,7.06325455 5.22025412,7.10103333 5.20896,7.12006061 C5.20698353,7.1233697 5.20274824,7.13026364 5.20077176,7.13357273 L5.18439529,7.1597697 C5.18185412,7.16473333 5.17620706,7.17383333 5.17338353,7.17852121 C5.16321882,7.19589394 5.14288941,7.23063939 5.13244235,7.24773636 C5.13103059,7.2507697 5.12707765,7.25711212 5.12566588,7.2598697 L5.10336,7.29847576 C5.10166588,7.30150909 5.09856,7.30702424 5.09686588,7.30978182 L5.07427765,7.34866364 C5.07230118,7.35142121 5.06863059,7.35803939 5.06665412,7.36079697 C5.05620706,7.3781697 5.03474824,7.41236364 5.02430118,7.43001212 C5.02119529,7.43442424 5.01583059,7.4438 5.01300706,7.44848788 L4.99691294,7.47744242 C4.99493647,7.48130303 4.99070118,7.48847273 4.98900706,7.49205758 L4.96105412,7.53893636 C4.95907765,7.54307273 4.95399529,7.55079394 4.95201882,7.5549303 C4.94947765,7.55851515 4.94524235,7.56623636 4.94298353,7.56982121 C4.89752471,7.64510303 4.85601882,7.72259091 4.80576,7.79483939 C4.51804235,8.25287273 4.25347765,8.72524545 3.97507765,9.18879394 C3.52303059,9.95291818 3.07154824,10.7167667 2.61950118,11.4808909 C2.55173647,11.5997424 2.47437176,11.7136303 2.41620706,11.837997 C2.41310118,11.8421333 2.40717176,11.8506818 2.40434824,11.8545424 C2.29592471,11.7023242 2.21234824,11.5341121 2.11324235,11.3758273 C1.66119529,10.6114273 1.20886588,9.84702727 0.757101176,9.08235152 C0.506089412,8.6521697 0.244348235,8.22722727 0.000112941176,7.79318485 C0.967736471,6.16207879 1.93112471,4.52821515 2.89705412,2.89600606 C2.89790118,2.89435152 2.89987765,2.89159394 2.90072471,2.88993939 L2.92698353,2.84581818 C2.92811294,2.84388788 2.93037176,2.84002727 2.93150118,2.83837273 L2.95832471,2.7937 C2.96086588,2.78983939 2.96566588,2.78129091 2.96848941,2.7774303 C2.97103059,2.77274242 2.97639529,2.76336667 2.97921882,2.75867879 L3.00604235,2.71235152 C3.00773647,2.70904242 3.01168941,2.7027 3.01338353,2.69966667 L3.03343059,2.66850606 C3.03681882,2.66354242 3.04387765,2.65306364 3.04754824,2.64782424 C3.05714824,2.63348485 3.07691294,2.60480606 3.08679529,2.59074242 C3.08792471,2.58605455 3.08990118,2.57667879 3.09103059,2.57226667 L3.11446588,2.52814545 C3.11559529,2.52621515 3.11785412,2.5226303 3.11870118,2.5207 L3.14580706,2.47657879 C3.14834824,2.47216667 3.15399529,2.46334242 3.15653647,2.4589303 C3.15964235,2.45396667 3.16557176,2.44348788 3.16867765,2.43824848 L3.19126588,2.39936667 C3.19380706,2.3952303 3.19860706,2.38695758 3.20114824,2.38309697 L3.22006588,2.35083333 C3.22232471,2.34724848 3.22656,2.34007879 3.22881882,2.33621818 C3.23926588,2.3185697 3.26016,2.28299697 3.27117176,2.26534848 C3.27314824,2.26176364 3.27766588,2.25431818 3.27964235,2.25073333 L3.29940706,2.21571212 C3.30110118,2.21295455 3.30420706,2.20716364 3.30590118,2.20468182 L3.33187765,2.16028485 C3.33498353,2.15504545 3.34176,2.14429091 3.34543059,2.13905152 L3.36293647,2.1131303 C3.36660706,2.10789091 3.37394824,2.09768788 3.37761882,2.09244848 C3.38100706,2.08720909 3.38778353,2.0767303 3.39117176,2.07149091 L3.40585412,2.04391515 C3.41065412,2.03371212 3.42053647,2.0130303 3.42533647,2.00282727 L3.44030118,1.98269697 C3.44312471,1.97883636 3.44820706,1.97166667 3.45074824,1.96808182 C3.46091294,1.95980909 3.48124235,1.94298788 3.49112471,1.93443939 L3.48943059,1.90355455 C3.49084235,1.8999697 3.49479529,1.89252424 3.49648941,1.88893939 L3.51936,1.84426667 C3.52133647,1.84123333 3.52500706,1.83461515 3.52698353,1.83130606 L3.54731294,1.79931818 C3.55098353,1.79407879 3.55832471,1.78332424 3.56199529,1.77808485 C3.57131294,1.7634697 3.58994824,1.73451515 3.59926588,1.7199 C3.60180706,1.71466061 3.60688941,1.70418182 3.60943059,1.69894242 L3.62383059,1.66860909 C3.62806588,1.66088788 3.63710118,1.64489394 3.64190118,1.63662121 L3.65968941,1.61180303 C3.66336,1.60683939 3.67098353,1.59663636 3.67465412,1.59167273 C3.67804235,1.58643333 3.68481882,1.57595455 3.68792471,1.57043939 L3.70119529,1.54341515 C3.70430118,1.53734848 3.71051294,1.52493939 3.71333647,1.51887273 L3.73648941,1.47502727 C3.74016,1.46978788 3.74693647,1.45875758 3.75004235,1.45324242 L3.76783059,1.42732121 C3.77178353,1.42208182 3.77912471,1.41215455 3.78307765,1.40691515 C3.78646588,1.40167576 3.79324235,1.39092121 3.79634824,1.38568182 L3.81018353,1.35810606 C3.81441882,1.35038485 3.82232471,1.33521818 3.82599529,1.32777273 L3.84434824,1.29826667 C3.84773647,1.29330303 3.85423059,1.2831 3.85761882,1.27813636 C3.86721882,1.26352121 3.88698353,1.23373939 3.89686588,1.2194 C3.89799529,1.21471212 3.90053647,1.20588788 3.90138353,1.20147576 L3.92510118,1.1576303 C3.92594824,1.15597576 3.92792471,1.15239091 3.92905412,1.15046061 L3.95616,1.10551212 C3.95898353,1.10082424 3.96406588,1.09227576 3.96660706,1.08786364 C3.96943059,1.08345152 3.97451294,1.07462727 3.97733647,1.07049091 L4.00416,1.02416364 C4.00528941,1.02250909 4.00726588,1.01864848 4.00839529,1.01644242 L4.03380706,0.973424242 C4.03521882,0.971769697 4.03747765,0.967633333 4.03860706,0.96570303 L4.06599529,0.921030303 C4.06853647,0.916618182 4.07333647,0.908621212 4.07587765,0.904484848 C4.07841882,0.900072727 4.08378353,0.89069697 4.08660706,0.886009091 L4.11258353,0.841336364 C4.11399529,0.838578788 4.11738353,0.833063636 4.11879529,0.830306061 L4.14081882,0.795836364 C4.14420706,0.790872727 4.15126588,0.780669697 4.15465412,0.775430303 C4.16453647,0.761090909 4.18401882,0.731860606 4.19390118,0.717521212 C4.19474824,0.713109091 4.19700706,0.704009091 4.19813647,0.69959697 L4.22100706,0.656578788 C4.22298353,0.653545455 4.22693647,0.646927273 4.22891294,0.643342424 L4.24924235,0.611906061 C4.25319529,0.606942424 4.25997176,0.596739394 4.26392471,0.5915 C4.27324235,0.576609091 4.29216,0.547378788 4.30176,0.532763636 C4.30317176,0.528351515 4.30543059,0.51980303 4.30684235,0.515666667 L4.33056,0.472372727 C4.33168941,0.470166667 4.33394824,0.466581818 4.33507765,0.464375758 L4.36246588,0.418875758 C4.36472471,0.415015152 4.36952471,0.407018182 4.37178353,0.403157576 C4.37432471,0.398745455 4.37912471,0.39019697 4.38166588,0.386060606 L4.40877176,0.339181818 C4.40990118,0.337251515 4.41216,0.333390909 4.41328941,0.331460606 L4.43898353,0.288993939 C4.43983059,0.287615152 4.44152471,0.284581818 4.44237176,0.283478788" id="Fill-2" fill="#0BA25E"></path>
                        <g id="Group-6" transform="translate(4.235294, 0.000000)">
                            <mask id="mask-2" fill="white">
                                <use xlink:href="#path-1"></use>
                            </mask>
                            <g id="Clip-5"></g>
                            <polygon id="Fill-4" fill="#089156" mask="url(#mask-2)" points="0.251181176 0.210099697 0.266145882 0.209548182 0.267557647 0.221405758 0.24864 0.224439091"></polygon>
                        </g>
                        <path d="M4.50290824,0.221405758 C4.56050824,0.294205758 4.60314353,0.376381515 4.65001412,0.455799697 C5.40050824,1.72373303 6.15015529,2.99194212 6.89895529,4.26097848 C6.55250824,4.85082394 6.20295529,5.43901485 5.85509647,6.02830879 C5.80822588,5.74593303 5.72097882,5.47238152 5.66535529,5.1916603 C5.57923765,4.89080879 5.53152,4.58085727 5.44229647,4.28055727 C5.33980235,3.79522394 5.21472,3.31430273 5.10262588,2.8308997 C4.93180235,2.12606333 4.76747294,1.41957242 4.60483765,0.71253 C4.56728471,0.54983303 4.51702588,0.388514848 4.50290824,0.221405758" id="Fill-7" fill="#089156"></path>
                        <g id="Group-11" transform="translate(4.235294, 0.000000)">
                            <mask id="mask-4" fill="white">
                                <use xlink:href="#path-3"></use>
                            </mask>
                            <g id="Clip-10"></g>
                            <path d="M0.203632941,0.288993939 C0.20448,0.287615152 0.206174118,0.284581818 0.207021176,0.283478788 C0.206174118,0.284581818 0.20448,0.287615152 0.203632941,0.288993939" id="Fill-9" fill="#089156" mask="url(#mask-4)"></path>
                        </g>
                        <path d="M4.40874353,0.339071515 C4.40987294,0.337141212 4.41213176,0.333280606 4.41326118,0.331350303 C4.41213176,0.333280606 4.40987294,0.337141212 4.40874353,0.339071515" id="Fill-12" fill="#089156"></path>
                        <path d="M4.37192471,0.403185152 C4.37446588,0.39877303 4.37926588,0.390224545 4.38180706,0.386088182 C4.37926588,0.390224545 4.37446588,0.39877303 4.37192471,0.403185152" id="Fill-14" fill="#089156"></path>
                        <path d="M4.36255059,0.418930909 C4.36452706,0.415070303 4.36960941,0.407073333 4.37186824,0.403212727 C4.36960941,0.407073333 4.36452706,0.415070303 4.36255059,0.418930909" id="Fill-16" fill="#089156"></path>
                        <path d="M4.33056,0.472234848 C4.33168941,0.470028788 4.33394824,0.466443939 4.33507765,0.464237879 C4.33394824,0.466443939 4.33168941,0.470028788 4.33056,0.472234848" id="Fill-18" fill="#089156"></path>
                        <path d="M4.30176,0.532708485 C4.30317176,0.528296364 4.30543059,0.520023636 4.30684235,0.515611515 C4.30543059,0.520023636 4.30317176,0.528296364 4.30176,0.532708485" id="Fill-20" fill="#089156"></path>
                        <path d="M4.26398118,0.591417273 C4.27329882,0.576802121 4.29221647,0.547296061 4.30181647,0.532680909 C4.29221647,0.547296061 4.27329882,0.576802121 4.26398118,0.591417273" id="Fill-22" fill="#089156"></path>
                        <path d="M4.24935529,0.612016364 C4.25302588,0.607052727 4.26008471,0.596573939 4.26403765,0.591334545 C4.26008471,0.596573939 4.25302588,0.607052727 4.24935529,0.612016364" id="Fill-24" fill="#089156"></path>
                        <path d="M4.22095059,0.656578788 C4.22292706,0.653545455 4.22688,0.646927273 4.22885647,0.643342424 C4.22688,0.646927273 4.22292706,0.653545455 4.22095059,0.656578788" id="Fill-26" fill="#089156"></path>
                        <path d="M4.19392941,0.717438485 C4.19477647,0.713026364 4.19703529,0.704202121 4.19816471,0.699514242 C4.19703529,0.704202121 4.19477647,0.713026364 4.19392941,0.717438485" id="Fill-28" fill="#089156"></path>
                        <path d="M4.15465412,0.775457879 C4.16453647,0.761118485 4.18401882,0.731888182 4.19390118,0.717548788 C4.18401882,0.731888182 4.16453647,0.761118485 4.15465412,0.775457879" id="Fill-30" fill="#089156"></path>
                        <path d="M4.14084706,0.795808788 C4.14423529,0.790845152 4.15129412,0.780642121 4.15468235,0.775402727 C4.15129412,0.780642121 4.14423529,0.790845152 4.14084706,0.795808788" id="Fill-32" fill="#089156"></path>
                        <path d="M4.11244235,0.841446667 C4.11413647,0.838413333 4.11724235,0.832898182 4.11893647,0.830416364 C4.11724235,0.832898182 4.11413647,0.838413333 4.11244235,0.841446667" id="Fill-34" fill="#089156"></path>
                        <path d="M4.07579294,0.904457273 C4.07833412,0.900045152 4.08369882,0.890669394 4.08652235,0.885981515 C4.08369882,0.890669394 4.07833412,0.900045152 4.07579294,0.904457273" id="Fill-36" fill="#089156"></path>
                        <path d="M4.06599529,0.920892424 C4.06853647,0.916480303 4.07333647,0.908759091 4.07587765,0.90434697 C4.07333647,0.908759091 4.06853647,0.916480303 4.06599529,0.920892424" id="Fill-38" fill="#089156"></path>
                        <path d="M4.03386353,0.973534545 C4.03527529,0.97188 4.03753412,0.967743636 4.03866353,0.965537576 C4.03753412,0.967743636 4.03527529,0.97188 4.03386353,0.973534545" id="Fill-40" fill="#089156"></path>
                        <path d="M4.00421647,1.02416364 C4.00506353,1.02250909 4.00732235,1.01864848 4.00845176,1.01644242 C4.00732235,1.01864848 4.00506353,1.02250909 4.00421647,1.02416364" id="Fill-42" fill="#089156"></path>
                        <path d="M3.96657882,1.08772576 C3.96940235,1.08358939 3.97448471,1.07448939 3.97730824,1.07035303 C3.97448471,1.07448939 3.96940235,1.08358939 3.96657882,1.08772576" id="Fill-44" fill="#089156"></path>
                        <path d="M3.95610353,1.10548455 C3.95892706,1.10079667 3.96400941,1.09224818 3.96655059,1.08783606 C3.96400941,1.09224818 3.95892706,1.10079667 3.95610353,1.10548455" id="Fill-46" fill="#089156"></path>
                        <path d="M3.92510118,1.15760273 C3.92594824,1.15594818 3.92792471,1.15236333 3.92905412,1.15043303 C3.92792471,1.15236333 3.92594824,1.15594818 3.92510118,1.15760273" id="Fill-48" fill="#089156"></path>
                        <path d="M3.89697882,1.2194 C3.89810824,1.21471212 3.90036706,1.20588788 3.90149647,1.20147576 C3.90036706,1.20588788 3.89810824,1.21471212 3.89697882,1.2194" id="Fill-50" fill="#089156"></path>
                        <path d="M3.85753412,1.27810879 C3.86741647,1.26349364 3.88689882,1.23371182 3.89706353,1.21937242 C3.88689882,1.23371182 3.86741647,1.26349364 3.85753412,1.27810879" id="Fill-52" fill="#089156"></path>
                        <path d="M3.84429176,1.29818394 C3.84768,1.2932203 3.85417412,1.28329303 3.85756235,1.27805364 C3.85417412,1.28329303 3.84768,1.2932203 3.84429176,1.29818394" id="Fill-54" fill="#089156"></path>
                        <path d="M3.81024,1.35807848 C3.81447529,1.35035727 3.82209882,1.33519061 3.82605176,1.32774515 C3.82209882,1.33519061 3.81447529,1.35035727 3.81024,1.35807848" id="Fill-56" fill="#089156"></path>
                        <path d="M3.78307765,1.40683242 C3.78646588,1.40159303 3.79324235,1.39083848 3.79634824,1.38559909 C3.79324235,1.39083848 3.78646588,1.40159303 3.78307765,1.40683242" id="Fill-58" fill="#089156"></path>
                        <path d="M3.76791529,1.42743152 C3.77158588,1.42219212 3.77920941,1.41198909 3.78316235,1.4067497 C3.77920941,1.41198909 3.77158588,1.42219212 3.76791529,1.42743152" id="Fill-60" fill="#089156"></path>
                        <path d="M3.73663059,1.47511 C3.74001882,1.46987061 3.74679529,1.4588403 3.75018353,1.45332515 C3.74679529,1.4588403 3.74001882,1.46987061 3.73663059,1.47511" id="Fill-62" fill="#089156"></path>
                        <path d="M3.70119529,1.54349788 C3.70430118,1.53743121 3.71051294,1.52502212 3.71333647,1.51895545 C3.71051294,1.52502212 3.70430118,1.53743121 3.70119529,1.54349788" id="Fill-64" fill="#089156"></path>
                        <path d="M3.67471059,1.5917003 C3.67809882,1.58646091 3.68487529,1.57598212 3.68798118,1.57046697 C3.68487529,1.57598212 3.67809882,1.58646091 3.67471059,1.5917003" id="Fill-66" fill="#089156"></path>
                        <path d="M3.65954824,1.61177545 C3.66350118,1.60681182 3.67112471,1.59660879 3.67479529,1.59164515 C3.67112471,1.59660879 3.66350118,1.60681182 3.65954824,1.61177545" id="Fill-68" fill="#089156"></path>
                        <path d="M3.62371765,1.66871939 C3.62795294,1.66072242 3.63727059,1.64472848 3.64178824,1.63645576 C3.63727059,1.64472848 3.62795294,1.66072242 3.62371765,1.66871939" id="Fill-70" fill="#089156"></path>
                        <path d="M3.59918118,1.7199 C3.60172235,1.71466061 3.60680471,1.70418182 3.60934588,1.69894242 C3.60680471,1.70418182 3.60172235,1.71466061 3.59918118,1.7199" id="Fill-72" fill="#089156"></path>
                        <path d="M3.56208,1.77819515 C3.57139765,1.76330424 3.59003294,1.7343497 3.59906824,1.7200103 C3.59003294,1.7343497 3.57139765,1.76330424 3.56208,1.77819515" id="Fill-74" fill="#089156"></path>
                        <path d="M3.54734118,1.79931818 C3.55101176,1.79380303 3.55835294,1.78332424 3.56202353,1.77808485 C3.55835294,1.78332424 3.55101176,1.79380303 3.54734118,1.79931818" id="Fill-76" fill="#089156"></path>
                        <path d="M3.51947294,1.84429424 C3.52144941,1.84126091 3.52512,1.83464273 3.52709647,1.83133364 C3.52512,1.83464273 3.52144941,1.84126091 3.51947294,1.84429424" id="Fill-78" fill="#089156"></path>
                        <path d="M3.48928941,1.90369242 C3.49070118,1.90010758 3.49465412,1.89266212 3.49634824,1.88880152 C3.49465412,1.89266212 3.49070118,1.90010758 3.48928941,1.90369242" id="Fill-80" fill="#089156"></path>
                        <path d="M3.45083294,1.96805424 C3.46043294,1.9520603 3.47963294,1.91979667 3.48923294,1.90380273 L3.49120941,1.93441182 C3.48104471,1.9429603 3.46099765,1.95978152 3.45083294,1.96805424" id="Fill-82" fill="#089156"></path>
                        <path d="M3.44035765,1.98258667 C3.44318118,1.97872606 3.44826353,1.97155636 3.45080471,1.96797152 C3.44826353,1.97155636 3.44318118,1.97872606 3.44035765,1.98258667" id="Fill-84" fill="#089156"></path>
                        <path d="M3.40574118,2.0439703 C3.41082353,2.03376727 3.42070588,2.01308545 3.42550588,2.00288242 C3.42070588,2.01308545 3.41082353,2.03376727 3.40574118,2.0439703" id="Fill-86" fill="#089156"></path>
                        <path d="M3.37776,2.09244848 C3.38086588,2.08720909 3.38764235,2.0767303 3.39131294,2.07149091 C3.38764235,2.0767303 3.38086588,2.08720909 3.37776,2.09244848" id="Fill-88" fill="#089156"></path>
                        <path d="M3.36288,2.11304758 C3.36655059,2.10780818 3.37389176,2.09760515 3.37784471,2.09236576 C3.37389176,2.09760515 3.36655059,2.10780818 3.36288,2.11304758" id="Fill-90" fill="#089156"></path>
                        <path d="M3.33184941,2.16031242 C3.33495529,2.15507303 3.34173176,2.14404273 3.34540235,2.13880333 C3.34173176,2.14404273 3.33495529,2.15507303 3.33184941,2.16031242" id="Fill-92" fill="#089156"></path>
                        <path d="M3.29943529,2.21565697 C3.30084706,2.21289939 3.30423529,2.20710848 3.30592941,2.20462667 C3.30423529,2.20710848 3.30084706,2.21289939 3.29943529,2.21565697" id="Fill-94" fill="#089156"></path>
                        <path d="M3.27105882,2.26548636 C3.27331765,2.26190152 3.27755294,2.25445606 3.27981176,2.25087121 C3.27755294,2.25445606 3.27331765,2.26190152 3.27105882,2.26548636" id="Fill-96" fill="#089156"></path>
                        <path d="M3.22003765,2.35072303 C3.22229647,2.34713818 3.22653176,2.33996848 3.22879059,2.33610788 C3.22653176,2.33996848 3.22229647,2.34713818 3.22003765,2.35072303" id="Fill-98" fill="#089156"></path>
                        <path d="M3.19135059,2.39944939 C3.19389176,2.39531303 3.19869176,2.3870403 3.20123294,2.3831797 C3.19869176,2.3870403 3.19389176,2.39531303 3.19135059,2.39944939" id="Fill-100" fill="#089156"></path>
                        <path d="M3.15662118,2.45882 C3.15944471,2.45385636 3.16537412,2.44337758 3.16876235,2.43813818 C3.16537412,2.44337758 3.15944471,2.45385636 3.15662118,2.45882" id="Fill-102" fill="#089156"></path>
                        <path d="M3.14572235,2.47646848 C3.14854588,2.47233212 3.15391059,2.46323212 3.15673412,2.45882 C3.15391059,2.46323212 3.14854588,2.47233212 3.14572235,2.47646848" id="Fill-104" fill="#089156"></path>
                        <path d="M3.11443765,2.52817303 C3.11556706,2.52624273 3.11782588,2.52265788 3.11867294,2.52072758 C3.11782588,2.52265788 3.11556706,2.52624273 3.11443765,2.52817303" id="Fill-106" fill="#089156"></path>
                        <path d="M3.08685176,2.5906597 C3.08798118,2.58597182 3.08995765,2.57659606 3.09108706,2.57218394 C3.08995765,2.57659606 3.08798118,2.58597182 3.08685176,2.5906597" id="Fill-108" fill="#089156"></path>
                        <path d="M3.04743529,2.64787939 C3.05731765,2.63354 3.0768,2.60486121 3.08696471,2.59052182 C3.0768,2.60486121 3.05731765,2.63354 3.04743529,2.64787939" id="Fill-110" fill="#089156"></path>
                        <path d="M3.03351529,2.66847848 C3.03690353,2.66351485 3.04396235,2.65303606 3.04735059,2.64779667 C3.04396235,2.65303606 3.03690353,2.66351485 3.03351529,2.66847848" id="Fill-112" fill="#089156"></path>
                        <path d="M3.00592941,2.71224121 C3.00762353,2.70920788 3.01157647,2.70286545 3.01355294,2.69955636 C3.01157647,2.70286545 3.00762353,2.70920788 3.00592941,2.71224121" id="Fill-114" fill="#089156"></path>
                        <path d="M2.96843294,2.77740273 C2.97097412,2.77271485 2.97633882,2.76333909 2.97916235,2.75865121 C2.97633882,2.76333909 2.97097412,2.77271485 2.96843294,2.77740273" id="Fill-116" fill="#089156"></path>
                        <path d="M2.95835294,2.7937 C2.96089412,2.78983939 2.96569412,2.78129091 2.96851765,2.7774303 C2.96569412,2.78129091 2.96089412,2.78983939 2.95835294,2.7937" id="Fill-118" fill="#089156"></path>
                        <path d="M2.92706824,2.8456803 C2.92819765,2.84375 2.93017412,2.84016515 2.93158588,2.83823485 C2.93017412,2.84016515 2.92819765,2.84375 2.92706824,2.8456803" id="Fill-120" fill="#089156"></path>
                        <path d="M2.89702588,2.89603364 C2.89787294,2.89437909 2.89984941,2.89162152 2.90069647,2.88996697 C2.89984941,2.89162152 2.89787294,2.89437909 2.89702588,2.89603364" id="Fill-122" fill="#089156"></path>
                        <path d="M5.77900235,6.15033152 C5.78380235,6.14288606 5.79340235,6.12799515 5.79792,6.12110121 C5.79340235,6.12799515 5.78380235,6.14288606 5.77900235,6.15033152" id="Fill-124" fill="#089156"></path>
                        <path d="M5.76714353,6.17093061 C5.76855529,6.16872455 5.77081412,6.16431242 5.77194353,6.16210636 C5.77081412,6.16431242 5.76855529,6.16872455 5.76714353,6.17093061" id="Fill-126" fill="#089156"></path>
                        <path d="M5.71696941,6.26005545 C5.71894588,6.25647061 5.72318118,6.24957667 5.72515765,6.24626758 C5.72318118,6.24957667 5.71894588,6.25647061 5.71696941,6.26005545" id="Fill-128" fill="#089156"></path>
                        <path d="M5.68856471,6.30880939 C5.69082353,6.30467303 5.69534118,6.29722758 5.69788235,6.29309121 C5.69534118,6.29722758 5.69082353,6.30467303 5.68856471,6.30880939" id="Fill-130" fill="#089156"></path>
                        <path d="M5.66126118,6.35538485 C5.66267294,6.35317879 5.66521412,6.34931818 5.66634353,6.34711212 C5.66521412,6.34931818 5.66267294,6.35317879 5.66126118,6.35538485" id="Fill-132" fill="#089156"></path>
                        <path d="M5.62376471,6.41947091 C5.62630588,6.41533455 5.63110588,6.40678606 5.63364706,6.40292545 C5.63110588,6.40678606 5.62630588,6.41533455 5.62376471,6.41947091" id="Fill-134" fill="#089156"></path>
                        <path d="M5.61300706,6.43725727 C5.61554824,6.43256939 5.62091294,6.42402091 5.62373647,6.41960879 C5.62091294,6.42402091 5.61554824,6.43256939 5.61300706,6.43725727" id="Fill-136" fill="#089156"></path>
                        <path d="M5.57703529,6.49731727 C5.57929412,6.49373242 5.58352941,6.48656273 5.58578824,6.48297788 C5.58352941,6.48656273 5.57929412,6.49373242 5.57703529,6.49731727" id="Fill-138" fill="#089156"></path>
                        <path d="M5.54902588,6.54416848 C5.55156706,6.53948061 5.55749647,6.52982909 5.56032,6.52514121 C5.55749647,6.52982909 5.55156706,6.53948061 5.54902588,6.54416848" id="Fill-140" fill="#089156"></path>
                        <path d="M5.49817412,6.63061848 C5.50015059,6.62703364 5.50410353,6.62069121 5.50608,6.61738212 C5.50410353,6.62069121 5.50015059,6.62703364 5.49817412,6.63061848" id="Fill-142" fill="#089156"></path>
                        <path d="M5.46962824,6.67774545 C5.47245176,6.67250606 5.47838118,6.6631303 5.48120471,6.65844242 C5.47838118,6.6631303 5.47245176,6.67250606 5.46962824,6.67774545" id="Fill-144" fill="#089156"></path>
                        <path d="M5.41956706,6.76201697 C5.42210824,6.75815636 5.42662588,6.74988364 5.42916706,6.74602303 C5.42662588,6.74988364 5.42210824,6.75815636 5.41956706,6.76201697" id="Fill-146" fill="#089156"></path>
                        <path d="M5.39186824,6.81077091 C5.39356235,6.80746182 5.39751529,6.80084364 5.39920941,6.7978103 C5.39751529,6.80084364 5.39356235,6.80746182 5.39186824,6.81077091" id="Fill-148" fill="#089156"></path>
                        <path d="M5.36236235,6.86112424 C5.36462118,6.85726364 5.36885647,6.84981818 5.37111529,6.84623333 C5.36885647,6.84981818 5.36462118,6.85726364 5.36236235,6.86112424" id="Fill-150" fill="#089156"></path>
                        <path d="M5.31024,6.94757424 C5.31278118,6.94316212 5.31758118,6.93516515 5.32012235,6.93102879 C5.31758118,6.93516515 5.31278118,6.94316212 5.31024,6.94757424" id="Fill-152" fill="#089156"></path>
                        <path d="M5.28406588,6.99362576 C5.28576,6.99031667 5.28914824,6.98452576 5.29112471,6.98121667 C5.28914824,6.98452576 5.28576,6.99031667 5.28406588,6.99362576" id="Fill-154" fill="#089156"></path>
                        <path d="M5.25413647,7.04425485 C5.25583059,7.04094576 5.26006588,7.03460333 5.26204235,7.03101848 C5.26006588,7.03460333 5.25583059,7.04094576 5.25413647,7.04425485" id="Fill-156" fill="#089156"></path>
                        <path d="M5.20063059,7.13365545 C5.20288941,7.13007061 5.20712471,7.12345242 5.20910118,7.11986758 C5.20712471,7.12345242 5.20288941,7.13007061 5.20063059,7.13365545" id="Fill-158" fill="#089156"></path>
                        <path d="M5.17335529,7.17863152 C5.17617882,7.17366788 5.18182588,7.16456788 5.18436706,7.15988 C5.18182588,7.16456788 5.17617882,7.17366788 5.17335529,7.17863152" id="Fill-160" fill="#089156"></path>
                        <path d="M5.12563765,7.25995242 C5.12704941,7.25691909 5.13100235,7.25085242 5.13241412,7.24781909 C5.13100235,7.25085242 5.12704941,7.25691909 5.12563765,7.25995242" id="Fill-162" fill="#089156"></path>
                        <path d="M5.09697882,7.30975424 C5.09867294,7.30699667 5.10177882,7.30148152 5.10347294,7.29844818 C5.10177882,7.30148152 5.09867294,7.30699667 5.09697882,7.30975424" id="Fill-164" fill="#089156"></path>
                        <path d="M5.06676706,7.36065909 C5.06846118,7.35790152 5.07241412,7.35155909 5.07410824,7.34852576 C5.07241412,7.35155909 5.06846118,7.35790152 5.06676706,7.36065909" id="Fill-166" fill="#089156"></path>
                        <path d="M5.01300706,7.4484603 C5.01583059,7.44377242 5.02119529,7.43439667 5.02430118,7.42998455 C5.02119529,7.43439667 5.01583059,7.44377242 5.01300706,7.4484603" id="Fill-168" fill="#089156"></path>
                        <path d="M4.98886588,7.49208515 C4.99084235,7.4885003 4.99479529,7.48133061 4.99705412,7.47747 C4.99479529,7.48133061 4.99084235,7.4885003 4.98886588,7.49208515" id="Fill-170" fill="#089156"></path>
                        <path d="M4.95193412,7.55482 C4.95419294,7.55068364 4.95899294,7.54296242 4.96125176,7.53882606 C4.95899294,7.54296242 4.95419294,7.55068364 4.95193412,7.55482" id="Fill-172" fill="#089156"></path>
                        <path d="M4.94309647,7.56990394 C4.94507294,7.56604333 4.94959059,7.55859788 4.95184941,7.55473727 C4.94959059,7.55859788 4.94507294,7.56604333 4.94309647,7.56990394" id="Fill-174" fill="#089156"></path>
                        <g id="Group-178" transform="translate(9.035294, 0.000000)">
                            <mask id="mask-6" fill="white">
                                <use xlink:href="#path-5"></use>
                            </mask>
                            <g id="Clip-177"></g>
                            <path d="M0.318748235,0.278901212 C0.321007059,0.282486061 0.32496,0.289931515 0.327218824,0.293516364 C0.32496,0.289931515 0.321007059,0.282486061 0.318748235,0.278901212" id="Fill-176" fill="#10985B" mask="url(#mask-6)"></path>
                        </g>
                        <path d="M9.57354353,0.651587576 C9.57467294,0.653517879 9.57693176,0.657654242 9.57834353,0.659584545 C9.57693176,0.657654242 9.57467294,0.653517879 9.57354353,0.651587576" id="Fill-179" fill="#10985B"></path>
                        <path d="M9.97857882,1.33747939 C9.97970824,1.3394097 9.98224941,1.34299455 9.98337882,1.34520061 C9.98224941,1.34299455 9.97970824,1.3394097 9.97857882,1.33747939" id="Fill-181" fill="#10985B"></path>
                        <path d="M10.0566212,1.46647879 C10.05888,1.46978788 10.0628329,1.47695758 10.0650918,1.48081818 C10.0628329,1.47695758 10.05888,1.46978788 10.0566212,1.46647879" id="Fill-183" fill="#10985B"></path>
                        <path d="M10.1671906,1.65418697 C10.1686024,1.65611727 10.1708612,1.65970212 10.1719906,1.66190818 C10.1708612,1.65970212 10.1686024,1.65611727 10.1671906,1.65418697" id="Fill-185" fill="#10985B"></path>
                        <path d="M10.2738918,1.83541485 C10.2761506,1.83872394 10.2798212,1.84561788 10.28208,1.84920273 C10.2798212,1.84561788 10.2761506,1.83872394 10.2738918,1.83541485" id="Fill-187" fill="#10985B"></path>
                        <path d="M10.3825412,2.01948303 C10.3848,2.02279212 10.3887529,2.02996182 10.3910118,2.03354667 C10.3887529,2.02996182 10.3848,2.02279212 10.3825412,2.01948303" id="Fill-189" fill="#10985B"></path>
                        <g id="Group-193" transform="translate(4.235294, 0.000000)">
                            <mask id="mask-8" fill="white">
                                <use xlink:href="#path-7"></use>
                            </mask>
                            <g id="Clip-192"></g>
                            <path d="M9.50515765,7.69755212 C9.50402824,7.69562182 9.50205176,7.69176121 9.50092235,7.69010667 L9.47409882,7.64488242 C9.47155765,7.64019455 9.46619294,7.6313703 9.46365176,7.62668242 C9.46082824,7.6222703 9.45546353,7.6131703 9.45264,7.60875818 L9.42666353,7.56408545 C9.42553412,7.56243091 9.42327529,7.55884606 9.42214588,7.55691576 L9.39645176,7.5130703 C9.39532235,7.51141576 9.39334588,7.50783091 9.39221647,7.50562485 L9.36539294,7.46040061 C9.36256941,7.45598848 9.35776941,7.44799152 9.35522824,7.44357939 C9.35268706,7.43916727 9.34788706,7.43089455 9.34562824,7.42675818 L9.31824,7.38070667 C9.31456941,7.37519152 9.30835765,7.36526424 9.30496941,7.36002485 L9.28661647,7.33437939 C9.28238118,7.32941576 9.27447529,7.31948848 9.27052235,7.31397333 C9.26741647,7.30873394 9.26120471,7.29797939 9.25781647,7.29274 L9.24539294,7.26544 C9.24285176,7.25964909 9.23748706,7.24861879 9.23494588,7.24337939 C9.21687529,7.20918545 9.19767529,7.1763703 9.17791059,7.14383091 C9.17536941,7.1399703 9.17000471,7.13114606 9.16802824,7.12728545 C9.16492235,7.12232182 9.15899294,7.1126703 9.15645176,7.10770667 L9.13132235,7.06551576 C9.12991059,7.06275818 9.12652235,7.05724303 9.12482824,7.05448545 L9.10026353,7.0125703 C9.09913412,7.01064 9.09659294,7.00650364 9.09546353,7.00429758 L9.06835765,6.95934909 C9.06581647,6.95521273 9.06129882,6.94694 9.05875765,6.94280364 C9.05621647,6.93866727 9.05169882,6.93011879 9.04915765,6.92598242 L9.02176941,6.87910364 C9.01922824,6.87524303 9.01442824,6.8669703 9.01216941,6.86283394 L8.99579294,6.83663697 C8.99268706,6.83167333 8.98675765,6.82229758 8.98365176,6.8176097 C8.97179294,6.80023697 8.94835765,6.76576727 8.93621647,6.7486703 L8.93424,6.74536121 L8.93113412,6.7395703 L8.92266353,6.72550667 C8.91758118,6.71364909 8.90685176,6.68965818 8.90120471,6.67780061 L8.88341647,6.64994909 C8.88031059,6.64498545 8.87325176,6.63423091 8.87014588,6.62899152 C8.86421647,6.62044303 8.85320471,6.60279455 8.84755765,6.59424606 L8.83146353,6.57053091 L8.82581647,6.56308545 L8.82214588,6.55536424 L8.81480471,6.54102485 C8.81085176,6.53164909 8.80351059,6.51400061 8.79955765,6.50490061 L8.77216941,6.45774606 C8.76991059,6.4536097 8.76482824,6.44478545 8.76228706,6.44037333 C8.75946353,6.43596121 8.75438118,6.42741273 8.75184,6.42272485 L8.72529882,6.37805212 C8.72416941,6.37612182 8.72219294,6.37253697 8.72106353,6.37060667 L8.69452235,6.32648545 L8.69000471,6.31904 L8.66374588,6.27436727 C8.66148706,6.26995515 8.65640471,6.26168242 8.65386353,6.25782182 C8.65132235,6.2534097 8.64624,6.24403394 8.64341647,6.23962182 L8.61659294,6.19384606 C8.61489882,6.19136424 8.61207529,6.18640061 8.61066353,6.18419455 L8.58920471,6.14779455 C8.58694588,6.14448545 8.58271059,6.13731576 8.58073412,6.13400667 C8.57000471,6.1169097 8.54826353,6.08244 8.53753412,6.06479152 C8.53527529,6.06148242 8.53132235,6.05403697 8.52906353,6.05072788 C8.06318118,5.25378848 7.59080471,4.46043394 7.12125176,3.66570061 C6.79965176,3.12135515 6.47805176,2.57728545 6.15588706,2.03349152 C6.15362824,2.02990667 6.14939294,2.02273697 6.14713412,2.01942788 C6.11438118,1.96262182 6.08106353,1.90554 6.04689882,1.84928545 C6.04464,1.84570061 6.04068706,1.83880667 6.03871059,1.83549758 C6.00454588,1.77731273 5.97066353,1.71940364 5.93649882,1.6617703 C5.93536941,1.65956424 5.93339294,1.65597939 5.93198118,1.65404909 C5.89781647,1.59641576 5.86365176,1.53878242 5.82976941,1.48087333 C5.82779294,1.47701273 5.82355765,1.46984303 5.82129882,1.46653394 C5.79673412,1.42572182 5.77188706,1.38546121 5.74788706,1.34520061 C5.74675765,1.34299455 5.74449882,1.3394097 5.74336941,1.33747939 C5.61151059,1.11080667 5.47739294,0.884961212 5.34299294,0.659667273 C5.34158118,0.65773697 5.33932235,0.653600606 5.33819294,0.651670303 C5.26873412,0.531991515 5.19729882,0.412864242 5.12727529,0.293461212 C5.12501647,0.289876364 5.12106353,0.282430909 5.11880471,0.278846061 C5.10355765,0.252373333 5.08887529,0.225624848 5.07475765,0.198876364 C4.34882824,0.189224848 3.62261647,0.197497576 2.89696941,0.19474 C2.01941647,0.196118788 1.14214588,0.192809697 0.265157647,0.196670303 L0.266287059,0.209630909 L0.267698824,0.221488485 C0.325016471,0.294288485 0.367934118,0.376464242 0.414804706,0.455606667 C1.16501647,1.72381576 1.91494588,2.99202485 2.66374588,4.26106121 C2.68012235,4.28808545 2.69678118,4.31566121 2.71344,4.34268545 C2.71569882,4.3462703 2.71993412,4.35344 2.72219294,4.35702485 C2.73235765,4.37467333 2.75325176,4.40969455 2.76341647,4.42761879 C2.76539294,4.43065212 2.76878118,4.43671879 2.77075765,4.44002788 L2.79306353,4.47863394 C2.79419294,4.48056424 2.79673412,4.48525212 2.79814588,4.48718242 L2.82525176,4.53378545 C2.82779294,4.53764606 2.83231059,4.54564303 2.83485176,4.54950364 C2.83711059,4.55419152 2.84219294,4.56246424 2.84501647,4.56660061 L2.87071059,4.60961879 C2.87212235,4.61210061 2.87494588,4.61678848 2.87607529,4.61899455 C2.89358118,4.64932788 2.91108706,4.67938545 2.92944,4.70916727 C2.93198118,4.71330364 2.93649882,4.72157636 2.93904,4.72543697 C2.94948706,4.7428097 2.97009882,4.77810667 2.98054588,4.79547939 C2.98280471,4.79934 2.98760471,4.80678545 2.98986353,4.8103703 L3.01301647,4.84842485 C3.01809882,4.85724909 3.02882824,4.87434606 3.03419294,4.8831703 L3.04153412,4.89585515 C3.04266353,4.89833697 3.04520471,4.90274909 3.04661647,4.90495515 C3.05847529,4.92563697 3.08247529,4.96727636 3.09433412,4.98795818 C3.09941647,4.99485212 3.10958118,5.00919152 3.11466353,5.01636121 L3.12200471,5.02849455 C3.12285176,5.03070061 3.12511059,5.03511273 3.12652235,5.03731879 C3.15052235,5.08226727 3.17565176,5.12721576 3.20247529,5.17078545 C3.20755765,5.17823091 3.21744,5.19284606 3.22280471,5.20029152 L3.22986353,5.21270061 C3.23099294,5.21490667 3.23381647,5.21931879 3.23494588,5.22152485 C3.24567529,5.24055212 3.26685176,5.27833091 3.27758118,5.29708242 C3.27984,5.30121879 3.28464,5.30894 3.28718118,5.31307636 L3.30440471,5.34285818 C3.30694588,5.3472703 3.31231059,5.35692182 3.31513412,5.36133394 L3.33744,5.39966424 C3.34026353,5.40462788 3.34591059,5.41427939 3.34845176,5.41896727 C3.35099294,5.42282788 3.35607529,5.43137636 3.35805176,5.43551273 L3.38572235,5.48184 C3.38685176,5.48404606 3.38939294,5.48763091 3.39052235,5.48956121 L3.41678118,5.53340667 C3.41875765,5.53726727 3.42299294,5.54416121 3.42525176,5.54802182 L3.44162824,5.57532182 C3.44473412,5.5800097 3.45038118,5.58993697 3.45320471,5.59462485 C3.46478118,5.61392788 3.48821647,5.65225818 3.50007529,5.67156121 C3.50459294,5.67928242 3.51391059,5.69444909 3.51871059,5.70189455 L3.52633412,5.71402788 C3.52774588,5.7165097 3.53056941,5.72064606 3.53198118,5.72285212 C3.54412235,5.74132788 3.56812235,5.77855515 3.57998118,5.79675515 L3.58167529,5.79951273 L3.58336941,5.80282182 C3.59918118,5.83784303 3.61696941,5.87176121 3.63588706,5.90512788 C3.63842824,5.90898848 3.64266353,5.9167097 3.64492235,5.9205703 C3.64774588,5.92498242 3.65311059,5.93408242 3.65593412,5.93849455 L3.68162824,5.98096121 C3.68275765,5.98344303 3.68558118,5.98813091 3.68727529,5.99061273 L3.70506353,6.02149758 C4.01649882,6.13345515 4.33838118,6.21314909 4.65292235,6.31462788 C4.99118118,6.41252182 5.32633412,6.51841273 5.66515765,6.61299758 C6.28012235,6.80602788 6.90073412,6.98223697 7.51541647,7.17609455 C8.19306353,7.35864606 8.85772235,7.58394 9.53367529,7.77338545 L9.53395765,7.7496703 L9.50515765,7.69755212 Z" id="Fill-191" fill="#F9C941" mask="url(#mask-8)"></path>
                        </g>
                        <g id="Group-196" transform="translate(13.552941, 7.445455)">
                            <mask id="mask-10" fill="white">
                                <use xlink:href="#path-9"></use>
                            </mask>
                            <g id="Clip-195"></g>
                            <polygon id="Fill-194" fill="#F9C941" mask="url(#mask-10)" points="0.229976471 0.328565152 0.215858824 0.328013636 0.221788235 0.349522727 0.2376 0.348419697"></polygon>
                        </g>
                        <path d="M7.81516235,5.79686545 C7.81600941,5.79852 7.81798588,5.80155333 7.81883294,5.80293212 L7.81713882,5.79962303 L7.81516235,5.79686545 Z" id="Fill-197" fill="#E8B835"></path>
                        <path d="M13.0668141,6.57055848 C13.0645553,6.56697364 13.0600376,6.55925242 13.0574965,6.55539182 L13.0608847,6.56311303 L13.0668141,6.57055848 Z" id="Fill-199" fill="#E8B835"></path>
                        <path d="M13.1715953,6.74856 C13.1704659,6.7466297 13.1676424,6.74221758 13.1662306,6.73973576 L13.1693365,6.74525091 L13.1715953,6.74856 Z" id="Fill-201" fill="#E8B835"></path>
                        <path d="M11.7507388,7.17620485 C11.1360565,6.98234727 10.5154447,6.80586242 9.90048,6.61310788 C9.56165647,6.51824727 9.22650353,6.41235636 8.88824471,6.31473818 C8.57370353,6.21298364 8.25153882,6.13356545 7.94038588,6.02160788 C8.28768,6.61531394 8.64485647,7.20405636 8.98791529,7.79996848 L9.00570353,7.80134727 C9.83638588,7.80438061 10.6670682,7.8024503 11.4977506,7.80217455 C12.2567153,7.79803818 13.0159624,7.81210182 13.7746447,7.79500485 L13.7687153,7.77349576 C13.0930447,7.5840503 12.4281035,7.35875636 11.7507388,7.17620485" id="Fill-203" fill="#E8B835"></path>
                        <g id="Group-207" transform="translate(13.552941, 7.445455)">
                            <mask id="mask-12" fill="white">
                                <use xlink:href="#path-11"></use>
                            </mask>
                            <g id="Clip-206"></g>
                            <path d="M0.216169412,0.304353636 L0.215887059,0.328068788 L0.230004706,0.328620303 C0.226334118,0.322277879 0.219557647,0.310144545 0.216169412,0.304353636" id="Fill-205" fill="#E8B835" mask="url(#mask-12)"></path>
                        </g>
                        <path d="M3.97499294,9.18890424 C4.25339294,8.72508 4.51795765,8.25270727 4.80567529,7.79467394 C6.19965176,7.79991333 7.59391059,7.78722848 8.98788706,7.79991333 L9.00567529,7.80129212 C8.30064,7.82335273 7.59362824,7.79522545 6.88887529,7.81287394 C6.75447529,7.89725576 6.66468706,8.03430727 6.53593412,8.12668606 C6.41621647,8.21189515 6.32812235,8.33074667 6.21405176,8.42174667 C6.05395765,8.53701333 5.93480471,8.69667697 5.77216941,8.80973758 C5.58440471,9.00387091 5.36755765,9.16767091 5.17781647,9.36097697 C5.03579294,9.46769515 4.91692235,9.59923152 4.78478118,9.71642848 C4.63936941,9.81956182 4.52784,9.95937091 4.39174588,10.0732588 C4.38807529,10.0762921 4.38129882,10.082083 4.37791059,10.0851164 C4.37056941,10.0909073 4.35645176,10.1024891 4.34911059,10.1080042 C4.34544,10.1107618 4.33894588,10.1160012 4.33555765,10.1190345 C4.22826353,10.1998315 4.14609882,10.3068255 4.04078118,10.3895527 C4.03739294,10.3925861 4.03061647,10.398377 4.02751059,10.4011345 C4.02384,10.4036164 4.01706353,10.4094073 4.01367529,10.4121648 C3.86007529,10.5351527 3.73696941,10.6909558 3.57546353,10.8056709 C3.41339294,10.9628527 3.23014588,11.0979739 3.07598118,11.2634285 C2.84812235,11.4465315 2.65104,11.6624497 2.41612235,11.8378315 C2.47456941,11.7134648 2.55165176,11.599577 2.61941647,11.4810012 C3.07146353,10.716877 3.52294588,9.95302848 3.97499294,9.18890424" id="Fill-208" fill="#296AD9"></path>
                        <g id="Group-212" transform="translate(2.258824, 11.581818)">
                            <mask id="mask-14" fill="white">
                                <use xlink:href="#path-13"></use>
                            </mask>
                            <g id="Clip-211"></g>
                            <path d="M0.14544,0.272834545 C0.148545882,0.268698182 0.154475294,0.260149697 0.157298824,0.256013333 L0.156451765,0.273110303 L0.14544,0.272834545 Z" id="Fill-210" fill="#296AD9" mask="url(#mask-14)"></path>
                        </g>
                        <path d="M9.00578824,7.80123697 C9.83618824,7.80454606 10.6671529,7.80234 11.4978353,7.80206424 C12.2568,7.79792788 13.0160471,7.81199152 13.7747294,7.7951703 L13.7905412,7.79406727 L13.8012706,7.79682485 L13.8012706,7.79903091 C13.0005176,9.15134606 12.2020235,10.5047642 11.4009882,11.8570794 C8.40578824,11.8562521 5.41058824,11.859837 2.41538824,11.8548733 L2.41623529,11.8380521 C2.65115294,11.6623945 2.84823529,11.4464764 3.07609412,11.2636491 C3.23025882,11.0979188 3.41322353,10.9627976 3.57557647,10.8058915 C3.7368,10.6909006 3.85990588,10.5350976 4.01350588,10.4121097 C4.01717647,10.4093521 4.02395294,10.403837 4.02734118,10.4010794 C4.03072941,10.3983218 4.03722353,10.3925309 4.04089412,10.3897733 C4.14621176,10.3067703 4.22837647,10.1997764 4.33538824,10.1189794 C4.33905882,10.1162218 4.34555294,10.1107067 4.34894118,10.1079491 C4.35628235,10.1024339 4.3704,10.0908521 4.37774118,10.0850612 C4.38141176,10.0820279 4.38818824,10.076237 4.39157647,10.0732036 C4.52767059,9.95931576 4.6392,9.81950667 4.78489412,9.71637333 C4.91703529,9.59945212 5.03590588,9.46764 5.17792941,9.36092182 C5.36738824,9.16761576 5.58423529,9.00381576 5.77228235,8.80968242 C5.93491765,8.69662182 6.05378824,8.53695818 6.21388235,8.42169152 C6.32823529,8.33069152 6.41632941,8.21184 6.53576471,8.12690667 C6.66451765,8.03452788 6.75430588,7.89747636 6.88870588,7.81281879 C7.59374118,7.79544606 8.30075294,7.82329758 9.00578824,7.80123697" id="Fill-213" fill="#2A71E9"></path>
                        <path d="M4.37785412,10.0851164 C4.38152471,10.082083 4.38830118,10.0762921 4.39168941,10.0732588 C4.38830118,10.0762921 4.38152471,10.082083 4.37785412,10.0851164" id="Fill-215" fill="#286EE6"></path>
                        <path d="M4.34902588,10.1080042 C4.35636706,10.1022133 4.37048471,10.0909073 4.37782588,10.0851164 C4.37048471,10.0909073 4.35636706,10.1022133 4.34902588,10.1080042" id="Fill-217" fill="#286EE6"></path>
                        <path d="M4.33552941,10.1190345 C4.33891765,10.1160012 4.34541176,10.1107618 4.34908235,10.1080042 C4.34541176,10.1107618 4.33891765,10.1160012 4.33552941,10.1190345" id="Fill-219" fill="#286EE6"></path>
                        <path d="M4.02739765,10.4009967 C4.03078588,10.3982391 4.03728,10.3927239 4.04095059,10.3896906 C4.03728,10.3927239 4.03078588,10.3982391 4.02739765,10.4009967" id="Fill-221" fill="#286EE6"></path>
                        <path d="M4.01359059,10.412027 C4.01726118,10.4092694 4.02403765,10.4037542 4.02742588,10.4009967 C4.02403765,10.4037542 4.01726118,10.4092694 4.01359059,10.412027" id="Fill-223" fill="#286EE6"></path>
                    </g>
                </g>
            </g>
        </g>
    </g>
</svg>