<?xml version="1.0" encoding="UTF-8"?>
<svg width="37px" height="67px" viewBox="0 0 37 67" version="1.1" xmlns="http://www.w3.org/2000/svg" xmlns:xlink="http://www.w3.org/1999/xlink">
    <!-- Generator: Sketch 60.1 (88133) - https://sketch.com -->
    <title>Group 41</title>
    <desc>Created with Sketch.</desc>
    <g id="Page-1-Jakub" stroke="none" stroke-width="1" fill="none" fill-rule="evenodd">
        <g id="Home" transform="translate(-781.000000, -123.000000)">
            <g id="Group-41" transform="translate(781.000000, 123.000000)">
                <polygon id="Fill-1" fill="#3A67E8" points="0.129 29.47 7.447 29.47 7.447 22.152 0.129 22.152"></polygon>
                <path d="M0,29.598 L7.575,29.598 L7.575,22.023 L0,22.023 L0,29.598 Z M0.258,29.34 L7.317,29.34 L7.317,22.281 L0.258,22.281 L0.258,29.34 Z" id="Fill-2" fill="#FFFFFF"></path>
                <polygon id="Fill-3" fill="#111111" points="0.129 66.174 7.447 66.174 7.447 58.856 0.129 58.856"></polygon>
                <path d="M0,66.303 L7.575,66.303 L7.575,58.728 L0,58.728 L0,66.303 Z M0.258,66.045 L7.317,66.045 L7.317,58.985 L0.258,58.985 L0.258,66.045 Z" id="Fill-4" fill="#FFFFFF"></path>
                <polygon id="Fill-5" fill="#3A67E8" points="7.357 14.787 14.674 14.787 14.674 7.47 7.357 7.47"></polygon>
                <path d="M7.486,14.658 L14.545,14.658 L14.545,7.599 L7.486,7.599 L7.486,14.658 Z M7.228,14.916 L14.803,14.916 L14.803,7.341 L7.228,7.341 L7.228,14.916 Z" id="Fill-6" fill="#FFFFFF"></path>
                <polygon id="Fill-7" fill="#3A67E8" points="7.357 29.469 14.674 29.469 14.674 22.152 7.357 22.152"></polygon>
                <path d="M7.486,29.34 L14.545,29.34 L14.545,22.281 L7.486,22.281 L7.486,29.34 Z M7.228,29.598 L14.803,29.598 L14.803,22.022 L7.228,22.022 L7.228,29.598 Z" id="Fill-8" fill="#FFFFFF"></path>
                <polygon id="Fill-9" fill="#111111" points="7.357 58.833 14.674 58.833 14.674 51.516 7.357 51.516"></polygon>
                <path d="M7.486,58.704 L14.545,58.704 L14.545,51.645 L7.486,51.645 L7.486,58.704 Z M7.228,58.962 L14.803,58.962 L14.803,51.386 L7.228,51.386 L7.228,58.962 Z" id="Fill-10" fill="#FFFFFF"></path>
                <polygon id="Fill-11" fill="#CC3333" points="7.357 66.174 14.673 66.174 14.673 58.856 7.357 58.856"></polygon>
                <path d="M7.228,66.303 L14.803,66.303 L14.803,58.728 L7.228,58.728 L7.228,66.303 Z M7.486,66.045 L14.545,66.045 L14.545,58.985 L7.486,58.985 L7.486,66.045 Z" id="Fill-12" fill="#FFFFFF"></path>
                <polygon id="Fill-13" fill="#3A67E8" points="14.585 7.447 21.902 7.447 21.902 0.129 14.585 0.129"></polygon>
                <path d="M14.456,7.575 L22.031,7.575 L22.031,0 L14.456,0 L14.456,7.575 Z M14.714,7.318 L21.774,7.318 L21.774,0.258 L14.714,0.258 L14.714,7.318 Z" id="Fill-14" fill="#FFFFFF"></path>
                <polygon id="Fill-15" fill="#3A67E8" points="14.586 14.787 21.903 14.787 21.903 7.47 14.586 7.47"></polygon>
                <path d="M14.714,14.658 L21.774,14.658 L21.774,7.599 L14.714,7.599 L14.714,14.658 Z M14.456,14.916 L22.031,14.916 L22.031,7.341 L14.456,7.341 L14.456,14.916 Z" id="Fill-16" fill="#FFFFFF"></path>
                <polygon id="Fill-17" fill="#3A67E8" points="14.586 22.128 21.903 22.128 21.903 14.811 14.586 14.811"></polygon>
                <path d="M14.714,21.999 L21.774,21.999 L21.774,14.94 L14.714,14.94 L14.714,21.999 Z M14.456,22.257 L22.031,22.257 L22.031,14.681 L14.456,14.681 L14.456,22.257 Z" id="Fill-18" fill="#FFFFFF"></path>
                <polygon id="Fill-19" fill="#3A67E8" points="14.586 29.469 21.903 29.469 21.903 22.152 14.586 22.152"></polygon>
                <path d="M14.714,29.34 L21.774,29.34 L21.774,22.281 L14.714,22.281 L14.714,29.34 Z M14.456,29.598 L22.031,29.598 L22.031,22.022 L14.456,22.022 L14.456,29.598 Z" id="Fill-20" fill="#FFFFFF"></path>
                <polygon id="Fill-21" fill="#3A67E8" points="14.586 36.81 21.903 36.81 21.903 29.493 14.586 29.493"></polygon>
                <path d="M14.714,36.681 L21.774,36.681 L21.774,29.622 L14.714,29.622 L14.714,36.681 Z M14.456,36.939 L22.031,36.939 L22.031,29.363 L14.456,29.363 L14.456,36.939 Z" id="Fill-22" fill="#FFFFFF"></path>
                <polygon id="Fill-23" fill="#111111" points="14.586 51.492 21.903 51.492 21.903 44.175 14.586 44.175"></polygon>
                <path d="M14.714,51.363 L21.774,51.363 L21.774,44.304 L14.714,44.304 L14.714,51.363 Z M14.456,51.621 L22.031,51.621 L22.031,44.045 L14.456,44.045 L14.456,51.621 Z" id="Fill-24" fill="#FFFFFF"></path>
                <polygon id="Fill-25" fill="#CC3333" points="14.586 58.833 21.903 58.833 21.903 51.516 14.586 51.516"></polygon>
                <path d="M14.714,58.704 L21.774,58.704 L21.774,51.645 L14.714,51.645 L14.714,58.704 Z M14.456,58.962 L22.031,58.962 L22.031,51.386 L14.456,51.386 L14.456,58.962 Z" id="Fill-26" fill="#FFFFFF"></path>
                <polygon id="Fill-27" fill="#CC3333" points="14.585 66.174 21.902 66.174 21.902 58.856 14.585 58.856"></polygon>
                <path d="M14.456,66.303 L22.031,66.303 L22.031,58.728 L14.456,58.728 L14.456,66.303 Z M14.714,66.045 L21.774,66.045 L21.774,58.985 L14.714,58.985 L14.714,66.045 Z" id="Fill-28" fill="#FFFFFF"></path>
                <polygon id="Fill-29" fill="#3A67E8" points="21.813 14.787 29.13 14.787 29.13 7.47 21.813 7.47"></polygon>
                <path d="M21.942,14.658 L29.002,14.658 L29.002,7.599 L21.942,7.599 L21.942,14.658 Z M21.684,14.916 L29.259,14.916 L29.259,7.341 L21.684,7.341 L21.684,14.916 Z" id="Fill-30" fill="#FFFFFF"></path>
                <polygon id="Fill-31" fill="#3A67E8" points="21.813 29.469 29.13 29.469 29.13 22.152 21.813 22.152"></polygon>
                <path d="M21.942,29.34 L29.002,29.34 L29.002,22.281 L21.942,22.281 L21.942,29.34 Z M21.684,29.598 L29.259,29.598 L29.259,22.022 L21.684,22.022 L21.684,29.598 Z" id="Fill-32" fill="#FFFFFF"></path>
                <polygon id="Fill-33" fill="#111111" points="21.813 58.833 29.13 58.833 29.13 51.516 21.813 51.516"></polygon>
                <path d="M21.942,58.704 L29.002,58.704 L29.002,51.645 L21.942,51.645 L21.942,58.704 Z M21.684,58.962 L29.259,58.962 L29.259,51.386 L21.684,51.386 L21.684,58.962 Z" id="Fill-34" fill="#FFFFFF"></path>
                <polygon id="Fill-35" fill="#CC3333" points="21.812 66.174 29.13 66.174 29.13 58.856 21.812 58.856"></polygon>
                <path d="M21.684,66.303 L29.259,66.303 L29.259,58.728 L21.684,58.728 L21.684,66.303 Z M21.942,66.045 L29.002,66.045 L29.002,58.985 L21.942,58.985 L21.942,66.045 Z" id="Fill-36" fill="#FFFFFF"></path>
                <polygon id="Fill-37" fill="#3A67E8" points="29.04 29.47 36.357 29.47 36.357 22.152 29.04 22.152"></polygon>
                <path d="M28.912,29.598 L36.487,29.598 L36.487,22.023 L28.912,22.023 L28.912,29.598 Z M29.17,29.34 L36.229,29.34 L36.229,22.281 L29.17,22.281 L29.17,29.34 Z" id="Fill-38" fill="#FFFFFF"></path>
                <polygon id="Fill-39" fill="#111111" points="29.04 66.174 36.357 66.174 36.357 58.856 29.04 58.856"></polygon>
                <path d="M28.912,66.303 L36.487,66.303 L36.487,58.728 L28.912,58.728 L28.912,66.303 Z M29.17,66.045 L36.229,66.045 L36.229,58.985 L29.17,58.985 L29.17,66.045 Z" id="Fill-40" fill="#FFFFFF"></path>
            </g>
        </g>
    </g>
</svg>