<?xml version="1.0" encoding="UTF-8"?>
<svg width="179px" height="118px" viewBox="0 0 179 118" version="1.1" xmlns="http://www.w3.org/2000/svg" xmlns:xlink="http://www.w3.org/1999/xlink">
    <!-- Generator: Sketch 60.1 (88133) - https://sketch.com -->
    <title>Group 61</title>
    <desc>Created with Sketch.</desc>
    <defs>
        <polygon id="path-1" points="0 0.438830751 22.7850212 0.438830751 22.7850212 16.9469761 0 16.9469761"></polygon>
        <polygon id="path-3" points="0.252144148 0.165366908 66.7127257 0.165366908 66.7127257 61 0.252144148 61"></polygon>
    </defs>
    <g id="Page-1-Jakub" stroke="none" stroke-width="1" fill="none" fill-rule="evenodd">
        <g id="Home" transform="translate(-1159.000000, -1858.000000)">
            <g id="Group-61" transform="translate(1159.000000, 1858.000000)">
                <path d="M176.869714,23.1693155 C176.670734,26.4895751 174.51663,28.1809426 171.667103,29.3730115 C168.906011,30.5288045 165.610287,32.4972801 165.900214,35.7384379 C164.88773,35.8019209 163.875246,35.8649 162.862761,35.928383 C161.690993,36.0014388 159.71778,36.6478565 159.297712,35.3691283 C158.843476,33.988122 160.197642,31.7163389 161.112646,30.7983551 C162.011069,29.8959902 163.168768,29.4294408 164.303856,28.9140196 C168.329171,27.0861134 169.363262,23.9301033 169.029117,19.6701951 C168.904001,18.0755636 168.703514,16.5207349 167.124742,15.7700237 C165.850469,15.1639125 164.201351,15.3825761 162.966773,15.9730684 C160.104684,17.340975 159.083155,20.5020234 160.083078,23.2600054 C157.073261,23.2126451 154.063947,23.1657886 151.054131,23.1184283 C150.524524,17.3324099 154.733242,13.0175839 159.75848,10.9266768 C162.471837,9.79758699 165.569084,9.22069818 168.29651,10.6258885 C170.501364,11.7625358 172.462518,13.8176707 174.012649,15.7408014 C175.701463,17.8357391 177.035028,20.406799 176.869714,23.1693155 M171.363609,10.4263706 C162.776838,3.50773551 148.151341,12.5228198 149.172367,23.1657886 C149.174377,23.1854381 149.180407,23.2020646 149.182919,23.2217141 C148.488501,23.6358648 148.64678,24.9700147 149.666801,24.9861374 C153.654934,25.0486127 157.643066,25.1110879 161.631199,25.1740671 C162.309036,25.1846476 162.853717,24.3492924 162.444703,23.7522503 C160.902612,21.502132 161.476437,18.3068229 164.327472,17.4623988 C167.525716,16.5156965 167.39859,20.5614757 167.166447,22.6105646 C166.635333,27.3032654 161.728679,26.9883698 159.225355,30.0970196 C157.944048,31.6876204 156.459741,35.306653 157.86516,37.2428833 C158.446521,38.0439779 159.152999,38.0152594 160.077551,37.9915792 C162.396968,37.9326308 164.724928,37.7013714 167.040326,37.5562675 C167.622191,37.5199915 168.148281,36.978371 167.949301,36.3606717 C166.591115,32.1410701 173.250899,31.2230864 175.639659,29.4324638 C177.333497,28.1623007 178.329902,26.2981186 178.646963,24.2132575 C179.493128,18.6539639 175.415555,13.6922163 171.363609,10.4263706" id="Fill-1" fill="#020203"></path>
                <path d="M165.802984,49.2351153 C165.642183,49.3058574 164.521949,49.1037371 164.161378,49.1037371 C163.442475,49.1032777 162.724468,49.1028184 162.006013,49.102359 C161.324735,49.1018996 158.9051,49.4808751 158.437926,49.0844438 C158.157979,48.8469525 158.463905,46.0857141 158.464352,45.5978693 C158.465248,44.4930983 158.466592,43.3883273 158.467488,42.2835563 C159.707315,42.1246163 160.948934,41.9872664 162.195033,41.8912593 C162.687739,41.8535914 165.280716,41.3809056 165.596048,41.7167009 C165.75013,41.8802345 165.619339,43.2918608 165.643079,43.6634865 C165.688318,44.3764198 165.734453,45.0893531 165.779693,45.801827 L165.893911,47.5837009 C165.916755,47.9401675 165.939598,48.2961748 165.961994,48.6526414 C166.19491,49.335716 166.142056,49.5300271 165.802984,49.2351153 M167.079989,41.0405167 C166.676866,39.8429542 165.656068,39.9844384 164.574803,40.0294561 C162.418094,40.1190321 160.271688,40.3193149 158.131552,40.6013645 C158.059886,40.6105518 157.993594,40.628467 157.931782,40.6514352 C157.44042,40.4819298 156.789152,40.7414706 156.788704,41.4328138 C156.786913,43.5151119 156.784673,45.5978693 156.782433,47.6801673 C156.781538,48.7298146 156.541903,50.108826 157.628544,50.6628193 C158.899278,51.3114416 161.339516,50.8245155 162.724468,50.8254342 C163.898004,50.826353 166.404086,51.3982614 167.334852,50.4611584 C168.118702,49.67243 167.58882,47.8267045 167.527903,46.8712269 C167.412789,45.0732753 167.652423,42.7429206 167.079989,41.0405167" id="Fill-3" fill="#020203"></path>
                <g id="Group-7" transform="translate(0.759389, 33.000000)">
                    <mask id="mask-2" fill="white">
                        <use xlink:href="#path-1"></use>
                    </mask>
                    <g id="Clip-6"></g>
                    <path d="M13.7930521,9.8513 C11.6928646,8.9408 11.0747396,10.9463 10.2764479,12.5678 C8.48340625,8.8733 6.30942708,5.1743 3.39896875,2.3428 C7.38611458,2.4648 11.3948229,3.0278 15.1040521,4.5568 C14.3129479,5.2618 13.6617604,6.1198 13.3205938,7.1628 C13.1495313,7.6848 13.5228021,8.1313 13.9478229,8.3158 C16.3863021,9.3748 18.6666563,10.7138 20.5148021,12.6623 C19.7629896,13.2128 19.0777813,13.8363 18.4093438,14.4983 C17.3072604,12.6643 15.4878646,10.5858 13.7930521,9.8513 M15.4001771,6.9493 C15.8860521,6.1913 16.6632604,5.6043 17.3796146,5.1678 C17.9229896,4.8368 18.0063646,3.8558 17.3796146,3.5488 C12.2319271,1.0263 6.49965625,0.3848 0.868489583,0.4423 C-0.0721145833,0.4518 -0.288697917,1.6723 0.415197917,2.1893 C4.54465625,5.2223 7.23230208,10.2548 9.38615625,14.9053 C9.55434375,15.2693 9.84088542,15.4013 10.1283854,15.3793 C10.3535938,15.4013 10.5907813,15.3238 10.7968229,15.0948 C11.3258229,14.5078 11.6871146,13.8798 12.0119896,13.1513 C12.4978646,12.0628 12.5922604,11.3573 13.7441771,12.0663 C15.1634688,12.9398 16.7063854,14.9628 17.4227396,16.4908 C17.6814896,17.0433 18.4471979,17.0783 18.8338854,16.6803 C19.9306979,15.5523 21.0059479,14.4618 22.3519271,13.6603 C22.8885938,13.3408 22.8991354,12.6383 22.5340104,12.1878 C20.5957813,9.7968 18.0954896,8.2103 15.4001771,6.9493" id="Fill-5" fill="#020203" mask="url(#mask-2)"></path>
                </g>
                <path d="M37.1386789,50.8679679 C35.9237638,49.4851264 34.7725594,47.6630698 32.8832905,49.2527738 C31.4444075,50.464537 30.1746032,52.7125735 29.515932,54.6919828 C28.6970037,54.2262971 27.8721945,53.8003172 26.9973968,53.4601216 C28.3823706,51.1493401 30.3348602,49.3179698 32.513278,47.7066972 C32.8994632,47.4214035 33.1342128,46.903757 32.8426136,46.4493458 C32.2633358,45.5454253 31.4150026,44.8929752 30.4671826,44.4179757 C33.7865129,42.0547433 37.6415037,40.5405295 41.5709871,39.4508249 C39.3435611,42.8552325 38.0521931,46.9160119 37.1386789,50.8679679 M43.619533,37.0287691 C38.016417,38.3478851 32.4789722,40.3645493 27.9633499,44.0258194 C27.4031853,44.4807208 27.7619259,45.3826804 28.3686483,45.562092 C29.1826757,45.802778 30.0780569,46.1704246 30.7342777,46.7699337 C28.3495351,48.6346373 26.2446297,50.7611053 24.8709278,53.5125725 C24.6067732,54.0414934 24.8204493,54.6919828 25.4203106,54.8625709 C26.9444679,55.2963939 28.2672012,56.0762949 29.616889,56.8802154 C30.1045214,57.1704112 30.8401355,56.9125684 30.9665769,56.3307063 C31.3331588,54.6405123 32.3598821,52.8973772 33.3719029,51.5086534 C34.1820097,50.3978704 34.4736089,50.7037524 35.3773215,51.6120846 C36.0286415,52.2664956 36.4393308,52.8861027 37.2278739,53.4062001 C37.5091814,53.5919842 37.7836277,53.5919842 38.0120063,53.4875725 C38.2771411,53.4169844 38.5011089,53.2169846 38.5775618,52.8566909 C39.6253587,47.901795 41.1176606,42.4581742 44.5134439,38.5645515 C45.112325,37.8777876 44.5413786,36.8111223 43.619533,37.0287691" id="Fill-8" fill="#020203"></path>
                <path d="M94.4134558,100.588819 C93.6970443,97.0525559 92.9801639,93.5162931 92.2632835,89.9800304 C92.1756075,89.5452161 91.9149237,89.2855893 91.6003216,89.1744593 C91.9116418,86.1855967 92.161073,83.1918811 92.1906109,80.1719603 C92.2056143,78.6098319 89.8613357,78.6088613 89.8463324,80.1719603 C89.7849123,86.5117073 88.7421772,92.7398391 88.2109637,99.0407635 C88.047333,100.983354 87.2240224,104.482736 88.3155185,106.157935 C88.9212801,107.087253 90.0319992,107.875354 90.8135817,108.657632 C91.2993162,109.143401 92.3472087,109.155533 92.654778,108.412078 C93.2971104,106.860626 94.1391752,105.290248 94.6160015,103.676679 C94.9409185,102.5746 94.6436639,101.724383 94.4134558,100.588819" id="Fill-10" fill="#FDECDB"></path>
                <path d="M170.362351,59.8501975 C170.157061,62.5397413 169.071046,65.1060183 165.893245,64.9861487 C164.949504,64.9502364 164.026933,64.7517479 163.111253,64.4828906 C164.593078,62.9177916 165.632325,61.0518053 165.701247,58.4860136 C165.820384,54.0697653 159.918683,53.96494 158.449165,57.5183214 C155.581513,64.4508606 146.916528,64.207239 141.626264,68.4507198 C135.706348,73.2003706 132.701344,81.0942932 131.779265,88.3602349 C131.531145,90.3135755 133.653946,92 135.47152,92 C137.673089,92 138.914672,90.3198844 139.163776,88.3602349 C140.005118,81.7348918 143.594482,74.3689779 150.231189,71.888114 C152.08224,71.1960733 153.911137,70.5991518 155.65782,69.8352865 C157.653607,69.898861 159.803977,70.9257601 161.705242,71.4668718 C164.245514,72.1890012 166.642526,72.5122124 169.231536,71.7769798 C174.991947,70.1410267 177.323976,65.3952583 177.746862,59.8501975 C178.10378,55.1777098 170.717792,55.2000337 170.362351,59.8501975" id="Fill-12" fill="#FDECDB"></path>
                <path d="M123.636854,103.61778 C121.674558,100.038044 119.080991,96.2966438 118.303114,92.1950584 C117.368021,87.2645076 117.467366,82.1403513 116.225077,77.2569734 C115.449611,74.2094075 113.566405,70.6901126 111.667767,68.2041991 C108.874064,64.5468252 105.022776,62.3984927 100.413865,63.1488366 C99.2675452,63.3355627 99.7541405,65.1114258 100.894191,64.9256825 C105.734584,64.1379934 109.409367,67.5413216 111.698632,71.5274316 C113.814767,75.2118317 114.820268,79.0559316 115.399456,83.289208 C115.880265,86.8026063 115.888945,90.5793866 116.864547,94.0033529 C117.928884,97.7378742 120.23358,101.188867 122.075312,104.54797 C122.642444,105.583317 124.205432,104.655092 123.636854,103.61778" id="Fill-14" fill="#020203"></path>
                <path d="M60.4433692,104.547728 C62.2855592,101.186651 64.5892612,97.7390899 65.6540663,94.0030855 C66.6296554,90.5796022 66.6378536,86.8023214 67.1191378,83.289406 C67.7002475,79.0492399 68.701878,75.2154498 70.8199143,71.5276011 C73.1101133,67.5400072 76.7800259,64.1371622 81.624214,64.925836 C82.7623209,65.1110884 83.2527678,63.3357123 82.1050159,63.1484944 C77.4980942,62.3991315 73.6439626,64.5474692 70.8507782,68.2043605 C68.9545763,70.6868404 67.0675372,74.214006 66.2935281,77.2566654 C65.0512554,82.1405465 65.1505987,87.2642238 64.2150362,92.195278 C63.4376513,96.2958905 60.8431533,100.039757 58.8818479,103.617535 C58.3137589,104.653868 59.874798,105.58406 60.4433692,104.547728" id="Fill-16" fill="#020203"></path>
                <g id="Group-20" transform="translate(111.759389, 57.000000)">
                    <mask id="mask-4" fill="white">
                        <use xlink:href="#path-3"></use>
                    </mask>
                    <g id="Clip-19"></g>
                    <path d="M64.618419,1.72397619 C65.6072803,2.73919048 63.7513314,7.58336508 63.2412511,8.61261905 C62.1516453,10.8095873 60.2756453,12.173373 57.889565,12.7214048 C53.9355869,13.6301111 49.9229226,12.4047857 45.9973095,11.9627778 C42.2365066,11.5396508 38.5872073,11.9472857 35.4944482,14.2507619 C32.6511051,16.3688175 30.7853752,19.4773968 29.5979591,22.7500952 C28.0403314,27.0409127 27.5654628,31.6338254 26.5232949,36.0568095 C25.4508058,40.6095397 24.0315796,45.0949762 22.2480102,49.4250079 C20.7353752,53.0990476 18.637835,57.4765238 14.5371416,58.8286905 C9.77476204,60.3991984 5.05492993,57.0592063 1.8252365,53.9453016 C0.978689051,53.1295476 -0.319252555,54.412 0.527783942,55.2292063 C4.96543358,59.5069524 11.7764482,63.3320397 17.6411489,59.2789286 C23.1087401,55.5003175 25.2581197,47.3098571 27.0138131,41.3560635 C28.2418204,37.1920873 28.9974044,32.9564603 29.883565,28.7159921 C30.7477182,24.5786429 31.9767036,20.4030476 34.9163898,17.2141032 C41.0471343,10.564619 49.4226234,15.6837778 57.0029153,14.7053571 C60.5206599,14.251246 63.4779518,12.4454524 64.9764044,9.19357143 C65.9188058,7.14765079 67.7781781,2.35237302 65.9148934,0.440555556 C65.0942657,-0.402309524 63.7982803,0.882563492 64.618419,1.72397619" id="Fill-18" fill="#020203" mask="url(#mask-4)"></path>
                </g>
                <path d="M148.660179,64.2504965 C151.765453,64.3209247 154.792597,63.4718732 157.307172,61.6495424 C157.760024,61.3213664 158.19944,60.9687361 158.6085,60.588228 C159.083746,60.1465842 159.655535,59.0847807 160.196967,58.798666 C162.910598,57.3627124 161.517206,62.5543497 160.438323,63.4679605 C159.527144,64.2402257 160.851861,65.5323883 161.757566,64.7650139 C163.622721,63.1857584 165.168391,56.7895048 161.661522,56.0470737 C159.642099,55.6196134 158.45473,58.2156766 157.289257,59.2911746 C154.936912,61.462712 151.854033,62.4888123 148.660179,62.4164277 C147.458876,62.389039 147.459374,64.2231077 148.660179,64.2504965" id="Fill-21" fill="#020203"></path>
                <path d="M78.1659755,28.8847831 C83.0650393,26.3700868 87.7723686,24.9028638 93.2294291,25.0424184 C97.1373727,25.1423329 103.253214,25.3942912 106.188719,28.6958144 C107.021043,29.632513 108.324838,28.1924407 107.492022,27.2562851 C104.251708,23.6110343 98.0867046,23.202688 93.7441626,23.0245795 C87.7841676,22.7796804 82.5857029,24.3804847 77.2353254,27.1265048 C76.1606287,27.6782067 77.0957034,29.434313 78.1659755,28.8847831" id="Fill-23" fill="#020203"></path>
                <path d="M90.7593885,29.8880855 L90.7593885,51.1119145 C90.7593885,52.2950476 92.7593885,52.2970089 92.7593885,51.1119145 L92.7593885,29.8880855 C92.7593885,28.7049524 90.7593885,28.7029911 90.7593885,29.8880855" id="Fill-25" fill="#1D1D1B"></path>
                <path d="M82.7593885,34.141396 L82.7593885,33.8586346 C82.7593885,33.4097852 82.2996552,32.979695 81.7593885,33.000742 C81.2175219,33.0213314 80.7593885,33.3777572 80.7593885,33.8586346 L80.7593885,34.141396 C80.7593885,34.5902454 81.2191219,35.019878 81.7593885,34.9992886 C82.3012552,34.9786991 82.7593885,34.6222734 82.7593885,34.141396" id="Fill-27" fill="#1D1D1B"></path>
                <path d="M100.378385,33.2961687 C100.492509,32.9607768 100.60538,32.6248682 100.718877,32.2889596 C100.821088,31.986125 100.733299,31.5530612 100.416635,31.3463482 C99.8566724,30.980983 99.1700439,30.8672908 98.5304448,31.1882128 C97.9265879,31.4910473 97.6324977,32.069327 97.8112093,32.6336535 C97.9673467,33.1240801 98.6589917,33.4698076 99.257832,33.3101218 C99.8704677,33.1468186 100.246075,32.6439892 100.078651,32.1184213 C100.153271,32.3499399 100.037892,32.6636269 99.8102701,32.8041917 C99.4967411,32.998502 99.1443345,32.9721461 98.7536774,32.7168555 C98.6527211,32.4026517 98.5523918,32.0884479 98.4514355,31.7737274 C98.337938,32.109636 98.2244405,32.4455447 98.11157,32.7809365 C97.9460267,33.2687792 98.3147368,33.8568777 98.9323889,33.9731538 C99.5556846,34.0899467 100.202181,33.8186358 100.378385,33.2961687" id="Fill-29" fill="#1D1D1B"></path>
                <path d="M91.620615,63.7145121 C91.6030149,64.1278684 91.5039514,64.1212588 91.3224188,63.6936664 C91.123286,63.4963942 91.0156739,63.2564137 91.0000852,62.9742332 C90.8321298,62.4571565 90.7903924,61.8490702 90.7365863,61.3080971 C90.6596487,60.5296857 90.6495915,59.7522911 90.6812717,58.9743881 C90.7265291,59.0165881 90.7758094,59.0572627 90.8336384,59.0938699 C91.6070378,59.5860334 91.8127077,60.3812231 91.8594737,61.2582707 C91.8906511,61.8495786 91.959543,63.1857415 91.620615,63.7145121 M93.7452005,61.2582707 C93.6753029,59.680602 93.1412651,58.3108826 91.7850504,57.4475628 C91.3737105,57.1857196 90.9774565,57.2945243 90.712449,57.5584012 C90.4610188,56.7088091 88.957466,56.8303247 88.8614196,57.9117624 C88.6824013,59.9277006 88.6698298,62.3442843 89.4050118,64.2661623 C89.9023408,65.5672432 91.4954028,66.6400376 92.7525539,65.5504649 C93.7482176,64.6876536 93.7985037,62.468342 93.7452005,61.2582707" id="Fill-31" fill="#1D1D1B"></path>
                <path d="M87.1854325,69.7155368 C89.2383756,71.0411966 91.7790426,71.359837 94.1151157,70.5822773 C95.2491366,70.2048258 94.7619128,68.4578472 93.6158864,68.8391552 C91.7100109,69.4735437 89.809638,69.2378172 88.1323675,68.1546327 C87.1269057,67.5053004 86.1864737,69.0705431 87.1854325,69.7155368" id="Fill-33" fill="#020203"></path>
                <path d="M72.1782618,27.6426994 C71.1668956,31.7980325 71.9870371,35.8721308 74.638079,39.5638073 C75.3556269,40.5633295 77.3231165,39.6664199 76.6037474,38.6645223 C74.2623074,35.4041986 73.4779826,31.7956573 74.3733998,28.1163323 C74.6459709,26.9961453 72.452654,26.5158615 72.1782618,27.6426994" id="Fill-35" fill="#020203"></path>
                <path d="M110.145093,28.1160667 C111.041753,31.7978061 110.257403,35.4040105 107.914674,38.6643689 C107.196496,39.6648519 109.162227,40.5641464 109.880405,39.5636634 C112.532746,35.8719477 113.351699,31.796856 112.340301,27.6424288 C112.066507,26.5174792 109.872513,26.9939676 110.145093,28.1160667" id="Fill-37" fill="#020203"></path>
                <path d="M116.302965,10.7160438 C115.244301,8.82315677 113.144296,8.61653537 111.364778,9.3989548 C111.086638,9.52136084 110.679533,9.71721051 110.274835,9.95076124 C109.787849,8.50636993 109.003957,7.23040934 107.553587,6.50870331 C106.021892,5.7468481 104.45555,5.93143642 103.17986,7.08303247 C102.585083,7.62015018 101.993675,8.19594821 101.395048,8.76831887 C101.305062,8.09704413 101.247317,7.4928479 101.206895,7.17067519 C100.833956,4.22852355 97.4313135,2.05704035 95.0454694,4.57370859 C94.4482866,5.2038549 93.851585,5.83351158 93.2544021,6.46316827 C92.8795388,6.8587846 91.8540781,7.62798417 91.3974089,8.24246251 C91.331483,7.65736162 90.9912668,6.73148231 90.9436269,6.22912791 C90.6202532,2.85610699 86.0776214,0.915726401 84.2177409,4.37590042 L82.3246569,7.89825671 C81.5239218,6.8103118 80.7231867,5.72236689 79.9224516,4.63491161 C78.2728604,2.39341215 76.3841072,-0.745568413 73.1003234,0.15974668 C70.0398215,1.00336913 69.5850771,4.21285557 69.210695,6.91704987 C69.1693108,7.21621024 69.13322,7.51537061 69.0956856,7.81453098 C68.2198816,6.77407961 66.9234991,6.20562595 65.4639862,6.62131687 C63.739326,7.11289954 62.222549,9.27654876 62.9429218,11.1385895 C64.4750976,15.1016075 66.8864459,18.2288371 70.4575127,20.4967763 C72.7355655,21.9441053 75.9885518,20.0791269 75.8879787,17.3259701 C75.8153158,15.3532743 75.82494,13.3874333 75.9539046,11.4176753 C75.961604,11.4279574 75.9697846,11.4387291 75.9770027,11.4490112 C77.2156398,13.1323391 78.4552393,14.8151774 79.6943576,16.4985053 C81.2270146,18.5813665 84.5055051,19.1419862 85.9265212,16.4985053 C86.2855046,15.8311475 86.6435255,15.1642794 87.0025089,14.4969217 C87.7301,15.127068 88.6140845,15.6196299 89.693922,15.9187903 C91.9483955,16.5440403 93.8246371,15.7963842 95.4809654,14.5253199 C96.0911409,15.9726489 96.9833061,17.1761451 98.3388774,17.7578187 C100.547636,18.7042622 102.685656,17.4841187 104.580665,15.8492636 C105.157156,16.893632 105.983395,17.7289308 107.127715,18.2229616 C110.552975,19.7021162 112.234326,16.9592416 115.008507,15.7400774 C116.811605,14.9478655 117.182619,12.2892063 116.302965,10.7160438" id="Fill-39" fill="#020203"></path>
                <path d="M99.8700745,49.7781939 C99.8599396,49.7425364 99.8475524,49.710298 99.8402328,49.6721981 C99.8498046,49.7093211 99.8599396,49.7430248 99.8700745,49.7781939 M102.29795,45.0782319 C101.894805,44.2629922 101.257432,43.5532598 100.296867,43.2098725 C96.1297276,41.7215349 96.4703734,48.5741401 97.2237354,50.3956074 C97.7130266,51.578169 99.0429528,53.2032754 100.717466,52.9790722 C101.710688,52.8462111 102.273176,52.0944712 102.600871,51.187401 C102.714044,51.120482 102.81652,51.0335361 102.912238,50.936821 C103.197142,50.8386406 103.434186,50.6452104 103.514703,50.357019 C103.858727,49.1270768 104.112663,45.7811259 102.29795,45.0782319" id="Fill-41" fill="#FDECDB"></path>
                <path d="M80.9103414,50.5700294 C81.0295577,50.6010332 81.1511679,50.6287486 81.2766084,50.6484783 C81.2933657,50.6898166 81.3072503,50.7316246 81.3249652,50.7724932 C81.2627237,50.8495327 81.2004823,50.9265723 81.1391984,51.0036118 C81.046315,50.9030846 80.9706677,50.7551123 80.9103414,50.5700294 L80.9103414,50.5700294 Z M80.6853147,48.5106305 C80.7039871,48.5341182 80.7255322,48.5557268 80.7446834,48.5792145 C80.7255322,48.5665312 80.7039871,48.5561966 80.6853147,48.5435132 L80.6853147,48.5106305 Z M82.1527763,42.4550394 C82.0168027,42.5363067 81.9176952,42.6466988 81.8262481,42.7636674 C81.761134,42.6490475 81.697935,42.5363067 81.6376087,42.4277937 C81.3388498,41.8936841 80.7360654,41.9058976 80.3319748,42.2112374 C78.8764827,41.8739544 77.9495641,43.9483854 77.7901303,45.4515963 C77.6302176,46.9566862 78.0999011,48.469762 79.065601,49.4839596 C79.1594419,50.7973901 79.3882989,52.7633081 80.7638347,52.9831527 C81.3043776,53.0695873 81.8329511,52.8154507 82.3069435,52.4039467 C82.6540593,52.6857988 83.1926871,52.7595501 83.524003,52.3823381 C84.4408673,51.3399553 84.6065253,50.0415569 84.3791046,48.6891368 C84.6017375,48.3358822 84.7405838,47.9084066 84.755426,47.433486 C84.7942072,46.164682 84.5576897,43.6200278 83.6302923,42.6570333 C83.214711,42.2262695 82.6779983,42.1412441 82.1527763,42.4550394 L82.1527763,42.4550394 Z" id="Fill-43" fill="#FDECDB"></path>
                <path d="M93.9032549,106.012539 C93.2715037,107.198785 92.6397524,108.385032 92.0080012,109.571278 C91.396645,108.961981 90.7847915,108.353167 90.1734353,107.74387 C88.6900635,106.266976 88.76269,104.870228 89.1462177,102.993091 C89.6934039,100.309673 90.1356297,97.6074266 90.4863263,94.8935926 C90.9519319,91.2885047 91.2275148,87.6689328 91.3314801,84.0426016 C91.5941295,86.782507 91.9114974,89.5171015 92.3363128,92.2401088 C92.7770464,95.0678843 93.3346788,97.8797273 94.0659184,100.651015 C94.5867401,102.624712 94.9170416,104.109814 93.9032549,106.012539 M95.8646685,100.169661 C95.4418428,98.56579 95.076223,96.9484009 94.7578602,95.3213558 C93.4351621,88.5756363 92.9516485,81.7101817 92.4596784,74.8703156 C92.3766056,73.7144859 90.5107009,73.7053127 90.5942712,74.8703156 C90.6400358,75.5085808 90.6862979,76.146846 90.7330575,76.7851112 C90.1813944,76.5987494 89.4546317,76.8691189 89.4730371,77.6015306 C89.6541059,84.5485788 89.237747,91.4970755 88.1100462,98.3620472 C87.8573457,99.9041191 87.5708191,101.440397 87.2514614,102.970882 C87.0499974,103.93697 86.6445823,105.068177 86.7903327,106.075786 C87.11367,108.299575 90.0744444,110.238994 91.5826883,111.740993 C91.9856163,112.141719 92.772072,112.075093 93.0471574,111.557528 C93.8699263,110.014008 94.6921978,108.470005 95.5139719,106.926485 C95.9706236,106.06951 96.6312265,105.126596 96.7401663,104.133954 C96.8834295,102.831352 96.189498,101.398876 95.8646685,100.169661" id="Fill-45" fill="#020203"></path>
                <path d="M129.561315,90.0633965 C134.18223,89.6475306 138.945414,91.2949808 142.371739,94.4952558 C142.52871,94.6418037 142.690423,94.8038798 142.74164,95.0144817 C142.815146,95.3158267 142.646319,95.6166866 142.492194,95.8840636 C141.087519,98.3190872 140.388502,101.174344 140.505163,104 C140.505163,104 133.012774,99.0658989 128.759389,100.371728" id="Fill-47" fill="#FEFEFE"></path>
                <path d="M141.822291,92.6848459 C138.263998,89.9776732 133.878318,88.7498647 129.463175,89.0422001 C128.305897,89.118846 128.297686,90.961787 129.463175,90.8846498 C133.318999,90.6291634 137.112999,91.5705324 140.304692,93.8310953 C140.984279,94.1897588 141.499645,94.7105579 141.851272,95.3915274 L141.443616,96.1437381 C141.161541,97.0286053 140.671292,97.845179 140.395497,98.7452771 C140.022617,99.9598199 139.824585,101.198929 139.745373,102.45376 C136.388492,100.439839 132.157857,98.5752804 128.405396,99.5122275 C127.273716,99.7947364 127.752857,101.571841 128.886951,101.28884 C132.623956,100.355824 137.080637,102.877769 140.152545,104.86958 C140.733117,105.245931 141.523795,104.754611 141.515101,104.074133 C141.494331,102.430668 141.651791,100.808329 142.141557,99.2356144 C142.516369,98.0333545 143.334095,96.9686643 143.674613,95.784092 C144.09531,94.3204499 142.86703,93.4798016 141.822291,92.6848459" id="Fill-49" fill="#020203"></path>
                <path d="M49.7394209,88.3601784 C48.8183385,81.1048006 45.8187902,73.1840634 39.8925532,68.4508394 C34.5979296,64.221852 25.9345371,64.4426678 23.0698774,57.5182711 C21.6126867,53.9954091 15.6977724,54.0352045 15.8178922,58.4854931 C15.8868134,61.0513247 16.9260463,62.9178252 18.4078517,64.4829485 C17.4921846,64.7513247 16.5696254,64.9498163 15.6258975,64.9857292 C12.4525693,65.1056007 11.3616455,62.5368572 11.1563588,59.8496982 C10.801907,55.2072271 3.41454096,55.1693729 3.77194651,59.8496982 C4.19531949,65.3948451 6.52584001,70.1406872 12.2876508,71.777151 C14.8657953,72.5089978 17.2804981,72.1867523 19.8138438,71.4665529 C21.7126224,70.9264034 23.8733014,69.8960912 25.8705388,69.8349422 C27.6152293,70.5968782 29.440656,71.193809 31.2877437,71.8878016 C37.922392,74.3808368 41.5126933,81.7264821 42.3550086,88.3601784 C42.6026325,90.3106375 43.8747206,92 46.0472147,92 C47.8499959,92 49.989014,90.3242261 49.7394209,88.3601784" id="Fill-51" fill="#FDECDB"></path>
                <path d="M4.53412804,57.2762345 C2.83190473,59.0416458 4.35924208,63.2033892 5.09230572,65.1617708 C6.10470109,67.8638418 7.97646663,69.9714473 10.7173182,70.9771291 C17.9041594,73.6130943 25.9936065,67.858981 32.7578067,71.9808665 C40.2968489,76.5756995 40.3293971,87.2230935 42.2273955,94.8456652 C43.2883703,99.1080253 44.6505376,103.302335 46.3236132,107.363948 C47.4346249,110.0597 48.74044,112.775867 50.7904921,114.894652 C56.5826178,120.879649 64.423824,117.216615 69.4853151,112.284935 C70.3271966,111.464933 69.0378985,110.176843 68.1974743,110.995874 C64.9888028,114.122285 60.3004018,117.476178 55.5697366,115.898876 C51.6469475,114.59183 49.5614324,110.44078 48.0807313,106.879335 C46.2211106,102.406992 44.7627561,97.7514001 43.6634035,93.0355353 C42.62769,88.594787 42.1559837,83.9839137 40.6092146,79.6758629 C38.0354763,72.5077679 32.5396851,68.0067467 24.7412288,68.8009874 C20.6999058,69.2126899 16.5711398,70.5508445 12.5060129,69.6068938 C10.1358224,69.0561749 8.27231537,67.6869118 7.19045141,65.4811197 C6.68376793,64.4477319 4.83969267,59.5845876 5.8219688,58.5648098 C6.63616008,57.7205038 5.34977671,56.4299842 4.53412804,57.2762345" id="Fill-53" fill="#020203"></path>
                <path d="M33.8584891,62.416187 C30.6602707,62.4885784 27.5849841,61.4614042 25.228376,59.2906427 C24.0398691,58.1964576 22.8936666,55.624609 20.8555863,56.0462396 C17.3403332,56.7735768 18.9105758,63.1997742 20.7590325,64.764992 C21.664846,65.5324379 22.9907181,64.2401549 22.0789322,63.4678178 C21.0576524,62.603524 19.5172718,57.3194465 22.3203166,58.7980882 C23.2699276,59.2984688 24.26035,60.9629801 25.2104588,61.6492303 C27.7293171,63.468796 30.7483635,64.3213506 33.8584891,64.2504267 C35.0574477,64.2230354 35.061927,62.3887957 33.8584891,62.416187" id="Fill-55" fill="#020203"></path>
                <path d="M52.9574625,90.0633965 C48.3365475,89.6475306 43.5728888,91.2949808 40.147038,94.4952558 C39.9900673,94.6418037 39.8283542,94.8038798 39.7771372,95.0144817 C39.7036312,95.3158267 39.8724578,95.6166866 40.0265831,95.8840636 C41.4307836,98.3190872 42.1302755,101.174344 42.0136145,104 C42.0136145,104 49.5060032,99.0658989 53.7593885,100.371728" id="Fill-57" fill="#FEFEFE"></path>
                <path d="M54.1134319,99.5121878 C50.3634018,98.5752339 46.1360512,100.440298 42.7817772,102.454233 C42.7011781,101.199393 42.5013695,99.9612574 42.1331233,98.7457231 C41.9024265,97.9856457 41.6060921,97.2471865 41.2672863,96.5313282 C40.5723,95.0622711 40.8145799,94.829875 42.223375,93.8310144 C45.4125898,91.5709264 49.2036434,90.6295507 53.0569563,90.8845476 C54.2196104,90.9616853 54.2152667,89.1192223 53.0569563,89.0420845 C48.6452413,88.7502384 44.2629667,89.9775644 40.7074362,92.6847568 C39.7175634,93.438447 38.4926501,94.2658357 38.8107028,95.6744601 C39.083871,96.8855725 40.0114847,98.0274082 40.3879356,99.2355726 C40.8773217,100.808299 41.0346589,102.431141 41.0139058,104.074126 C41.0052185,104.754609 41.7957654,105.245933 42.3758859,104.869579 C45.4420302,102.879719 49.9020081,100.357264 53.6327331,101.288813 C54.7640163,101.571324 55.246163,99.7951901 54.1134319,99.5121878" id="Fill-59" fill="#020203"></path>
            </g>
        </g>
    </g>
</svg>