<?xml version="1.0" encoding="UTF-8"?>
<svg width="152px" height="120px" viewBox="0 0 152 120" version="1.1" xmlns="http://www.w3.org/2000/svg" xmlns:xlink="http://www.w3.org/1999/xlink">
    <!-- Generator: Sketch 60.1 (88133) - https://sketch.com -->
    <title>Group 79</title>
    <desc>Created with Sketch.</desc>
    <defs>
        <polygon id="path-1" points="0.39391166 0.42888195 22.9517885 0.42888195 22.9517885 52.7057405 0.39391166 52.7057405"></polygon>
        <polygon id="path-3" points="0.398119815 0.374236887 47.7344639 0.374236887 47.7344639 28.8461538 0.398119815 28.8461538"></polygon>
        <polygon id="path-5" points="0 0.0883150037 78.7915424 0.0883150037 78.7915424 62.8977101 0 62.8977101"></polygon>
        <polygon id="path-7" points="0.223184756 0.141464789 46.6470688 0.141464789 46.6470688 30.7968845 0.223184756 30.7968845"></polygon>
    </defs>
    <g id="Page-1-Jakub" stroke="none" stroke-width="1" fill="none" fill-rule="evenodd">
        <g id="Home" transform="translate(-274.000000, -1855.000000)">
            <g id="Group-79" transform="translate(274.000000, 1855.000000)">
                <g id="Group-3" transform="translate(129.000000, 15.030303)">
                    <mask id="mask-2" fill="white">
                        <use xlink:href="#path-1"></use>
                    </mask>
                    <g id="Clip-2"></g>
                    <path d="M9.30376538,52.7057405 C14.9339,47.2121372 24.0790538,36.553005 22.8374962,28.8224512 C22.2129577,24.9359306 21.6905923,20.5566413 21.6043423,16.440162 C21.1416885,-5.5701686 6.12180385,1.51606281 6.12180385,1.51606281 C6.12180385,1.51606281 7.48632308,13.7717653 6.52209231,19.2176248 C5.85199615,23.0025256 -3.72086923,36.3869967 2.46657308,42.1539223 C8.50451538,47.7815587 9.18965,50.9966 9.18965,50.9966 L9.30376538,52.7057405 Z" id="Fill-1" fill="#020203" mask="url(#mask-2)"></path>
                </g>
                <path d="M137.729878,13.6473869 C139.031734,16.8045558 140.166606,20.2973981 139.290603,23.7154032 C138.293117,27.6086904 135.074038,30.51115 131.942426,32.8289164 C129.691235,34.4945921 131.891182,38.2955363 134.171971,36.6075407 C138.127017,33.6805729 141.961905,30.1907941 143.417934,25.3539449 C144.718024,21.0335165 143.663993,16.5428442 141.989735,12.4841273 C140.928636,9.91165177 136.653317,11.0372739 137.729878,13.6473869" id="Fill-4" fill="#FDECDB"></path>
                <path d="M102.116255,80.1049057 C106.761476,79.8192295 111.184723,81.7821807 115.905837,81.708616 C121.245056,81.624834 129.67524,83.1701012 134.933303,83.9825823 C139.012183,84.6131952 140.766479,78.7966803 136.655575,78.1615718 C131.571231,77.375247 123.022164,75.5737295 117.849206,75.6031554 C112.489807,75.634216 107.416869,73.7419687 102.116255,74.0681055 C97.9763968,74.3227211 97.9461277,80.3611561 102.116255,80.1049057" id="Fill-6" fill="#FDECDB"></path>
                <path d="M103.133143,69.8510293 C108.849639,69.9858436 114.573165,70.0426318 120.287025,70.2605507 C125.058388,70.4429194 132.958665,71.6502458 137.666316,70.6169775 C141.752666,69.7203703 140.023217,63.1449427 135.940821,64.0410882 C131.78329,64.9538547 122.637775,63.5082949 118.293062,63.3896398 C113.240488,63.2515937 108.186596,63.150483 103.133143,63.0313663 C98.9549599,62.9325641 98.9562781,69.7522271 103.133143,69.8510293" id="Fill-8" fill="#FDECDB"></path>
                <path d="M99.0928671,91.6795225 C105.113803,92.115077 111.663639,91.8943781 117.56433,93.185759 C123.192729,94.417358 128.107502,97.2014909 133.945022,97.9970859 C138.038125,98.5549013 137.998479,91.9101102 133.945022,91.3576886 C128.036053,90.5522049 122.992757,87.1774439 117.137375,86.4097172 C111.177434,85.6280564 105.085484,85.4734323 99.0928671,85.0401252 C94.9601179,84.7407657 94.9779803,91.3815115 99.0928671,91.6795225" id="Fill-10" fill="#FDECDB"></path>
                <path d="M88.7513145,101.18838 C93.5152709,101.737778 98.3905741,102.029445 103.114162,102.852625 C107.503265,103.617563 111.042407,105.697297 114.935996,107.764648 C117.444182,109.096411 120.950496,110.152099 123.121536,112.024547 C126.981854,115.353496 132.573148,109.63251 128.681778,106.276504 C125.834671,103.821639 122.175311,102.48208 118.904998,100.745835 C115.009192,98.6775664 111.285507,96.4010954 106.972705,95.3665026 C101.078867,93.9526508 94.7635969,93.752703 88.7513145,93.0597643 C83.7296192,92.481016 83.7695443,100.614218 88.7513145,101.18838" id="Fill-12" fill="#FDECDB"></path>
                <path d="M74.8349414,94.268864 C78.0301463,94.6024309 81.2752408,94.8018921 84.4309875,95.3905146 C89.9515033,96.4200735 93.5294978,96.5299894 98.2744564,93.2452464 C102.388538,90.3971961 98.3833065,83.8654806 94.2166142,86.7496037 C92.3140046,88.0668959 91.168357,88.9131204 88.8902145,88.6262359 C86.7331678,88.3542048 84.6214752,87.787226 82.4453797,87.5402337 C79.9118929,87.2533491 77.371603,87.0110251 74.8349414,86.7462086 C69.7012972,86.2106342 69.742116,93.7375335 74.8349414,94.268864" id="Fill-14" fill="#FDECDB"></path>
                <path d="M59.6379898,93.2068012 C59.4365782,91.8810252 62.8288424,91.8576215 63.5533951,91.9668387 C65.1580766,92.2091103 66.8196118,92.9536945 68.3683212,93.4091998 C71.5807693,94.3544491 74.8042356,95.2918971 78.1722599,94.7865506 C83.1260145,94.0432666 81.0215502,86.6394641 76.0955613,87.3784141 C74.2489215,87.6553579 71.2568361,86.2459353 69.4877639,85.7128511 C67.3405493,85.0666491 64.9645981,84.0529223 62.6776735,84.0308188 C56.4449335,83.970576 51.184434,89.1956678 52.1051096,95.2489903 C52.8464098,100.121726 60.3748828,98.0509328 59.6379898,93.2068012" id="Fill-16" fill="#FDECDB"></path>
                <path d="M79.9181679,117.030303 L111.14447,113.344464 C112.143832,113.226617 112.323204,111.836114 111.386137,111.463825 L55.1086348,89.0979209 C54.9601885,89.0389974 54.7993716,89.0180171 54.6407638,89.0372119 L21,93.055611" id="Fill-18" fill="#FDECDB"></path>
                <path d="M123.322793,81.6265277 C122.749627,85.1501996 122.307364,88.6859113 122.003484,92.2403518 C121.91232,93.2962939 123.639763,93.2909429 123.729525,92.2403518 C124.02125,88.8330654 124.438268,85.4427241 124.988057,82.0639767 C125.15636,81.0276551 123.492966,80.5808417 123.322793,81.6265277" id="Fill-20" fill="#020203"></path>
                <path d="M97.0023728,85.7747817 C89.473193,88.266145 81.3582533,87.5755225 73.8948942,85.0320534 C69.4455924,83.5152451 66.4023796,80.7386247 61.8285045,79.9928054 C53.7250502,78.6711729 44.6629994,77.3296696 40.0997263,86.0997806 C39.6160105,87.0297364 41.0234246,87.8550392 41.5084657,86.9228754 C46.8152033,76.7233879 61.7282273,80.2921929 69.6532147,84.8505663 C77.6665521,89.4601624 88.8070347,90.2024491 97.4357292,87.3472285 C98.4278987,87.0191386 98.0029356,85.4436009 97.0023728,85.7747817" id="Fill-22" fill="#020203"></path>
                <path d="M50.021369,83.0905078 C48.1086454,83.8553316 46.0277994,84.6401747 44.5802734,86.2116807 C43.1362684,87.7790918 42.5399176,89.9452586 42.0293886,91.9867604 C41.7675224,93.0341277 43.3347586,93.4809195 43.5966248,92.4330972 C44.0354157,90.6777787 44.4962122,88.7623068 45.7294039,87.3996373 C46.9617155,86.0378777 48.8167845,85.3654151 50.4531181,84.7106968 C51.4187222,84.3248725 50.9992962,82.6996787 50.021369,83.0905078" id="Fill-24" fill="#020203"></path>
                <path d="M52.0212822,84.090508 C50.1085793,84.855334 48.0277558,85.6401793 46.5802455,87.2116898 C45.1362561,88.7786504 44.5399118,90.9448234 44.0293882,92.9863311 C43.7675249,94.0341564 45.3347441,94.4809495 45.5966075,93.4331242 C46.0353937,91.6773457 46.4966253,89.7623232 47.7293636,88.3996498 C48.9616618,87.0378864 50.8167107,86.3649668 52.4534668,85.7107016 C53.4186203,85.3248762 52.9991988,83.6996778 52.0212822,84.090508" id="Fill-26" fill="#020203"></path>
                <path d="M54.0213784,86.0905078 C52.1086732,86.8553316 50.0278472,87.6401747 48.5803351,89.2116807 C47.136344,90.7790918 46.5399989,92.9452586 46.0294748,94.9867604 C45.767171,96.0341277 47.3348322,96.4809195 47.5962558,95.4330972 C48.0354826,93.6777787 48.4962747,91.7623068 49.7294546,90.3996373 C50.9617543,89.0378777 52.8168054,88.3654151 54.4531234,87.7106968 C55.4187182,87.3248725 54.9992962,85.6996787 54.0213784,86.0905078" id="Fill-28" fill="#020203"></path>
                <path d="M110.123479,66.0779615 C110.692185,70.1856194 109.970504,73.7246012 108.548286,77.5192388 C107.579595,80.1033504 106.770178,82.4336129 107.05948,85.23318 C107.169262,86.2905835 108.83174,86.301424 108.721058,85.23318 C108.302177,81.1842417 110.504566,77.9749928 111.436814,74.1866788 C112.137349,71.3428461 112.124301,68.5175327 111.725666,65.6344031 C111.57899,64.5756446 109.978152,65.02643 110.123479,66.0779615" id="Fill-30" fill="#020203"></path>
                <path d="M111.033832,58.060548 C108.100089,61.0582586 107.8935,65.3505535 113.409607,65.0113716 C120.175845,64.5952122 126.539056,60.9387831 130.797089,56.324546 C131.46718,55.5992741 130.319462,54.546447 129.644957,55.2777328 C127.41088,57.6989143 124.822777,59.716766 121.721291,61.1793377 C120.129495,61.9294669 118.465745,62.5252404 116.733574,62.9458099 C113.806012,63.6566486 109.227059,62.1307309 112.186405,59.1073612 C112.881657,58.3977253 111.732615,57.3469028 111.033832,58.060548" id="Fill-32" fill="#020203"></path>
                <path d="M117.5,34.6736748 L117.5,34.3869313 C117.5,33.2457211 115.5,33.2437999 115.5,34.3869313 L115.5,34.6736748 C115.5,35.814885 117.5,35.8168062 117.5,34.6736748" id="Fill-34" fill="#020203"></path>
                <path d="M104.5,32.6736748 L104.5,32.3869313 C104.5,31.2457211 102.5,31.2437999 102.5,32.3869313 L102.5,32.6736748 C102.5,33.814885 104.5,33.8168062 104.5,32.6736748" id="Fill-36" fill="#020203"></path>
                <path d="M115.345261,29.9807671 C116.974094,28.5897456 119.964642,31.0063098 120.607962,32.6038489 C120.99495,33.5629008 122.314773,32.7355094 121.930689,31.7830625 C120.831113,29.0529791 116.687482,26.7592686 114.262276,28.8310497 C113.494107,29.4867101 114.583729,30.6311435 115.345261,29.9807671" id="Fill-38" fill="#020203"></path>
                <path d="M104.666782,27.2894566 C102.594903,24.9176415 100.60476,26.4662444 99.361385,27.3338779 C98.5254506,27.9179711 99.2903822,29.4278235 100.13127,28.8408949 C100.895789,28.3068939 102.667557,27.004026 103.897722,28.796001 C104.503311,29.6792293 105.53409,27.8187319 104.666782,27.2894566" id="Fill-40" fill="#020203"></path>
                <path d="M107.791266,50.9392476 C109.442426,51.0837964 111.162329,51.1698374 112.668416,50.2789446 C114.115134,49.4234515 115.057443,47.8973305 115.87789,46.3815345 C116.42292,45.3760843 114.998521,44.4615917 114.45483,45.4650753 C113.754013,46.7586398 112.992935,48.0998956 111.713163,48.7626569 C110.489188,49.3964101 109.100499,49.2385863 107.791266,49.1235373 C106.733345,49.0311047 106.739148,50.8473066 107.791266,50.9392476" id="Fill-42" fill="#020203"></path>
                <path d="M112.980854,57.0420248 C108.994824,57.6825761 104.686007,59.8439263 102.530279,63.5356086 C101.077295,66.023817 100.88072,69.2011515 100.285718,71.9812625 C99.3468202,76.3647947 98.3401981,80.7129173 97.0411323,85.000208 C96.7280196,86.0320813 98.2953421,86.4737939 98.6066957,85.4460063 C100.280441,79.9230099 101.298937,74.2887909 102.6411,68.6836259 C104.022841,62.9145779 107.620999,59.5892492 113.412264,58.6586112 C114.441754,58.4929122 114.004627,56.8776877 112.980854,57.0420248" id="Fill-44" fill="#020203"></path>
                <path d="M121.939505,40.3749811 C121.795368,38.9606063 121.07191,37.7798793 119.408327,38.1976254 C118.845638,37.94021 118.165606,37.9510867 117.382553,38.4336903 C115.728209,39.4520724 115.717121,41.3768467 116.519577,42.8435909 C116.500636,42.9733057 116.485853,43.1026177 116.481695,43.231124 C116.43134,44.6040062 117.539163,46.5191124 119.444361,45.9160594 C119.612983,45.8628844 119.761278,45.7895673 119.901258,45.7085962 C120.079581,45.6759661 120.245431,45.6046633 120.400194,45.5043558 C120.499058,45.5164411 120.600693,45.5261093 120.708796,45.5289291 C121.11626,45.5398059 121.392985,45.2844046 121.531117,44.9826767 C121.608729,44.8142892 121.683108,44.6402619 121.755176,44.4638175 C122.449529,44.0210952 122.933683,43.32982 122.994202,42.5084272 C123.055645,41.6689065 122.623695,40.8958546 121.939505,40.3749811" id="Fill-46" fill="#FDECDB"></path>
                <path d="M103.939501,40.3749811 C103.795364,38.9606063 103.071907,37.7798793 101.408324,38.1976254 C100.845635,37.94021 100.165604,37.9510867 99.3825516,38.4336903 C97.728209,39.4520724 97.7171215,41.3768467 98.519577,42.8435909 C98.5010979,42.9733057 98.4858526,43.1026177 98.4816948,43.231124 C98.4313393,44.6040062 99.5396241,46.5191124 101.444821,45.9160594 C101.612981,45.8628844 101.761276,45.7895673 101.901255,45.7085962 C102.079578,45.6759661 102.245428,45.6046633 102.400191,45.5043558 C102.499054,45.5164411 102.600689,45.5261093 102.708792,45.5289291 C103.116257,45.5398059 103.392981,45.2844046 103.531113,44.9826767 C103.608725,44.8142892 103.683103,44.6402619 103.755172,44.4638175 C104.449525,44.0210952 104.933677,43.32982 104.994197,42.5084272 C105.05564,41.6689065 104.624152,40.8958546 103.939501,40.3749811" id="Fill-48" fill="#FDECDB"></path>
                <path d="M107.716715,44.030303 C107.097598,44.030303 106.242422,43.912407 105.638628,43.3564887 C105.025735,42.7902437 104.852881,41.9533543 105.124851,40.8686252 C105.359953,39.932772 105.828241,39.2895073 106.517266,38.9581938 C106.947248,38.7546726 107.364302,38.7172385 107.704266,38.7322982 C108.067213,37.9823248 108.80412,35.8993522 108.523531,31.7050088 C108.500068,31.3539024 108.796938,31.0531386 109.18622,31.032055 C109.598007,31.0058081 109.911636,31.2777434 109.935098,31.6279891 C110.338745,37.6484296 108.730382,39.7266691 108.661431,39.8122943 C108.474691,40.0455046 108.130897,40.137584 107.834027,40.0330266 C107.831154,40.0330266 107.48305,39.9301903 107.172295,40.0855204 C106.872073,40.2356872 106.64176,40.6031441 106.503859,41.149166 C106.394209,41.5871883 106.330526,42.1719352 106.652773,42.4688266 C107.054505,42.8384348 107.984856,42.7614152 108.209423,42.7218297 C108.585299,42.6521247 108.965005,42.8758689 109.041616,43.2209514 C109.11727,43.5660338 108.868283,43.899929 108.485704,43.9679128 C108.412444,43.9816817 108.112701,44.030303 107.716715,44.030303" id="Fill-50" fill="#020203"></path>
                <path d="M96.5201834,12.6196301 C93.6205854,24.6586321 94.6208834,38.6731072 101.681757,49.259411 C107.645559,58.2010497 116.79928,55.6362829 123.743935,49.1214627 C124.524909,48.38931 123.342369,47.2250085 122.563204,47.955822 C118.545732,51.7246229 112.929231,55.0751146 107.201937,52.6366888 C102.867011,50.7906817 100.188546,43.2004006 98.9092314,39.2713296 C96.1195215,30.7015709 96.0317919,21.7706466 98.1305184,13.0575825 C98.378784,12.0263185 96.7693534,11.586134 96.5201834,12.6196301" id="Fill-52" fill="#020203"></path>
                <g id="Group-56" transform="translate(65.000000, 91.030303)">
                    <mask id="mask-4" fill="white">
                        <use xlink:href="#path-3"></use>
                    </mask>
                    <g id="Clip-55"></g>
                    <path d="M46.9582691,21.0288031 C39.1495418,17.82688 31.3373236,14.6331372 23.5325236,11.4221728 C16.0711418,8.35242537 8.65819636,5.12423938 1.98619636,0.565685993 C0.829396364,-0.22521527 -0.262821818,1.63988232 0.885250909,2.42432549 C7.49441455,6.93982491 14.8331782,10.1482061 22.2216873,13.1968571 C29.1877964,16.07157 36.1652509,18.9217423 43.1392145,21.7783726 C33.4597964,23.9693886 23.66736,25.6162026 13.7924509,26.6860936 C12.4117964,26.8354908 12.3960873,28.989911 13.7924509,28.8387916 C24.9642327,27.6285448 36.03696,25.7221154 46.9582691,23.1044346 C48.1115782,22.8280281 47.8676509,21.4016504 46.9582691,21.0288031" id="Fill-54" fill="#020203" mask="url(#mask-4)"></path>
                </g>
                <path d="M80.7305424,105.116781 C80.5291307,103.792469 84.8288528,99.848541 85.5529655,99.9576376 C87.1580893,100.200074 88.819626,100.943403 90.3683369,101.398838 C93.5803474,102.343043 96.8046983,103.279023 100.172285,102.774234 C105.126044,102.031772 103.021578,94.6365816 98.0951438,95.3747152 C96.2493836,95.651353 93.2568546,94.2434875 91.48734,93.7109923 C89.3405641,93.0650712 86.9650513,92.0528974 84.6776838,92.0308183 C78.4449378,91.970642 73.1844332,97.1899612 74.1051097,103.236596 C74.8459699,108.103516 81.4674362,108.377123 80.7305424,103.538343 L80.7305424,105.116781 Z" id="Fill-57" fill="#FDECDB"></path>
                <path d="M122.57024,98.6871262 C117.593443,96.778057 112.21597,96.0057772 106.917746,95.1746151 C102.007802,94.4043381 96.6617633,94.826929 92.1117639,93.4738371 C84.4803208,91.2042638 76.380463,90.8229306 72.1000899,98.2689415 C71.6148511,99.112521 73.0258512,99.8611677 73.5115327,99.0151849 C76.3503569,94.0770805 82.6017914,92.1796275 88.3201715,93.7209826 C90.1694804,94.2192794 91.930242,95.4265674 93.7866347,95.7670434 C98.155555,96.5689646 103.22754,96.0894943 107.781082,96.8052951 C112.49268,97.5463312 117.317618,98.2661376 121.74498,99.9645122 C122.702618,100.331826 123.536733,99.0580448 122.57024,98.6871262" id="Fill-59" fill="#020203"></path>
                <path d="M83.0212822,94.090508 C81.1085793,94.855334 79.0277558,95.6401793 77.5802455,97.2116898 C76.1362561,98.7786504 75.5399118,100.944823 75.0293882,102.986331 C74.7675249,104.034156 76.3347441,104.480949 76.5966075,103.433124 C77.0353937,101.677346 77.4961852,99.7623232 78.7293636,98.3996498 C79.9616618,97.0378864 81.8167107,96.3649668 83.4534668,95.7107016 C84.4186203,95.3248762 83.9991988,93.6996778 83.0212822,94.090508" id="Fill-61" fill="#020203"></path>
                <path d="M85.0211711,95.0905224 C83.1084947,95.8553573 81.0277,96.6402117 79.5802098,98.2112855 C78.1362403,99.7787194 77.5399043,101.944918 77.0293878,103.986449 C76.7675281,105.033832 78.3347256,105.481085 78.5965854,104.433247 C79.0353655,102.677448 79.4965907,100.762404 80.7293119,99.3997143 C81.961593,98.0379351 83.8166162,97.3650077 85.4533496,96.7107349 C86.4184898,96.32445 85.9995142,94.6996876 85.0211711,95.0905224" id="Fill-63" fill="#020203"></path>
                <path d="M88.0213784,98.0905078 C86.1086732,98.8553316 84.0278472,99.6401747 82.5803351,101.211681 C81.136344,102.779092 80.5399989,104.945259 80.0294748,106.98676 C79.767171,108.034128 81.3348322,108.48092 81.5962558,107.433097 C82.0354826,105.677324 82.4962747,103.762307 83.7294546,102.399637 C84.9617543,101.037878 86.8168054,100.36496 88.4531234,99.7106968 C89.4187182,99.3248725 88.9992962,97.6996787 88.0213784,98.0905078" id="Fill-65" fill="#020203"></path>
                <path d="M74.9772502,117.668185 C70.4595316,116.283577 65.0508355,112.353258 61.5563012,111.706265 C58.0622033,111.059273 54.4616418,107.692731 51.1987965,108.098354 L20.9640282,96.0237683 L2.2369197,63.2205763 C2.2369197,63.2205763 -5.58945833,51.8448296 18.130964,59.9355081 C41.8513863,68.0266223 60.1727117,75.1313447 60.1727117,75.1313447 C60.1727117,75.1313447 67.6090144,77.1607675 77.4869969,111.212634 C77.4869969,111.212634 82.2054254,119.88321 74.9772502,117.668185" id="Fill-67" fill="#FEFEFE"></path>
                <g id="Group-71" transform="translate(0.000000, 56.030303)">
                    <mask id="mask-6" fill="white">
                        <use xlink:href="#path-5"></use>
                    </mask>
                    <g id="Clip-70"></g>
                    <path d="M74.4276363,61.081628 C65.9012791,57.9408797 57.9925978,53.5044462 49.3473066,50.8262853 C42.760356,48.785614 36.328367,45.5413343 29.9341418,42.945558 C27.3662077,41.9031944 24.5829769,41.051593 22.1196527,39.7735301 C20.3586473,38.8593692 21.4472846,39.9189147 20.2683615,37.9571035 C16.7841143,32.1589007 13.6258505,26.1307259 10.3121912,20.2307538 C7.75467473,15.6771315 4.95972418,11.1873902 2.61055934,6.51834126 C-0.018578022,1.29374685 4.32468571,0.960243357 9.05774066,1.8699986 C21.4902571,4.25959301 33.8185978,10.0128587 45.6707681,14.4457678 C49.9332956,16.0397119 55.485433,17.3657958 59.2796033,19.6377608 C62.7842516,21.7357049 64.9042297,26.342635 66.6465703,29.8653483 C69.6190538,35.8741385 71.851889,42.2679776 73.8720319,48.6604951 C74.6277407,51.0531734 75.2675538,53.510614 76.0849,55.8759776 C76.7177681,57.705621 79.5270429,62.2720196 74.4276363,61.081628 M76.0974879,50.4200895 C73.1705813,40.8573063 69.9545868,30.0737329 63.8642077,21.9608308 C62.5949989,20.2704042 61.3049549,18.9280196 59.4610429,17.974649 C50.0787077,13.123649 39.0738341,10.2274112 29.1675813,6.68178881 C25.9407352,5.52708252 -6.5477978,-7.91923217 1.18638901,7.26817343 C4.43016374,13.6386629 8.21435055,19.7813832 11.7124879,26.009572 C13.7586747,29.6529986 15.8052956,33.2964252 17.8519165,36.9402923 C18.5585758,38.1980895 19.1515099,39.8704531 20.2687956,40.7639077 C22.2863341,42.3776769 26.0601033,43.1147329 28.4205538,44.0729497 C33.3610923,46.0783762 38.3016308,48.0842434 43.2421692,50.0896699 C45.6356088,51.0611035 48.020367,52.1351874 50.4528725,52.9876699 C54.3230044,54.344593 58.1896637,55.5847678 62.0376582,57.0112993 C66.1018176,58.517572 69.7175868,61.0221524 73.780444,62.5610266 C73.8451198,62.5980336 73.9163066,62.630635 74.0018176,62.6504601 C74.0851582,62.6808587 74.162856,62.6931944 74.2375154,62.6971594 C82.4361527,64.4400126 77.302889,54.3591315 76.0974879,50.4200895" id="Fill-69" fill="#020203" mask="url(#mask-6)"></path>
                </g>
                <path d="M97.7952934,103.675321 C105.804252,102.974249 114.406883,107.345433 121.361523,110.727667 C123.906539,111.964621 127.107246,114.512579 129.544853,111.885312 C131.777978,109.479759 132.564448,103.943043 133.510908,100.923175 C135.084746,95.9013093 136.472978,90.8172231 137.620774,85.6862527 C139.324043,78.0739257 141.915798,68.6177795 137.774023,61.4265339 C137.250909,60.5186457 135.817287,61.3332037 136.3413,62.2432827 C140.861479,70.0926596 136.955645,81.8343004 134.86813,90.0491111 C133.938747,93.7091449 130.965442,111.357755 125.699241,111.098358 C122.597404,110.945875 117.367605,107.050106 114.487328,105.88545 C109.296178,103.787054 103.517647,101.556331 97.7952934,102.057159 C96.7396263,102.149613 96.7301886,103.768651 97.7952934,103.675321" id="Fill-72" fill="#020203"></path>
                <path d="M127,30.3103736 C130.042124,34.165445 133.977299,35.0741189 131.631491,39.3406164 C129.409472,43.3815628 131.815849,43.3457679 137.168855,35.931041 C137.168855,35.931041 144.453859,30.8235781 142.738492,24.030303" id="Fill-74" fill="#020203"></path>
                <g id="Group-78" transform="translate(96.000000, 0.030303)">
                    <mask id="mask-8" fill="white">
                        <use xlink:href="#path-7"></use>
                    </mask>
                    <g id="Clip-77"></g>
                    <path d="M31.2970413,30.7968845 C21.9910413,28.4910958 14.1015092,21.4287718 11.0564266,12.1833493 C7.7547844,14.4603211 5.89591284,16.1382507 1.54604128,16.7333634 C-0.094646789,14.9742225 -0.114481651,12.1065042 0.966518349,9.94872958 C2.04751835,7.79139155 4.01505046,6.2313493 6.05502294,4.97257465 C14.300289,-0.11491831 24.8002615,-1.25886197 33.9398211,1.89527887 C43.0789495,5.0489831 43.0953349,15.3475324 46.6470688,24.4388282" id="Fill-76" fill="#020203" mask="url(#mask-8)"></path>
                </g>
            </g>
        </g>
    </g>
</svg>