<?xml version="1.0" encoding="UTF-8"?>
<svg width="102px" height="124px" viewBox="0 0 102 124" version="1.1" xmlns="http://www.w3.org/2000/svg" xmlns:xlink="http://www.w3.org/1999/xlink">
    <!-- Generator: Sketch 60.1 (88133) - https://sketch.com -->
    <title>Group 42</title>
    <desc>Created with Sketch.</desc>
    <defs>
        <polygon id="path-1" points="0 0.0891110977 8.69500898 0.0891110977 8.69500898 21.6042033 0 21.6042033"></polygon>
    </defs>
    <g id="Page-1-Jakub" stroke="none" stroke-width="1" fill="none" fill-rule="evenodd">
        <g id="Home" transform="translate(-598.000000, -1850.000000)">
            <g id="Group-42" transform="translate(598.000000, 1850.000000)">
                <path d="M89.9856896,30.8785611 C92.1558287,29.4527556 94.3259678,28.0269501 96.496107,26.6006233 C97.3347572,26.0495899 96.5776361,24.5685247 95.7362377,25.1216434 C93.5660985,26.5474489 91.3959594,27.9732544 89.2262783,29.3990598 C88.38717,29.9500932 89.1442912,31.4311584 89.9856896,30.8785611" id="Fill-1" fill="#020203"></path>
                <path d="M45.8887752,0.98751595 C46.585017,3.7029611 47.0319256,6.44400543 47.223529,9.23673112 C47.2927053,10.2505553 48.9285501,10.2582833 48.8588761,9.23673112 C48.657817,6.30393444 48.197969,3.41750608 47.4663925,0.565370974 C47.2120826,-0.425269012 45.6339676,-0.0055390521 45.8887752,0.98751595" id="Fill-3" fill="#020203"></path>
                <path d="M4.63763348,35.6755971 C8.11595777,36.0066228 11.5908289,36.0844214 15.080006,35.9084846 C16.1184222,35.8561103 16.1243419,34.1847106 15.080006,34.2370849 C11.5908289,34.4130217 8.11595777,34.335223 4.63763348,34.0041974 C3.59921727,33.9055507 3.60513699,35.577459 4.63763348,35.6755971" id="Fill-5" fill="#020203"></path>
                <path d="M5.80879973,74.9590947 C8.64598601,73.9470573 11.4831723,72.9344262 14.3203586,71.9223887 C15.2685737,71.5840536 14.865792,69.7012484 13.9133813,70.0407706 C11.076195,71.0534017 8.23854256,72.0654392 5.40135628,73.0780702 C4.45360739,73.4164053 4.85638902,75.2992106 5.80879973,74.9590947" id="Fill-7" fill="#020203"></path>
                <path d="M85.0443354,79.2337284 C87.0845709,81.5791488 89.2771855,83.7732656 91.6234779,85.8160789 C92.3100498,86.4135339 93.3204274,85.4156203 92.6295265,84.8138546 C90.283667,82.7719035 88.0901866,80.5777866 86.0499511,78.2319352 C85.4499583,77.5413703 84.4469399,78.5474742 85.0443354,79.2337284" id="Fill-9" fill="#020203"></path>
                <path d="M64.9380922,94.7387702 C66.1465796,88.3840062 68.8312973,82.3107122 72.7245023,77.1237596 C75.2644153,73.7398538 78.3155179,70.7188708 80.470095,67.0814492 C86.338086,57.1726442 84.2544536,43.7449821 76.8043013,34.9442243 C69.3541491,26.1429846 57.4029036,21.7980322 45.8190151,22.0072069 C37.082142,22.1652928 29.1679345,24.791543 24.109975,31.8591394 C20.9981321,36.2065017 18.4426697,41.9867584 18.0238051,47.3019148 C17.5344819,53.5154619 18.0587915,59.9714394 20.8334047,65.5632461 C24.3543937,72.6607247 31.4629429,78.5532802 31.4099775,86.4633589 C31.3832518,90.3518865 29.5989471,94.5406808 31.5178521,97.9322982 C32.4177792,99.5237605 34.7016114,105.612959 36.2147717,106.651121 C42.037572,110.646164 45.9555591,109.935741 51.6685411,109.972853 C57.3815231,110.009965 63.1878021,104.018605 64.3996909,98.4807791" id="Fill-11" fill="#FEFEFE"></path>
                <path d="M50.5521266,57.0327902 C51.6930773,66.3617279 48.5593941,75.3098415 47.8631171,84.5271842 C47.8342876,84.9090091 48.1103522,85.1992561 48.3903482,85.3203591 C50.4140942,86.198106 51.5581027,86.2826779 53.4914288,85.2372884 C54.3266117,84.7859044 53.5988844,83.3676977 52.7667591,83.81708 C47.4088335,86.7135445 50.2861086,76.7525691 50.6311894,74.7974055 C51.0378606,72.4924443 51.4847184,70.1994933 51.7987856,67.874515 C52.3129123,64.0737811 52.4020218,60.4016566 51.9363811,56.595418 C51.8088323,55.5520302 50.4250145,55.9959079 50.5521266,57.0327902" id="Fill-13" fill="#020203"></path>
                <path d="M40.2762843,92.6158079 C45.7344292,95.6572577 51.8470451,95.7856427 57.4328422,93.0190003 C58.4008715,92.5394136 57.556442,91.0359305 56.5924652,91.5133951 C51.5608407,94.0057606 46.0277254,93.8460752 41.1166613,91.1102027 C40.1714271,90.5834001 39.3290238,92.0879442 40.2762843,92.6158079" id="Fill-15" fill="#020203"></path>
                <path d="M29.0585214,57.924641 C41.8521003,52.3389777 56.8418625,52.0565566 69.9183122,56.9473091 C70.8580344,57.2984028 71.2654064,55.8535524 70.3352245,55.5056422 C56.8423396,50.4593534 41.4390041,50.8832125 28.2671512,56.6339626 C27.3508028,57.034173 28.1469431,58.3225775 29.0585214,57.924641" id="Fill-17" fill="#020203"></path>
                <path d="M36.9204717,68.8425604 C38.54209,67.4073286 40.2999277,66.8689578 42.1805363,67.1746914 C43.0915578,67.322791 43.0841829,65.2328697 42.1805363,65.0860413 C40.0721723,64.7428061 38.0141314,65.4330903 36.2007648,67.0386685 C35.4159848,67.7327665 36.1322212,69.5404721 36.9204717,68.8425604" id="Fill-19" fill="#020203"></path>
                <path d="M57.7155523,67.2141457 C59.4544314,66.5655695 61.2063311,66.7813849 62.8162644,67.8892751 C63.6050602,68.4322034 64.3048121,66.8305366 63.512656,66.2859133 C61.5751079,64.9531683 59.4489712,64.6396145 57.3484556,65.4237816 C56.4937167,65.74242 56.8566132,67.534479 57.7155523,67.2141457" id="Fill-21" fill="#020203"></path>
                <path d="M68.3284989,7.77880741 C68.3137632,5.94943671 71.4078089,2.81434418 71.9186457,5.91931962 C72.2682831,8.04597519 71.0867497,10.2678397 71.2832254,12.4518149 C71.5015814,14.8718692 72.9438916,15.9181954 74.6487648,14.0251902 C75.3105306,13.2907217 74.2732283,12.1608449 73.6110159,12.8962849 C72.2946287,14.3579356 72.9269232,9.84182848 72.9555015,9.67861325 C73.1417069,8.61868578 73.3980184,7.55972982 73.4203451,6.47405709 C73.44937,5.11344442 73.2216368,3.398713 71.8213009,3.07908317 C69.331418,2.51025867 66.8393024,5.10615803 66.8611827,7.77880741 C66.8692203,8.80570323 68.3369831,8.80813202 68.3284989,7.77880741" id="Fill-23" fill="#020203"></path>
                <path d="M75.8610396,17.101316 L75.8610396,16.898684 C75.8610396,15.7015709 73.8610396,15.6993069 73.8610396,16.898684 L73.8610396,17.101316 C73.8610396,18.2984291 75.8610396,18.3006931 75.8610396,17.101316" id="Fill-25" fill="#020203"></path>
                <path d="M28.4461503,5.58227041 C27.5260201,10.509953 26.6680549,15.4228614 26.3845649,20.4406665 C25.6271218,19.6615746 24.8701196,18.8824827 24.1131174,18.1028982 C23.4279797,17.3981697 22.4007141,18.5402141 23.0884971,19.2478974 C24.231275,20.4239224 25.3740529,21.6004399 26.5172717,22.7769574 C26.982407,23.2556409 27.7341186,22.9173121 27.7539585,22.2042115 C27.9069461,16.7175723 28.8429482,11.3712879 29.8433198,6.01269162 C30.0333419,4.99622781 28.6366133,4.56137435 28.4461503,5.58227041" id="Fill-27" fill="#020203"></path>
                <path d="M101.676246,55.6231184 C100.541733,54.1895291 99.2386264,52.7991925 97.8437715,51.5078567 C98.5619239,50.2674632 99.3965081,48.9160541 100.449984,48.4383512 C101.350236,48.0308139 100.572005,46.6693125 99.6778077,47.0744469 C98.33232,47.6843111 97.5233508,49.2332411 96.7344079,50.5192904 C95.5249127,49.4821849 94.2646532,48.5253373 92.9913533,47.692481 C92.156769,47.1465348 91.3873866,48.5133227 92.2182451,49.0563853 C93.4636013,49.8704988 94.69452,50.8138899 95.8746743,51.8360973 C94.7653106,53.5066157 93.6554812,55.1776148 92.5461175,56.8481332 C91.9877098,57.6886789 93.3141027,58.4797242 93.8678531,57.6454261 L96.9640117,52.9832571 C96.9859009,52.9505772 97.0082558,52.9145333 97.0296793,52.879931 C98.3244027,54.0982176 99.535295,55.4020487 100.593894,56.7400013 C101.217038,57.5276825 102.293801,56.404552 101.676246,55.6231184" id="Fill-29" fill="#020203"></path>
                <g id="Group-33" transform="translate(0.861040, 42.000000)">
                    <mask id="mask-2" fill="white">
                        <use xlink:href="#path-1"></use>
                    </mask>
                    <g id="Clip-32"></g>
                    <path d="M8.55326842,20.462487 C4.61032105,14.7664 1.77153158,7.84261739 1.55695263,0.847573913 C1.52663684,-0.161556522 -0.0303631579,-0.16586087 0.000426315789,0.847573913 C0.198426316,7.32322609 2.52563684,13.7811826 5.93616316,19.3022261 C4.27116316,18.7737478 2.57821579,18.4461391 0.779163158,18.3165304 C-0.220784211,18.244313 -0.216521053,19.8168348 0.779163158,19.8880957 C3.19779474,20.0626609 5.26163684,20.5624435 7.48842632,21.5380957 C8.11747895,21.8135739 9.05347895,21.1841826 8.55326842,20.462487" id="Fill-31" fill="#020203" mask="url(#mask-2)"></path>
                </g>
                <path d="M48.3803585,109 C44.6778278,109 41.2554517,108.668235 36.8520464,105.653858 C35.7465584,104.897608 34.5707877,102.413475 33.1475634,99.2450468 C32.7180582,98.2874194 32.3466337,97.460663 32.1055251,97.0356947 C30.7330605,94.6153073 31.1425547,91.88054 31.5378948,89.2360784 C31.7160419,88.0456843 31.9005339,86.8147251 31.9083431,85.6566866 C31.9400679,80.8786912 29.11119,76.8999259 26.1158788,72.6879109 C24.5730763,70.5181582 22.9775618,68.2750019 21.7964223,65.9000088 C19.3941212,61.070824 18.4594592,55.0411039 19.017816,47.9779383 C19.3980258,43.1617923 21.6387744,37.4792906 25.0123431,32.7775963 C29.5377668,26.4697151 36.7685858,23.182489 46.5051775,23.0071896 C58.6177144,22.7893934 69.9952115,27.5311699 76.9234244,35.6953897 C84.5695945,44.7056827 86.0840887,58.0419593 80.5244357,67.4057486 C79.1788152,69.6735338 77.466651,71.7095181 75.8111034,73.6783767 C74.8735129,74.7939184 73.9037095,75.9471277 73.0207833,77.1206196 C69.3426563,82.0092034 66.7949091,87.7588308 65.6533036,93.7470199 C65.5781402,94.1401155 65.1906093,94.3975111 64.7981977,94.3245904 C64.4009053,94.2502209 64.1392975,93.8716129 64.214461,93.4785172 C65.3970647,87.2749465 68.0360818,81.3195958 71.8464769,76.2552297 C72.7533187,75.050831 73.7353239,73.8821683 74.6856043,72.7516562 C76.3035702,70.8277089 77.9766885,68.8380848 79.2622759,66.6721954 C84.5183467,57.8193339 83.0633976,45.183289 75.8028061,36.6264565 C69.1552358,28.7949676 58.214077,24.2502218 46.5320216,24.4554621 C37.2864325,24.622069 30.4475371,27.7040547 26.2061725,33.6159427 C22.9795141,38.1133625 20.8378446,43.5244641 20.4771578,48.0909412 C19.9397881,54.8909163 20.8256428,60.66807 23.110318,65.2606247 C24.2406978,67.533722 25.8025352,69.7300352 27.3131247,71.8543936 C30.3099002,76.0673744 33.407707,80.4242649 33.3725656,85.666345 C33.3637803,86.9262793 33.1719672,88.2084279 32.986499,89.4485625 C32.6097057,91.963119 32.2543877,94.3381121 33.3823271,96.3267704 C33.6571129,96.8106547 34.0412273,97.6663863 34.4858628,98.656852 C35.3624441,100.609291 36.8300831,103.877201 37.6851891,104.462498 C42.3155488,107.631892 45.673011,107.59181 49.9251133,107.538689 C50.6425823,107.529996 51.3834789,107.520821 52.1575646,107.52565 C52.1731829,107.52565 52.1888013,107.52565 52.2039316,107.52565 C57.3887436,107.52565 62.6350529,101.910274 63.7000308,97.0545285 C63.7854438,96.6643304 64.1715104,96.4136957 64.5707551,96.5001381 C64.9656071,96.5851318 65.2164772,96.9705007 65.1305762,97.3616647 C63.925521,102.85776 58.1486751,108.973922 52.2039316,108.974405 C52.1853848,108.974405 52.167326,108.974405 52.1482912,108.974405 C51.3829908,108.970059 50.6513677,108.978752 49.9436601,108.986961 C49.4150758,108.993722 48.8947887,109 48.3803585,109" id="Fill-34" fill="#020203"></path>
                <path d="M66.745661,77.4871216 C66.6167732,76.8662781 66.1332089,76.3394453 65.5386317,76.0369353 C65.0752943,75.6041134 64.4430856,75.329062 63.8565051,75.329062 C63.735614,75.329062 63.6246012,75.3472126 63.5121772,75.3630362 C63.4895983,75.3504704 63.4721937,75.3346468 63.4496149,75.3230118 C61.6052026,74.3456719 60.0133915,75.7395448 59.5575804,77.4540782 C58.8063622,80.2739366 57.9704732,85.0252048 61.1000001,86.6983177 C62.3992265,87.3926944 63.8903734,86.8374722 64.4595494,85.5543646 C65.1482052,85.3426076 65.7211443,84.8436988 65.9003642,84.0227333 C66.3340668,82.0368716 67.1661927,79.5074228 66.745661,77.4871216" id="Fill-36" fill="#FDECDB"></path>
                <path d="M36.4396923,79.4891477 L36.4396923,79.4914951 C36.0617397,79.3360979 36.314583,79.3013566 36.4396923,79.4891477 M39.8784482,75.4098542 C39.3749489,75.1399044 38.7839606,75.0657269 38.2476529,75.1873217 C37.9694378,75.0694827 37.6741624,75 37.3697006,75 C35.5884241,75 34.9628776,76.7483357 34.896386,78.3454996 C34.7690894,81.3910027 34.8185207,85.7768653 38.0280555,86.9120629 C39.0451153,87.271683 40.5621749,86.4895328 40.7187803,85.272646 C40.7240296,85.2299236 40.7288415,85.1867316 40.7340909,85.1440091 C41.3570127,84.7374412 41.7870212,84.0003609 41.8158926,83.1365216 C41.8491384,82.1308999 41.8583248,81.1238698 41.8508882,80.1177786 C41.8438891,79.1952546 41.9436266,77.984471 41.6378525,77.1051389 C41.3364528,76.2398911 40.6855345,75.5624345 39.8784482,75.4098542" id="Fill-38" fill="#FDECDB"></path>
                <path d="M57.7788332,107.643639 C56.7649947,107.126241 56.3192003,107.683224 55.4192652,108.026914 C54.0362226,108.554558 52.1828374,108.369673 50.7128944,108.356633 C47.2304941,108.325431 43.65432,108.058582 40.3157719,107.065699 C39.8891251,106.939027 39.3299183,106.674041 38.7250519,106.413246 C38.6327509,106.297286 38.5163927,106.199022 38.3725405,106.132892 C37.4667139,105.717017 36.4406013,105.050593 35.4125249,105.002626 C34.2754547,104.948604 33.3769925,105.734248 33.2935288,106.799781 C33.2483602,107.371202 33.3843569,107.937965 33.648495,108.450706 C33.0171167,108.986732 32.7357949,109.794265 33.2360861,110.740578 C33.3185679,110.897986 33.4192153,111.048409 33.5267362,111.195106 C33.1678423,111.543919 32.9228518,111.989599 32.8717916,112.565676 C32.7917647,113.467281 33.1648965,114.257116 33.7766363,114.845302 C33.7461966,114.903981 33.7123202,114.957537 33.6848263,115.019941 C32.8816109,116.845505 34.5680686,118.433094 36.3291527,118.893676 C37.5325029,119.610862 38.8281542,120.063527 40.1841938,120.361578 C40.3363924,120.584651 40.4939915,120.803998 40.6579731,121.021017 C41.5804925,122.238835 42.8736889,124.086287 44.6652127,123.996872 C46.2171466,123.92003 47.3537258,122.279817 48.2188026,121.193793 C50.4453196,121.25806 52.7670834,121.041973 53.7058045,119.819032 C54.2311349,119.134445 54.2625565,118.601679 54.00431,118.185338 C54.1393248,118.057735 54.2669752,117.920818 54.3828424,117.76993 C55.6564003,117.51938 56.6648382,116.953549 56.9810184,115.800463 C57.0718465,115.469347 57.0080213,115.158256 56.8376572,114.897927 C58.4814012,114.286922 58.8167289,112.382188 57.4837644,111.189052 C58.961072,110.528216 59.5246974,108.534533 57.7788332,107.643639" id="Fill-40" fill="#020203"></path>
            </g>
        </g>
    </g>
</svg>