<?xml version="1.0" encoding="UTF-8"?>
<svg width="192px" height="135px" viewBox="0 0 192 135" version="1.1" xmlns="http://www.w3.org/2000/svg" xmlns:xlink="http://www.w3.org/1999/xlink">
    <!-- Generator: Sketch 60.1 (88133) - https://sketch.com -->
    <title>Group 71</title>
    <desc>Created with Sketch.</desc>
    <defs>
        <polygon id="path-1" points="0.107714395 0.232791869 87.6984387 0.232791869 87.6984387 54 0.107714395 54"></polygon>
        <polygon id="path-3" points="0.17336 0.1884 1.67336 0.1884 1.67336 17.8620601 0.17336 17.8620601"></polygon>
    </defs>
    <g id="Page-1-Jakub" stroke="none" stroke-width="1" fill="none" fill-rule="evenodd">
        <g id="Home" transform="translate(-854.000000, -1844.000000)">
            <g id="Group-71" transform="translate(854.000000, 1844.000000)">
                <path d="M162.455201,47.2064698 C161.3625,40.2156786 153.428906,34.7057534 146.664491,34.5211017 C140.36094,34.3490307 134.806144,39.007529 132.601522,44.7893589 C130.851359,49.3796781 131.399111,54.5194883 131.911627,59.2993292 C132.477397,64.5811791 133.936868,71.1486918 129.218114,74.9930994 C128.735227,75.3863466 129.117212,76.3737258 129.748648,76.2917486 C132.01373,75.998335 134.228362,75.5462428 136.421771,74.9277611 C136.62838,76.5709582 136.031378,78.0368085 134.742079,79.1727208 C134.306841,79.5558223 134.556692,80.3009223 135.073213,80.4445854 C135.498441,80.5626813 135.92367,80.681183 136.349298,80.7992789 C136.278427,81.7976155 136.141089,82.7740374 135.923269,83.760605 C135.849995,84.0946014 135.972919,84.4411784 136.268817,84.6201485 C140.226805,87.0177796 144.089096,84.1672446 146.758586,81.2152525 C147.410443,80.4940964 146.351376,79.415 145.696716,80.138997 C143.623027,82.4323303 140.65884,85.066965 137.49245,83.5548503 C137.705064,82.4550567 137.838399,81.3613506 137.888049,80.2294966 C137.902463,79.898341 137.644203,79.5809836 137.337094,79.4957598 C137.118073,79.4348856 136.898652,79.3740114 136.679631,79.3127314 C137.882844,77.7523232 138.255619,75.7804055 137.724284,73.7752099 C137.62098,73.3839918 137.188544,73.1266969 136.800953,73.2435753 C135.172913,73.7350329 133.530458,74.1307151 131.865981,74.4338685 C135.878024,69.1861081 133.389917,61.0009655 133.059984,54.9297803 C132.843767,50.9542903 132.903427,47.1167818 134.820959,43.5280458 C136.405355,40.5634731 138.977146,38.1110552 142.089081,36.8667869 C144.650462,35.8428831 147.423656,35.8100111 150.045898,36.6326242 C153.678358,37.7717831 157.800511,40.4725677 159.763289,43.8243002 C161.931073,47.5258563 161.818159,53.6258553 161.158694,57.7596182 C160.184913,63.8616463 156.426326,67.7823495 150.160413,67.8752841 C149.195041,67.889488 149.192238,69.4113426 150.160413,69.3971386 C155.541835,69.3171905 159.893019,66.7158338 161.770511,61.4920172 C163.384137,57.0039666 163.181933,51.8568515 162.455201,47.2064698" id="Fill-1" fill="#000000"></path>
                <path d="M123.943983,116.00547 C127.729887,115.581351 131.781975,115.124047 135.383963,116.710447 C138.351143,118.017609 140.942185,120.297655 143.136127,122.764265 C145.26995,125.162078 147.556443,127.629497 150.490005,128.992102 C153.545781,130.411769 156.738012,130.691008 160.056017,130.427957 C162.718253,130.216706 165,128.25394 165,125.369281 C165,122.795427 162.732887,120.098141 160.056017,120.310605 C159.261421,120.373333 158.466824,120.427562 157.669854,120.426348 C157.351461,120.425943 157.035046,120.412588 156.717049,120.402066 C156.609468,120.398424 155.663388,120.29199 156.264576,120.381022 C156.923906,120.478553 155.676044,120.230881 155.66853,120.228857 C155.401159,120.157226 155.141303,120.064956 154.877492,119.98078 C155.793118,120.27216 154.492257,119.760626 154.158044,119.55059 C154.067866,119.494338 153.126927,118.817689 153.52561,119.128899 C153.857845,119.388308 153.126136,118.767102 153.062853,118.708017 C152.500426,118.183938 151.958961,117.640839 151.435294,117.076291 C150.110307,115.648125 148.870751,114.170587 147.418803,112.87071 C144.367772,110.139835 140.944559,107.918874 137.079551,106.610093 C132.85383,105.17869 128.300224,105.399653 123.943983,105.888119 C121.290053,106.185569 119,108.000217 119,110.946795 C119,113.451041 121.27265,116.304944 123.943983,116.00547" id="Fill-3" fill="#FEE8D3"></path>
                <path d="M137,63.5164835 C138.332229,63.5164835 138.334437,61.5164835 137,61.5164835 C135.667771,61.5164835 135.665563,63.5164835 137,63.5164835" id="Fill-5" fill="#000000"></path>
                <path d="M133.239072,59.2884184 C136.048064,56.2465797 140.058936,54.8340442 144.285064,54.9194829 C145.23851,54.9388838 145.238115,53.5397797 144.285064,53.5203788 C139.695568,53.4274783 135.24273,54.9955941 132.192019,58.298972 C131.567974,58.9750191 132.611077,59.9685695 133.239072,59.2884184" id="Fill-7" fill="#000000"></path>
                <path d="M138.001569,68.9675143 C138.049937,70.6666845 138.098695,72.3663145 138.147453,74.0654847 C138.199332,75.865796 139.456122,77.5985267 141.072942,77.5134762 C142.6137,77.4321036 144.054211,75.9963599 143.998431,74.0654847 C143.949673,72.3663145 143.900915,70.6666845 143.852547,68.9675143 C143.800668,67.1667433 142.543878,65.4340126 140.927058,65.5195228 C139.3863,65.6008954 137.945789,67.036639 138.001569,68.9675143" id="Fill-9" fill="#FEE8D3"></path>
                <path d="M144.906793,67.4200846 C144.806272,68.5872352 144.729261,69.8306887 144.293941,70.9336481 C143.897533,71.9401187 143.094583,72.6538933 142.522669,73.5432855 C140.877048,73.2158697 138.914057,74.5428929 138.72477,76.2389151 C138.671672,76.274846 138.621007,76.313603 138.571152,76.3531674 C138.000859,75.9446041 137.327208,75.6918763 136.505613,75.7003544 C134.462368,75.720944 133.533767,76.7044027 133.284898,78.1707089 C132.288203,78.7787092 131.678998,79.9042768 132.177549,81.3617012 C133.464457,85.1247628 135.37354,88.4562492 137.930738,91.503114 C139.087942,92.8818132 140.607506,92.7118477 141.681619,91.8386042 C144.235169,92.9722462 146.838574,90.545897 145.605169,87.6528491 C145.495731,87.3956803 145.396832,87.134878 145.297121,86.8748832 C146.821145,86.3912283 148.090624,84.8296445 147.474935,83.167131 C147.309157,82.7198107 147.143379,82.2728942 146.977195,81.8259776 C147.360633,81.321733 147.626527,80.7355335 147.701917,80.1469117 C147.73029,79.9264813 147.750151,79.7072621 147.764743,79.4888503 C148.788189,78.5687755 149.110018,76.9999247 148.325308,75.710851 C148.951941,74.8032915 149.646263,73.9385261 150.048751,72.8311258 C150.674574,71.106036 150.829813,69.2360111 150.986674,67.4200846 C151.321473,63.5375222 145.239565,63.5597267 144.906793,67.4200846" id="Fill-11" fill="#000000"></path>
                <path d="M158.750149,72.004741 C166.574179,72.2792599 173.707903,76.5339071 179.026668,81.8648114 C184.967289,87.8185404 188.161203,95.684778 189.55841,103.707714 C190.885924,111.333549 190.657342,119.147818 189.780354,126.80658 C189.671249,127.756685 191.227758,127.749544 191.336034,126.80658 C193.414836,108.656989 191.31778,87.9502461 174.768254,76.379986 C169.930714,72.998087 164.852976,70.7313221 158.750149,70.5171021 C157.749121,70.4817955 157.75078,71.9694344 158.750149,72.004741" id="Fill-13" fill="#000000"></path>
                <path d="M36.9604983,120.499192 C43.4973513,119.219794 50.1172964,118.398863 56.7830855,118.092435 C60.0809831,117.94118 63.3854298,117.910223 66.6857833,118.001525 C68.7905108,118.059911 70.959911,118.392985 72.4727607,116.700184 C74.1947732,114.773054 75.1006001,111.751089 76.2209111,109.470901 C77.5941824,106.67817 78.966635,103.885438 80.3394969,101.092315 C83.1994213,95.2737008 86.0593457,89.4550862 88.91927,83.6368635 C89.3375959,82.7857603 88.0146711,82.0392817 87.5938893,82.8950871 C84.9627753,88.2481812 82.3316612,93.6012752 79.7005472,98.9543693 C77.1226448,104.19892 74.8672873,109.787909 71.8886599,114.832224 C70.9001502,116.506217 69.6631828,116.630434 67.8736323,116.571264 C66.4217714,116.523066 64.9695013,116.4878 63.5164125,116.481922 C60.3466323,116.468599 57.1764428,116.567738 54.0140303,116.778162 C48.1451888,117.168839 42.3148235,117.954503 36.5524054,119.082254 C35.5851804,119.271518 35.9945012,120.688064 36.9604983,120.499192" id="Fill-15" fill="#000000"></path>
                <g id="Group-19" transform="translate(88.000000, 80.516484)">
                    <mask id="mask-2" fill="white">
                        <use xlink:href="#path-1"></use>
                    </mask>
                    <g id="Clip-18"></g>
                    <path d="M69.0544922,48.8698791 C65.9456995,48.2678194 63.2481143,47.4836104 60.9593032,45.1922373 C56.4372387,40.664297 52.2732571,35.7220881 47.9584184,30.998297 C47.5427502,30.5433269 46.9636535,30.8012373 46.7564276,31.2336403 C43.70887,29.5407 40.4224553,27.6736701 37.0492571,27.6172522 C36.6595429,27.6108045 36.2771281,27.6378045 35.9040406,27.6942224 C37.9101972,26.2882075 40.2987687,25.6144164 42.9991926,25.9130284 C46.1319115,26.2599985 49.0845751,27.6478791 51.7614783,29.2348343 C54.7688885,31.0176403 57.517165,33.1981925 60.5322802,34.966491 C63.0352111,36.4345657 66.1229161,38.2572672 69.1716903,37.8873269 C69.2223816,37.9336701 69.2795613,37.9771925 69.3513401,38.0130582 C70.6165935,38.6477597 71.6916535,39.7003567 72.7249438,40.6473716 C73.9143631,41.7382522 75.3908977,42.9302821 75.9671558,44.4773418 C76.3621419,45.5375955 76.4136442,46.5974463 76.3540313,47.6609239 C74.1609253,49.3812672 71.8271005,49.4070582 69.0544922,48.8698791 M52.0696811,37.8373567 C50.815377,37.5826701 49.557423,37.3477299 48.2970359,37.1277 C48.4016627,37.0986851 48.5062894,37.0716851 48.6109161,37.0418642 C49.5501235,36.775894 49.151082,35.3170881 48.2070083,35.5850731 C46.9559484,35.939297 45.6975889,36.2459687 44.4335521,36.5107299 C41.2274323,36.0448791 38.0046857,35.6914612 34.7697733,35.4678045 C33.4968147,35.3799537 32.2222341,35.3150731 30.9472479,35.265103 C31.0486304,31.0047448 35.1043355,28.3470582 39.1385475,29.5032224 C42.4265843,30.4454015 45.3784369,32.322506 48.4146396,33.8393418 C48.4596535,33.861506 48.5042618,33.8764164 48.5484645,33.8901179 C49.7614046,35.2179537 50.9743447,36.5457896 52.1868793,37.8736254 C52.1495705,37.8599239 52.1126673,37.8462224 52.0696811,37.8373567 M86.31993,39.2361179 C85.7716535,38.4374015 84.45287,39.1925955 85.006824,39.9985657 C86.1548793,41.6689388 86.2903263,43.5186403 86.0968885,45.4799687 C85.9995613,46.468894 86.0194323,47.9454313 85.0741419,48.5708642 C84.5347871,48.927506 83.6949346,49.1003866 83.1117825,49.3998045 C82.3420866,49.7955358 81.6178101,50.2722672 80.8947502,50.7453716 C80.350529,51.1016104 79.3557641,52.0804612 78.7134046,52.1687149 C76.9607041,52.408894 77.6363171,50.790909 77.7299945,49.8289836 C77.7806857,49.3099388 77.8325935,48.792506 77.8678747,48.2738642 C77.9222157,48.144909 77.927082,48.0115209 77.8930175,47.8857896 C77.9031558,47.657297 77.9096442,47.4288045 77.9088332,47.199506 C77.8962618,44.5889687 76.965976,42.6655209 75.1463631,40.8597448 C73.9293677,39.6511925 72.5980129,38.2778194 71.1137733,37.2961478 C73.8486673,35.8824761 74.9959115,32.3801328 75.3211465,29.4399537 C75.6127226,26.8084612 75.9922986,24.1749537 75.7915613,21.520491 C75.5620313,18.4827896 74.5421235,15.7396701 73.140612,13.0545806 C72.1884276,11.2302672 71.1539207,9.44947612 70.2017364,7.6247597 C69.1895336,5.68398358 68.4847226,3.06337164 66.8613862,1.53162537 C65.5640959,0.307356716 63.7156903,0.263431343 62.20793,1.15926716 C60.4089991,2.22838657 59.6741788,4.27272985 59.0415521,6.1397597 C58.7280774,7.06340149 60.1960959,7.45993881 60.5075429,6.54153582 C61.2111373,4.46616269 63.8097733,-0.452673134 66.3264922,3.26929701 C67.4899576,4.98923731 68.2028793,7.09443134 69.1749346,8.9316403 C70.5902341,11.6066552 72.2804829,14.2131627 73.3125567,17.0691179 C74.8547871,21.3355209 74.5157641,26.2886104 73.5939945,30.6831627 C73.2342894,32.4002821 72.5955797,34.3023716 71.190824,35.4605507 C68.8651097,37.3775507 65.7705106,36.0158642 63.4525014,34.8351179 C58.2183263,32.1701776 53.8422525,28.0887448 48.3797641,25.8332373 C41.9918562,23.196506 35.6972203,24.1967149 31.5563539,29.9892224 C31.5117456,30.0520881 31.4825475,30.1141478 31.4598378,30.1754015 C30.2391926,31.5536104 29.478824,33.3497149 29.4256995,35.2151328 C28.200188,35.1816851 26.9738654,35.1607299 25.7479484,35.1623418 C24.3083171,35.1643567 22.8690912,35.1917597 21.4306765,35.2397149 C19.5068424,35.3041925 18.1479115,35.2667149 17.0606857,33.4661776 C15.6141604,31.0712373 14.5987134,28.2825806 13.4015889,25.7542522 C12.0414415,22.8817746 10.681294,20.0097 9.32114654,17.1372224 C6.7144,11.6324463 4.10765346,6.12726716 1.50050138,0.621685075 C1.08442765,-0.257225373 -0.227056221,0.508849254 0.187800922,1.38493881 C2.96446452,7.24877463 5.74112811,13.1130134 8.51819724,18.9772522 C9.93511889,21.9694164 11.351635,24.9611776 12.7681512,27.9529388 C13.8841696,30.3091925 14.789718,33.375909 16.4819945,35.3876104 C17.9560959,37.1389836 20.151635,36.7855657 22.215377,36.7259239 C25.3545843,36.6356552 28.4970359,36.6610433 31.6346212,36.8008791 C34.1282249,36.912103 36.6157456,37.099894 39.0947502,37.3590134 C36.0585475,37.6878493 32.9947687,37.7644164 29.9139576,37.587103 C28.9362249,37.5306851 28.9398747,39.0422821 29.9139576,39.098297 C34.8249253,39.3811925 39.7099392,39.0225358 44.500059,38.0412672 C46.8983631,38.3946851 49.2877456,38.8117746 51.6653677,39.2945507 C52.3129991,39.4259239 52.7071742,38.800491 52.5972756,38.3225507 C53.5332387,39.3469388 54.4687963,40.3717299 55.405165,41.3961179 C57.5638009,43.7596254 59.6599853,46.6663567 62.4415152,48.3435806 C64.9233585,49.8394612 68.3963171,50.5507299 71.2767963,50.7127299 C73.181976,50.8195209 74.7217733,50.4620731 76.173165,49.6097597 C76.1042249,50.2682373 76.045423,50.9287299 76.0511005,51.5932522 C76.0604276,52.7570731 76.5085382,53.9632075 77.8747687,53.9994761 C79.4182157,54.0401776 80.9916719,52.4681328 82.2074507,51.6931925 C83.2650728,51.0189985 84.3194507,50.5096254 85.4784553,50.0280582 C85.9642802,49.8261627 86.4501051,49.6903567 86.7879115,49.2603716 C87.6894046,48.1118642 87.6756166,45.6133567 87.6971097,44.2166104 C87.7238747,42.4144612 87.349165,40.7340134 86.31993,39.2361179" id="Fill-17" fill="#000000" mask="url(#mask-2)"></path>
                </g>
                <path d="M160.828059,71.5164835 C161.268919,76.8641736 157.861883,81.6396681 154.737341,85.9401322 C154.391812,86.4155624 154.033832,86.9293789 154.002314,87.5219673 C153.980913,87.9210248 154.111654,88.3104857 154.240838,88.687551 C155.478204,92.2970619 156.71518,95.9069726 157.951767,99.5164835 C159.379407,93.3602822 161.932349,87.4819816 165.437829,82.2786399 C166.107485,81.2837952 166.835119,80.2553625 166.974809,79.0541915 C167.226173,76.8961622 165.550282,75.0624171 164.005909,73.5765478" id="Fill-20" fill="#FEFEFE"></path>
                <path d="M170.795055,91.9992894 C175.408242,91.6172989 176.171792,96.3238419 176.16072,99.3209678 C176.149204,102.489814 176.156734,105.646589 176.337877,108.8131 C176.391025,109.748022 178.052321,109.753863 177.998731,108.8131 C177.866749,106.504024 177.791014,104.19378 177.795,101.881978 C177.798543,99.84197 177.976586,97.7645806 177.520405,95.7502721 C176.873779,92.8937156 174.360797,90.2435351 170.795055,90.5390812 C169.740081,90.6266937 169.729894,92.0876807 170.795055,91.9992894" id="Fill-22" fill="#000000"></path>
                <path d="M166.94709,76.0043325 C166.631378,73.9078258 165.08374,72.2859998 163.663037,70.8867857 C162.951872,70.1865474 161.871292,71.3004481 162.584084,72.0027905 C164.667944,74.0551115 166.344145,76.1844419 164.656959,79.1402555 C163.476295,81.2098299 162.079596,83.1241232 160.970944,85.2484038 C159.170655,88.6974141 157.756461,92.3370541 156.698258,96.0932603 C156.026557,94.1208944 155.355262,92.1489493 154.683561,90.1770041 C154.19494,88.7415998 153.233566,86.9148363 153.73846,85.3695989 C154.082244,84.317979 155.309696,83.1645216 155.930541,82.2547168 C158.56649,78.3937274 160.820411,74.140958 160.563692,69.2763218 C160.510395,68.2663627 158.98432,68.2600504 159.038023,69.2763218 C159.357803,75.3364971 155.589605,79.5812709 152.59726,84.3154541 C151.324242,86.3294809 152.37553,88.1368868 153.08344,90.2161401 C154.074514,93.1290304 155.066402,96.0414999 156.057477,98.9539694 C156.294261,99.6491579 157.338225,99.7568869 157.529035,98.9539694 C158.94038,93.0116226 161.250039,87.3617432 164.480795,82.229047 C165.683429,80.3193827 167.315284,78.4496959 166.94709,76.0043325" id="Fill-24" fill="#000000"></path>
                <path d="M163.538957,55.3287605 C162.768739,54.5760641 161.735775,53.9237 160.625287,53.4887905 C159.537847,52.2135476 158.10385,51.1340548 156.44147,50.8203631 C154.653374,50.4829192 153.430161,50.3428637 151.650866,50.8457533 C149.553928,51.4383277 147.58564,52.8544452 146.503648,54.7378242 C145.505046,56.476643 145.225958,57.9545979 145.042413,59.9464996 C144.762905,62.9908657 145.875069,66.2494103 148.078027,68.4354241 C150.784266,71.1210513 154.974787,72.2230676 158.664961,71.050614 C162.979103,69.6791341 166.160128,65.6445504 165.993764,61.1201817 C165.914983,58.9734818 165.113336,56.8669148 163.538957,55.3287605" id="Fill-26" fill="#FEE8D3"></path>
                <path d="M158.086648,69.2088533 C155.339704,70.86663 151.374902,69.6249943 149.153308,67.5311392 C146.938082,65.4436471 145.995237,62.1204581 146.751025,59.0691818 C146.941265,58.3009541 147.252894,57.5789644 147.653672,56.9104239 C146.124187,61.3378076 147.492883,67.4064242 152.142232,68.0338171 C153.092638,68.16235 153.083882,66.5703244 152.142232,66.4430642 C148.591342,65.9637173 148.126885,60.5903658 148.920482,57.681621 C149.930985,53.9787722 153.182982,53.4866993 156.333889,53.5885075 C157.577218,53.6283824 158.72264,53.7043143 159.648371,54.371158 C159.815926,54.514962 159.981491,54.6621597 160.145066,54.8123268 C160.31461,54.9960057 160.474603,55.2042883 160.623055,55.4490522 C161.419836,56.764923 162.177614,58.2831377 162.431135,59.8361368 C162.901562,62.7151876 160.518781,67.7411186 158.086648,69.2088533 M163.988878,60.3405115 C163.910473,58.9843416 163.414972,57.2196663 162.629335,55.6861804 C162.721271,55.4346294 162.692218,55.1410824 162.44984,54.8967427 C162.173236,54.6180428 161.890263,54.3359493 161.600922,54.0572494 C161.124127,53.4531874 160.591215,52.9594177 160.014524,52.6484785 C158.340966,51.3063072 156.456471,50.3208888 154.280248,50.549533 C151.408334,50.851564 148.29842,53.1626099 146.646751,55.6187325 C142.977658,61.0743789 145.812957,68.5844298 151.47042,70.8059693 C154.200251,71.8779247 157.739599,71.9131334 159.973133,69.6746258 C162.091647,67.5515008 164.17076,63.4902024 163.988878,60.3405115" id="Fill-28" fill="#000000"></path>
                <path d="M153.860552,51.7647596 C153.243987,46.0643435 155.600616,38.9092516 151.603469,33.9500155 C148.735083,30.3913451 140.693868,30.6606363 139.048525,35.2541062 C138.704284,36.2138231 140.292618,36.626149 140.634228,35.6723045 C141.549428,33.1165551 145.181284,32.9726814 147.551945,33.3451589 C150.547065,33.8157893 151.685473,36.8966986 152.074444,39.4402838 C152.698902,43.5211777 151.772739,47.6645707 152.216087,51.7647596 C152.323964,52.7618081 153.969745,52.7722945 153.860552,51.7647596" id="Fill-30" fill="#000000"></path>
                <path d="M17.7644515,116.608181 C17.9307714,116.696008 18.1086302,116.761879 18.2924574,116.805394 C18.0175124,117.052909 17.7505252,117.308008 17.491098,117.569895 C17.5814201,117.248924 17.6733337,116.928353 17.7644515,116.608181 M30.3613909,98.0202261 C31.6163499,95.3398815 33.0543403,92.7389811 34.6833201,90.149658 C35.6211572,88.65938 34.306912,87.2505423 32.9457152,87.2034347 C32.927412,87.1902605 32.9095068,87.1770863 32.8912036,87.1647106 C32.9926667,86.8082096 33.0905487,86.4513094 33.195195,86.096006 C33.7120598,84.6915597 32.12088,83.2523815 30.7863422,83.6048904 C30.6932349,83.328632 30.5209466,83.0655478 30.2507763,82.8359979 C28.2095779,81.1029958 26.0541838,79.546847 23.7448046,78.1927021 C23.4085838,77.9950895 23.0803209,77.9112539 22.7707591,77.9020719 L22.6135908,77.7994731 C21.7811957,77.2557392 20.7936217,77.5547529 20.1772833,78.1946982 C19.5764627,78.0553713 18.9298843,78.1775318 18.4345057,78.7128821 C17.0530163,80.204757 15.738771,81.7533207 14.4901783,83.350589 C14.4372584,83.389313 14.3843384,83.4280371 14.3318163,83.4671604 C14.0779597,83.5561858 13.8241031,83.7026986 13.5790001,83.9170782 C9.59448539,87.4094308 6.70935296,91.8479282 5.00716064,96.8644922 C4.93434596,97.0796703 4.90490177,97.2872632 4.90808493,97.485275 C4.58698413,97.7088366 4.3184054,98.009048 4.16083921,98.3887036 C1.76113797,104.170168 0.399941159,110.255037 0.00363831746,116.50159 C-0.0194395588,116.868071 0.0688930022,117.184251 0.222480248,117.454521 C0.11823191,119.381543 0.110671916,121.318944 0.209747627,123.260338 C0.276991783,124.580948 1.53712341,125.341058 2.62058991,125.203727 C2.68783407,125.458029 2.75507823,125.712729 2.82232238,125.966631 C3.40523771,128.173504 6.22113651,127.613403 6.64131302,125.778201 C7.255662,125.790177 7.86125731,125.55943 8.23050333,125.040447 C8.4604863,125.065598 8.69166296,125.107117 8.92164593,125.147038 C9.37086873,126.779837 10.5303331,128.127994 12.2353107,128.450162 C12.7649081,128.550365 13.3104214,128.535195 13.8256946,128.417027 C17.2833971,128.346365 19.8705067,126.21215 22.130547,123.684706 C22.8157212,123.263531 23.5140259,122.860322 24.2290421,122.478271 C25.2341234,121.940525 25.4087991,120.99997 25.0944625,120.206725 C27.4484059,119.137621 29.4939811,117.545543 31.1838387,115.530693 C31.5562679,115.410529 31.9231265,115.273997 32.2704883,115.075186 C35.0382419,113.491491 33.5632473,108.951194 33.3070033,106.484031 C33.1936034,105.398559 32.486545,104.504313 31.3175312,104.487945 C30.673738,104.479162 30.0323322,104.487546 29.3917222,104.504313 C29.3949054,104.481557 29.4004759,104.460399 29.4032612,104.437244 C29.6547304,102.286262 29.9782186,100.147655 30.3613909,98.0202261" id="Fill-32" fill="#FEE8D3"></path>
                <path d="M19.8757956,78.6131392 C16.2264079,80.5911601 12.5563303,82.6578329 9.91597522,85.9620222 C7.34962648,89.1731472 5.60251992,93.0734305 4.13074876,96.8954915 C0.841047766,105.436562 -0.478731889,114.662379 0.153505033,123.793527 C0.220349466,124.753856 1.71281057,124.761076 1.64556826,123.793527 C1.05431334,115.258874 2.18390467,106.689723 5.07054965,98.6368398 C6.43210707,94.8388472 8.11356285,90.9425753 10.487336,87.6632566 C13.0699979,84.0955183 16.8482999,81.961454 20.629387,79.9120302 C21.4752874,79.4535273 20.7224918,78.1542352 19.8757956,78.6131392" id="Fill-34" fill="#000000"></path>
                <path d="M44.2263853,108.413447 C48.7734022,106.618501 53.9730478,109.654402 54.3925948,113.843234 C54.4815507,114.736587 56.0861789,114.745202 55.9963676,113.843234 C55.463915,108.527317 49.1146851,104.951658 43.4168008,107.200585 C42.4772037,107.57141 43.2919203,108.782025 44.2263853,108.413447" id="Fill-36" fill="#000000"></path>
                <path d="M41.1055898,106.286546 C47.3425132,103.05329 55.0517222,105.706961 57.5324549,112.043727 C57.8590631,112.8776 59.2807695,112.516615 58.9506325,111.673076 C56.1350578,104.48199 47.4856249,101.390377 40.3633697,105.082765 C39.53293,105.513271 40.2739739,106.717424 41.1055898,106.286546" id="Fill-38" fill="#000000"></path>
                <path d="M41.6528977,115.356026 C39.3102348,113.847455 37.5914201,113.17689 34.87461,114.181157 C34.7344058,114.232891 34.5958178,114.288968 34.4576338,114.344256 C33.49075,112.069946 32.0640611,107.259102 34.9897633,106.208236 C35.8119984,105.913235 35.644319,104.841438 34.7885481,104.753767 C26.5686217,103.914575 20.5341841,111.350018 16.4630094,117.406026 C15.9260313,118.204542 17.2375669,118.947375 17.7717167,118.153203 C19.8440723,115.070504 22.1289565,111.983855 25.0821339,109.644778 C26.6086224,108.436736 28.4510754,107.249624 30.2911041,106.545887 C31.0955611,106.238249 31.8931493,106.129648 32.7020508,106.116616 C30.9674783,108.389346 32.0143633,112.403648 33.0907438,114.956373 C30.6563623,116.164416 28.4466309,117.851489 26.2498289,119.396788 C23.465543,121.355167 20.7143889,123.382656 18.2040467,125.673158 C16.0480534,127.640225 13.9187272,130.266404 10.6883738,128.44664 C7.57155742,126.691246 8.44833879,122.524508 8.77319235,119.632946 C9.16107719,116.181792 9.73926804,112.727478 10.4944313,109.335166 C11.9728383,102.691131 14.3684312,96.1947934 18.734156,90.8192224 C19.3345694,90.0803381 18.2690982,89.0255225 17.6630281,89.7719102 C10.6883738,98.3589228 8.24187092,109.670843 7.18003616,120.364327 C6.79538368,124.232906 6.60022912,128.944231 11.2617161,130.28457 C12.9267926,130.763206 14.7417704,130.49111 16.1862374,129.559508 C18.4008174,128.131498 20.1899363,125.836652 22.2663323,124.187886 C25.0950634,121.942009 28.084605,119.835932 31.1141473,117.856228 C32.6099282,116.878025 34.2099532,115.89153 35.9445257,115.376957 C38.0168813,114.761681 39.2270012,115.565331 40.8876332,116.634758 C41.7046157,117.160389 42.4646275,115.878498 41.6528977,115.356026" id="Fill-40" fill="#000000"></path>
                <path d="M35.3664708,88.0214395 C34.2262513,90.6522514 32.0075162,92.716837 30.7703954,95.3181664 C29.6419083,97.6909051 29.0922217,100.200152 29.0005348,102.78573 C28.9662066,103.760674 30.5957124,103.759462 30.6300406,102.78573 C30.7334599,99.8657473 31.4908542,97.049155 33.0295422,94.490232 C34.2779609,92.4139342 35.9730815,90.6502321 36.9377489,88.4240983 C37.3301339,87.5202364 35.7545104,87.1272704 35.3664708,88.0214395" id="Fill-42" fill="#000000"></path>
                <path d="M49.4383177,82.4456066 C49.589234,82.4017783 49.7413023,82.3674778 49.8926026,82.3265078 C50.1130249,82.2826795 50.0961284,82.2841087 49.8419132,82.3293662 C49.9187154,82.3184091 49.9959016,82.309834 50.0730878,82.3031645 C50.4083293,82.2707696 50.7424189,82.2721988 51.0784284,82.2950658 C52.0830011,82.3622375 53.0434124,81.151241 52.9984832,79.91309 C52.9500978,78.5648917 52.1544271,77.6030499 51.0784284,77.5311142 C50.187139,77.4710884 49.2854813,77.5992387 48.4176166,77.8517282 C47.4387727,78.1366125 46.7656015,79.5905705 47.0766504,80.7820348 C47.4068998,82.0487695 48.3899678,82.7504995 49.4383177,82.4456066" id="Fill-44" fill="#FEE8D3"></path>
                <path d="M45,61.5164835 C46.3322289,61.5164835 46.3344373,59.5164835 45,59.5164835 C43.6677711,59.5164835 43.6655627,61.5164835 45,61.5164835" id="Fill-46" fill="#000000"></path>
                <path d="M34.7866868,68.4272958 C34.8461068,68.0575605 34.9016932,67.6863879 34.9499958,67.3130594 C35.0738193,66.3479388 33.9801091,65.5164835 33.0332236,65.5164835 C32.386888,65.5164835 31.9030947,65.7881258 31.5776267,66.1959485 C31.4607036,66.2681709 31.3548978,66.3522506 31.2605926,66.4453133 C30.9573592,66.5207694 30.662943,66.6458111 30.3919114,66.8319364 C29.1483096,67.6856693 28.9662162,69.4714657 29.0045517,70.8063216 C29.0432705,72.1512383 29.3867561,73.6366473 30.7863832,74.2941941 C31.8593923,74.797954 33.0550748,74.4210323 33.5243006,73.4109974 C34.0920486,73.2500242 34.5654913,72.8669942 34.6988987,72.2284911 C34.9438622,71.0535305 35.1880589,69.6288458 34.7866868,68.4272958" id="Fill-48" fill="#FEE8D3"></path>
                <path d="M45.954368,62.3124976 C43.6653585,63.1035026 39.9536354,64.1875847 38.3882095,61.6661378 C37.327889,59.9591723 38.4459359,58.5933728 40.0502469,57.7217147 C42.0337878,56.6444484 44.0954999,56.6736046 45.9226987,57.9791984 C46.6943875,58.5305164 47.444429,57.2980026 46.6815594,56.7531216 C44.6330763,55.2892511 42.1151659,55.1427126 39.8329714,56.2196003 C38.1063928,57.0344604 36.5181168,58.2927227 36.4736195,60.1443334 C33.4630308,60.4021957 30.3430027,60.5029173 27.3829246,59.9035104 C25.0766774,59.4366319 22.2913818,57.2703609 20.2168417,59.2753259 C19.5401608,59.9296374 20.6024857,60.9345811 21.2799683,60.2795123 C22.4144511,59.182556 24.8441685,60.7448762 26.15624,61.0826343 C27.2586526,61.3666236 28.4003512,61.5260363 29.5372393,61.6263793 C31.9152435,61.8365314 34.3112872,61.7513346 36.6868862,61.5461049 C37.8754874,65.3686019 43.1109452,64.8025164 46.3540427,63.681705 C47.2552149,63.370074 46.8655621,61.9974587 45.954368,62.3124976" id="Fill-50" fill="#000000"></path>
                <path d="M52.1524527,80.7961344 C51.8793701,81.0631341 51.6593093,81.0382883 51.3056971,81.0720341 C50.5346871,81.145459 49.5364404,81.0709216 48.7921406,80.8906968 C48.2595297,80.7620178 47.1827468,80.4212225 47.5985501,79.5768361 C47.7863193,79.1959908 48.4114195,79.0409827 48.7929379,78.9738619 C49.5587654,78.8396204 50.3835946,78.9479036 51.1657672,78.916012 C51.312873,79.1514908 51.5907396,79.2957448 51.954717,79.1707742 C53.0984749,78.778433 52.2345769,80.7156637 52.1524527,80.7961344 M51.8969112,77.7401011 C51.7789075,77.5951055 51.590341,77.5005431 51.3252315,77.5187139 C49.5607587,77.6388637 46.9044816,77.2075852 46.1378568,79.2293657 C45.4409976,81.0686966 47.5307777,82.1645076 49.1620978,82.3532615 C50.1591486,82.4685905 51.4747293,82.6551194 52.4386912,82.3514073 C53.2208638,82.1051743 53.6231126,81.3153004 53.8678903,80.6251805 C54.3291409,79.3220739 53.5613201,77.4304557 51.8969112,77.7401011" id="Fill-52" fill="#000000"></path>
                <path d="M49.5709365,69.113483 C48.4337697,69.1190937 47.2558149,68.8702216 46.1883954,68.4870949 C45.6707969,68.301543 45.2751542,68.7716346 45.2204984,69.2116693 C45.0312425,70.7321532 44.7852914,72.2402137 44.4606197,73.7382551 C44.1306456,75.2615444 44.1180013,75.885528 42.5097342,76.2161551 C39.6884347,76.7956542 37.1812021,76.3668409 35.1711741,74.2355984 C34.5010288,73.5242492 33.4213729,74.5890689 34.0898867,75.2980136 C36.3825749,77.7298261 39.3637629,78.3309664 42.6104803,77.7230132 C42.6908325,77.7077843 42.766698,77.6941585 42.8433792,77.6801319 C42.8029992,77.7630892 42.7740398,77.8564664 42.7654743,77.9634693 C42.7063319,78.7128908 42.4824063,79.7171957 42.3873704,80.6870353 C40.5041928,80.9527392 38.6491588,80.9595522 36.6240393,80.3019048 C33.5241584,79.2951953 30.8566293,77.1723688 28.9400056,74.6030955 C27.2750433,72.371663 26.1329819,69.8332482 25.3176316,67.1974488 C26.0697606,67.1846244 26.699118,67.1213043 27.2513863,67.1036709 C28.9901747,67.048366 30.2957956,65.3383225 29.5762969,63.7821708 C29.5134836,63.6475154 29.4396575,63.5160661 29.3507398,63.3886243 C28.8331413,62.6452143 25.4852699,61.8581213 25.4803754,60.9580141 C25.4599814,57.4625841 26.119114,56.4214092 26.0987201,52.9259792 C28.8669953,54.7113657 35.1703583,51.2560117 33.8879865,45.8341277 C35.9416576,46.1707662 35.5333707,47.7569749 39.3759993,47.1939069 C41.7127385,46.8512569 42.8058544,45.0310044 43.0546606,43.2917053 C43.4723287,43.7577894 43.8655242,44.2451137 44.2289444,44.7512738 C48.3093666,50.4344534 48.9293427,57.7904059 47.9279996,64.4907147 C47.8403056,65.0770268 48.2534871,65.526279 48.8685687,65.4152684 L52.3184099,64.7912849 C52.7458671,67.0187097 52.3844863,69.0998572 49.5709365,69.113483 M53.6464641,63.7232591 C53.5404155,63.3052662 53.1048007,63.1265272 52.7063029,63.198664 C51.6551985,63.3886243 50.604502,63.5785847 49.5542135,63.768545 C50.4181013,56.7311968 49.5652262,49.1480133 45.0773329,43.3642429 C44.4169767,42.5134291 43.684018,41.718321 42.891509,40.988136 C44.7522532,40.3918049 46.5310138,39.3438171 47.6004727,37.7343644 C48.6748262,36.117698 48.8930415,33.8742427 47.7978862,32.2708013 C47.171384,31.3530606 46.1994082,30.725871 45.231919,30.1624022 C43.6330331,29.2298333 41.855904,28.376615 40.0037252,28.5357168 C38.1515464,28.6944178 36.3128275,30.2573824 36.5396083,32.0704213 C34.284445,29.9836632 30.8749839,29.1849482 27.9044007,30.047384 C24.9342253,30.9102206 22.513871,33.4017465 21.7756099,36.3573525 C21.5096727,37.422573 21.4391096,38.5583273 20.9039723,39.5205524 C20.3101004,40.5881774 19.2655221,41.3275799 18.341676,42.1375161 C12.3841944,47.3566155 9.64528653,55.6936288 11.6512358,58.8860841 C14.1829411,62.9161281 15.2801358,60.6927108 17.6849907,63.6070386 C18.0696207,64.0731227 20.1457251,67.4675611 20.706151,67.7056126 C21.1703173,67.9023859 22.6982323,67.6170446 23.8916864,67.4014357 C24.1788333,68.4766751 24.4806638,69.5338804 24.8922138,70.506926 C26.0603794,73.268965 27.6918957,75.8759097 29.9021923,77.9534503 C32.001138,79.9263925 34.60463,81.4500826 37.451218,82.0880927 C39.1798095,82.475227 40.7909318,82.4383571 42.4000147,82.2171375 C42.4387632,82.4527845 42.4970899,82.6748056 42.5880469,82.8739834 C42.7442646,83.2162325 42.9808345,83.2394766 43.1868134,83.591344 C43.997677,84.9779741 44.0580431,86.0512098 42.634953,85.9918973 C41.1841272,85.9313825 39.5032576,85.1747474 38.1070875,84.8104564 C36.1908717,84.3103077 34.351745,83.8217811 32.5864444,82.8767887 C29.6158612,81.2857709 27.1008789,79.028289 24.6413682,76.7768185 C23.9218695,76.1183696 22.8377269,77.1787809 23.5600808,77.8396344 C26.5094543,80.5399563 29.5877176,83.2851633 33.3189952,84.8994251 C35.3698112,85.7863074 37.6147775,86.2371625 39.7732735,86.8002305 C41.4361965,87.2342538 43.5127088,88.1652196 44.9896389,86.8054404 C45.855974,86.007527 46.1194639,84.7050565 45.542315,83.6694923 C45.2241693,83.0984091 44.6201004,82.8266937 44.3039942,82.2604196 C44.2448517,82.1546189 44.1991692,82.0371962 44.159605,81.9145636 C44.93172,81.7606717 45.7119927,81.5843372 46.5142908,81.4104073 C47.474846,81.2024128 47.0681906,79.7532641 46.1076354,79.9612586 C45.3967022,80.1151505 44.705755,80.2678401 44.024597,80.4036978 C44.0702794,79.5468726 44.2415887,78.640754 44.2950208,77.9634693 C44.3150069,77.7153988 44.226905,77.5322514 44.0857789,77.4124241 C44.8799194,77.171968 45.306153,76.7672003 45.6018653,75.5753396 C46.0419668,73.8003729 46.3637834,72.0069713 46.6150369,70.1999438 C48.0409821,70.605513 49.6361971,70.7946718 51.042972,70.4648462 C54.3137542,69.6977913 54.3202803,66.3758905 53.6464641,63.7232591" id="Fill-54" fill="#000000"></path>
                <path d="M11.5640116,67.3592599 C17.5806435,63.6554862 23.828395,60.4501929 30.2951459,57.7768535 C31.5393466,57.262541 30.999371,55.0750166 29.7397066,55.5961142 C23.1049448,58.3391143 16.6833312,61.6059259 10.5095547,65.4065008 C9.34058277,66.1257241 10.3921142,68.0807449 11.5640116,67.3592599" id="Fill-56" fill="#FEE8D3"></path>
                <path d="M21.3560798,73.5164835 C20.2918887,71.3651002 18.2164891,69.928343 17.3729322,67.6618856 C16.7594707,66.0137425 16.9108493,64.0449766 17.7680302,62.5348389 C17.9599025,62.1962878 18.1956745,61.8698279 18.5192461,61.6888782 C18.865903,61.4950036 19.2761388,61.4895834 19.6610187,61.5517067 C21.8560074,61.9069351 23.4674318,64.6291022 22.8770555,66.9847836" id="Fill-58" fill="#FEFEFE"></path>
                <path d="M22.1524492,72.4002931 C20.8646241,70.3119667 18.3657672,68.7545299 17.6963939,66.3515132 C17.1715724,64.4653732 17.9501808,61.1242911 20.6863984,62.4447092 C22.0842798,63.1193315 22.6817879,64.9249972 22.395559,66.3078729 C22.2000855,67.2511431 23.6837947,67.6547154 23.8805001,66.7070411 C24.2476288,64.9358072 23.7708543,63.162171 22.4222518,61.8745832 C21.2124519,60.7199181 19.1041312,59.9363953 17.6343845,61.0654368 C15.9293304,62.3754453 15.6882739,65.1856377 16.316992,67.053761 C17.1420049,69.5040213 19.4963101,71.0070078 20.822737,73.1581923 C21.3327748,73.9853553 22.6649509,73.2314599 22.1524492,72.4002931" id="Fill-60" fill="#000000"></path>
                <path d="M30.8062348,55.5546316 C29.7489711,55.85483 28.6917074,56.1550284 27.6339439,56.4552268 C26.7096504,56.7174735 26.8801123,57.6992854 27.6059501,57.85299 C27.6269454,58.0264296 27.718425,58.1964534 27.8698911,58.3137244 C28.2533054,58.6108866 28.8061818,58.5558566 29.1950949,58.3137244 C30.0364069,57.7903696 30.8772189,57.2673944 31.718031,56.7440397 C32.4318714,56.3000041 31.6655427,55.3106018 30.8062348,55.5546316" id="Fill-62" fill="#000000"></path>
                <path d="M125.802947,51.1364572 C121.208133,45.5005254 115.25893,40.9815208 109.838546,36.2188606 C103.964138,31.057416 98.0901342,25.8963851 92.2157263,20.7349405 C91.8926946,20.4511583 91.4673761,20.4362659 91.1435357,20.7349405 C83.8209428,27.4911089 76.4983498,34.2472773 69.1757568,41.0034457 C68.4496428,41.673602 69.5246635,42.7677769 70.2479475,42.1005163 C77.3962892,35.5048545 84.544631,28.9096064 91.6929728,22.3143583 C97.384235,27.3148826 103.075093,32.3149933 108.766355,37.3155176 C113.755357,41.6992499 119.189892,45.8794533 123.606007,50.9110034 C102.981701,50.9316872 82.3569902,50.9440975 61.7322796,50.965195 C60.7567155,50.9664361 60.7550984,52.5177238 61.7322796,52.5164835 C82.9104702,52.4945579 104.088661,52.4825613 125.266851,52.4606364 C125.967899,52.4598091 126.208455,51.6341103 125.802947,51.1364572" id="Fill-64" fill="#000000"></path>
                <g id="Group-68" transform="translate(92.000000, 0.516484)">
                    <mask id="mask-4" fill="white">
                        <use xlink:href="#path-3"></use>
                    </mask>
                    <g id="Clip-67"></g>
                    <path d="M1.67336,17.13756 L1.67336,0.91276 C1.67336,-0.05244 0.17336,-0.05404 0.17336,0.91276 L0.17336,17.13756 C0.17336,18.10276 1.67336,18.10436 1.67336,17.13756" id="Fill-66" fill="#000000" mask="url(#mask-4)"></path>
                </g>
                <path d="M42.5460803,113.350744 C43.1861004,112.537819 44.9242923,112.896076 45.7370439,113.275148 C46.8891671,113.811985 47.4317266,114.7761 47.3608067,115.857078 C47.3033745,116.737563 48.934969,116.735007 48.9924011,115.857078 C49.1081355,114.089899 47.8933591,112.498378 45.9297896,111.842853 C44.3142936,111.303825 42.1753821,111.340344 41.1372529,112.659429 C40.5568404,113.396758 41.9691485,114.08369 42.5460803,113.350744" id="Fill-69" fill="#000000"></path>
            </g>
        </g>
    </g>
</svg>