<?xml version="1.0" encoding="UTF-8"?>
<svg width="23px" height="36px" viewBox="0 0 23 36" version="1.1" xmlns="http://www.w3.org/2000/svg" xmlns:xlink="http://www.w3.org/1999/xlink">
    <!-- Generator: Sketch 60.1 (88133) - https://sketch.com -->
    <title>1</title>
    <desc>Created with Sketch.</desc>
    <g id="Page-1-Jakub" stroke="none" stroke-width="1" fill="none" fill-rule="evenodd">
        <g id="Home" transform="translate(-352.000000, -924.000000)" fill="#FFFFFF" fill-rule="nonzero">
            <path d="M354.4425,958.579 C354.6875,958.579 354.8835,958.481 354.9815,958.285 C359.5385,949.661 363.9485,940.841 368.3095,932.168 C369.1915,930.355 371.3965,926.729 371.3965,926.043 C371.3965,925.504 370.3185,924.72 369.3385,924.72 C369.0935,924.72 368.8975,924.769 368.7505,924.965 C364.2425,931.433 359.2935,938.489 354.0995,944.663 C352.2865,945.643 354.5895,946.868 355.2755,946.868 C356.6965,946.868 359.4405,942.409 360.7145,940.743 C358.8525,944.075 357.1865,947.652 355.4225,951.082 C354.4915,952.895 352.3355,956.521 352.3355,957.256 C352.3355,957.648 353.3155,958.579 354.4425,958.579 Z M372.5235,959.657 C373.5525,959.657 374.3855,958.775 374.3855,957.746 C374.3855,956.717 373.5525,955.884 372.5235,955.884 C371.4455,955.884 370.6125,956.717 370.6125,957.746 C370.6125,958.775 371.4455,959.657 372.5235,959.657 Z" id="1."></path>
        </g>
    </g>
</svg>