<?xml version="1.0" encoding="UTF-8"?>
<svg width="29px" height="36px" viewBox="0 0 29 36" version="1.1" xmlns="http://www.w3.org/2000/svg" xmlns:xlink="http://www.w3.org/1999/xlink">
    <!-- Generator: Sketch 60.1 (88133) - https://sketch.com -->
    <title>2</title>
    <desc>Created with Sketch.</desc>
    <g id="Page-1-Jakub" stroke="none" stroke-width="1" fill="none" fill-rule="evenodd">
        <g id="Home" transform="translate(-865.000000, -924.000000)" fill="#FFFFFF" fill-rule="nonzero">
            <g id="Group-4" transform="translate(865.000000, 924.000000)">
                <path d="M2.5815,34.432 C2.9735,34.432 6.3055,33.011 7.4325,32.374 C10.3235,31.198 13.8025,29.679 17.1835,29.679 C18.2615,29.679 18.6535,29.63 18.6535,29.287 C18.6535,28.258 16.7915,28.013 16.0075,28.013 C12.9205,28.013 9.7355,29.091 6.9425,30.169 L9.1475,27.67 C14.6845,21.594 20.5155,15.077 24.8765,7.874 C25.6605,6.551 26.6405,4.885 26.6405,3.317 C26.6405,1.455 24.3865,0.72 22.8675,0.72 C16.6445,0.72 13.2145,6.061 12.6755,10.961 C12.3815,11.647 12.2835,11.794 12.2835,11.892 C12.2835,12.627 13.7535,13.215 14.3905,13.215 C14.7335,13.215 15.0275,13.019 15.1745,12.676 C16.0565,7.825 18.0655,2.974 23.9455,2.435 C23.7005,4.346 22.7205,5.914 21.8385,7.384 C17.3795,14.587 10.9605,21.643 4.9825,28.16 C3.5615,29.728 0.5725,32.668 0.5725,33.158 C0.5725,33.746 1.8465,34.432 2.5815,34.432 Z M26.4445,35.657 C27.4735,35.657 28.3065,34.775 28.3065,33.746 C28.3065,32.717 27.4735,31.884 26.4445,31.884 C25.3665,31.884 24.5335,32.717 24.5335,33.746 C24.5335,34.775 25.3665,35.657 26.4445,35.657 Z" id="2."></path>
            </g>
        </g>
    </g>
</svg>