<?xml version="1.0" encoding="UTF-8"?>
<svg width="27px" height="36px" viewBox="0 0 27 36" version="1.1" xmlns="http://www.w3.org/2000/svg" xmlns:xlink="http://www.w3.org/1999/xlink">
    <!-- Generator: Sketch 60.1 (88133) - https://sketch.com -->
    <title>3</title>
    <desc>Created with Sketch.</desc>
    <g id="Page-1-Jakub" stroke="none" stroke-width="1" fill="none" fill-rule="evenodd">
        <g id="Home" transform="translate(-1396.000000, -924.000000)" fill="#FFFFFF" fill-rule="nonzero">
            <g id="Group" transform="translate(1394.000000, 906.000000)">
                <path d="M7.81,51.648 C13.298,51.648 20.893,44.445 20.893,37.732 C20.893,35.87 19.668,34.645 18.198,34.155 C21.285,31.901 24.764,27.736 24.764,23.522 C24.764,20.876 22.706,18.426 19.913,18.426 C17.12,18.426 10.309,23.914 10.309,28.863 C10.309,30.235 11.24,31.166 12.465,31.166 C12.808,31.166 13.2,31.068 13.2,30.774 C13.2,30.676 13.2,30.627 13.151,30.529 C13.053,30.529 13.053,30.235 13.004,30.088 C13.641,25.482 16.973,22.738 20.207,20.435 C21.579,19.749 22.069,21.415 22.069,22.689 C22.069,27.295 17.806,31.803 13.69,34.057 C13.543,34.155 13.494,34.204 13.494,34.302 C13.494,34.939 14.768,35.674 15.601,35.674 C16.042,35.674 16.434,35.527 17.022,35.478 C17.855,35.527 17.904,35.576 18.051,35.772 C18.198,36.066 18.198,36.556 18.198,36.948 C18.198,37.928 17.953,38.908 17.659,39.888 C17.022,39.251 16.189,39.104 15.356,39.104 C12.71,39.104 6.144,41.015 3.743,44.641 C3.155,45.474 2.861,46.454 2.861,47.483 C2.861,50.276 5.752,51.648 7.81,51.648 Z M6.438,49.59 C5.654,48.904 5.605,47.189 6.242,46.16 C8.251,42.73 13.69,40.917 17.414,40.77 C17.071,43.563 8.741,51.648 6.438,49.59 Z M26.822,53.657 C27.851,53.657 28.684,52.775 28.684,51.746 C28.684,50.717 27.851,49.884 26.822,49.884 C25.744,49.884 24.911,50.717 24.911,51.746 C24.911,52.775 25.744,53.657 26.822,53.657 Z" id="3."></path>
            </g>
        </g>
    </g>
</svg>