<?xml version="1.0" encoding="UTF-8"?>
<svg width="26px" height="38px" viewBox="0 0 26 38" version="1.1" xmlns="http://www.w3.org/2000/svg" xmlns:xlink="http://www.w3.org/1999/xlink">
    <!-- Generator: Sketch 60.1 (88133) - https://sketch.com -->
    <title>4</title>
    <desc>Created with Sketch.</desc>
    <g id="Page-1-Jakub" stroke="none" stroke-width="1" fill="none" fill-rule="evenodd">
        <g id="Home" transform="translate(-447.000000, -850.000000)" fill="#FFFFFF" fill-rule="nonzero">
            <path d="M454.5785,886.383 C454.7745,886.383 455.0685,886.334 455.1665,886.138 C457.1755,881.091 459.4785,876.191 461.5855,871.193 C462.5655,870.899 464.1825,870.458 464.1825,870.115 C464.1825,869.625 463.1535,868.841 462.5655,868.841 C464.5745,864.039 466.6815,859.237 468.7395,854.484 C468.7885,854.386 468.9355,854.141 468.9355,853.994 C468.9355,853.651 468.4945,853.308 468.1025,853.112 L468.6415,852.426 C468.8865,852.181 469.5235,851.446 469.5235,851.299 C469.5235,850.711 468.2985,849.976 467.4655,849.976 C467.2205,849.976 466.9755,850.025 466.8285,850.221 C461.3405,857.522 455.4605,864.823 449.5315,871.683 L449.6785,871.536 C449.0415,872.271 447.8165,873.349 447.8165,873.594 C447.8165,874.28 449.1395,874.917 449.8745,874.917 C450.0215,874.917 450.1685,874.868 450.2665,874.819 C452.8145,874.035 455.3625,873.153 457.9105,872.369 C456.0975,876.485 454.4315,880.65 452.6675,884.57 C452.6185,884.766 452.4715,884.962 452.4715,885.158 C452.4715,885.991 454.1865,886.383 454.5785,886.383 Z M453.2555,871.585 C455.0195,869.527 456.6855,867.469 458.4005,865.362 L463.8395,858.551 L459.0865,869.723 L455.9995,870.703 L453.2555,871.585 Z M470.5035,887.657 C471.5325,887.657 472.3655,886.775 472.3655,885.746 C472.3655,884.717 471.5325,883.884 470.5035,883.884 C469.4255,883.884 468.5925,884.717 468.5925,885.746 C468.5925,886.775 469.4255,887.657 470.5035,887.657 Z" id="4."></path>
        </g>
    </g>
</svg>